STARTFONT 2.1
FONT -FontForge-Good Times Rg-Book-R-Normal--162-1560-75-75-P-1203-ISO10646-1
SIZE 156 75 75
FONTBOUNDINGBOX 323 191 -45 -33
COMMENT "Generated by fontforge, http://fontforge.sourceforge.net"
COMMENT "(c) 1998-2012 Typodermic Fonts Inc. See attached license agreement. If agreement is missing visit typodermicfonts.com for more info. Languages by Chikako Larabie"
STARTPROPERTIES 39
FOUNDRY "FontForge"
FAMILY_NAME "Good Times Rg"
WEIGHT_NAME "Book"
SLANT "R"
SETWIDTH_NAME "Normal"
ADD_STYLE_NAME ""
PIXEL_SIZE 162
POINT_SIZE 1560
RESOLUTION_X 75
RESOLUTION_Y 75
SPACING "P"
AVERAGE_WIDTH 1203
CHARSET_REGISTRY "ISO10646"
CHARSET_ENCODING "1"
FONTNAME_REGISTRY ""
CHARSET_COLLECTIONS "ISO8859-2 ISO8859-9 ISO8859-4 ISO10646-1"
FONT_NAME "GoodTimesRg-Regular"
FACE_NAME "GoodTimesRg-Regular"
COPYRIGHT "(c) 1998-2012 Typodermic Fonts Inc. See attached license agreement. If agreement is missing visit typodermicfonts.com for more info. Languages by Chikako Larabie"
FONT_VERSION "4.001"
FONT_ASCENT 129
FONT_DESCENT 33
UNDERLINE_POSITION -23
UNDERLINE_THICKNESS 4
X_HEIGHT 117
CAP_HEIGHT 117
RAW_ASCENT 799
RAW_DESCENT 201
NORM_SPACE 48
RELATIVE_WEIGHT 40
RELATIVE_SETWIDTH 50
SUPERSCRIPT_X 0
SUPERSCRIPT_Y 48
SUPERSCRIPT_SIZE 48
SUBSCRIPT_X 0
SUBSCRIPT_Y 0
SUBSCRIPT_SIZE 48
AVG_LOWERCASE_WIDTH 1380
AVG_UPPERCASE_WIDTH 1375
ENDPROPERTIES
CHARS 372
STARTCHAR space
ENCODING 32
SWIDTH 294 0
DWIDTH 48 0
BBX 1 1 0 0
BITMAP
00
ENDCHAR
STARTCHAR exclam
ENCODING 33
SWIDTH 298 0
DWIDTH 48 0
BBX 22 118 13 0
BITMAP
7FFFF8
7FFFF8
7FFFF8
7FFFF8
7FFFF8
7FFFF8
7FFFF8
7FFFF8
7FFFF8
7FFFF8
7FFFF8
7FFFF8
7FFFF8
7FFFF8
7FFFF8
7FFFF8
7FFFF8
7FFFF8
7FFFF8
7FFFF8
7FFFF8
7FFFF8
7FFFF8
7FFFF8
7FFFF8
7FFFF8
7FFFF8
7FFFF8
7FFFF8
7FFFF8
7FFFF8
7FFFF8
7FFFF8
7FFFF8
7FFFF8
7FFFF8
7FFFF8
7FFFF8
7FFFF8
7FFFF8
7FFFF8
7FFFF8
7FFFF8
7FFFF8
7FFFF8
7FFFF8
7FFFF8
7FFFF8
7FFFF8
7FFFF8
7FFFF8
7FFFF8
7FFFF8
7FFFF8
7FFFF8
7FFFF8
7FFFF8
7FFFF8
7FFFF8
7FFFF8
7FFFF8
7FFFF8
7FFFF8
7FFFF8
7FFFF8
7FFFF8
7FFFF8
7FFFF8
7FFFF8
7FFFF8
7FFFF8
7FFFF8
7FFFF8
7FFFF8
7FFFF8
7FFFF8
7FFFF8
7FFFF8
7FFFF8
7FFFF8
000000
000000
000000
000000
000000
000000
000000
000000
000000
000000
000000
000000
000000
000000
000000
000000
00FE00
03FF80
0FFFE0
1FFFF0
3FFFF8
3FFFF8
7FFFFC
7FFFFC
7FFFFC
FFFFFC
FFFFFC
FFFFFC
7FFFFC
7FFFFC
7FFFFC
7FFFFC
3FFFF8
3FFFF8
1FFFF0
0FFFE0
03FF80
00FE00
ENDCHAR
STARTCHAR quotedbl
ENCODING 34
SWIDTH 452 0
DWIDTH 73 0
BBX 51 42 11 76
BITMAP
FFFFF803FFFFE0
FFFFF803FFFFE0
FFFFF801FFFFE0
FFFFF801FFFFE0
FFFFF801FFFFE0
FFFFF001FFFFE0
7FFFF001FFFFE0
7FFFF001FFFFE0
7FFFF001FFFFC0
7FFFF001FFFFC0
7FFFF001FFFFC0
7FFFF001FFFFC0
7FFFF001FFFFC0
7FFFF000FFFFC0
7FFFF000FFFFC0
7FFFF000FFFFC0
7FFFE000FFFFC0
3FFFE000FFFFC0
3FFFE000FFFFC0
3FFFE000FFFF80
3FFFE000FFFF80
3FFFE000FFFF80
3FFFE000FFFF80
3FFFE000FFFF80
3FFFE0007FFF80
3FFFE0007FFF80
3FFFE0007FFF80
3FFFC0007FFF80
1FFFC0007FFF80
1FFFC0007FFF80
1FFFC0007FFF80
1FFFC0007FFF00
1FFFC0007FFF00
1FFFC0007FFF00
1FFFC0003FFF00
1FFFC0003FFF00
1FFFC0003FFF00
1FFFC0003FFF00
1FFFC0003FFF00
0FFF80003FFF00
0FFF80003FFF00
0FFF80003FFF00
ENDCHAR
STARTCHAR numbersign
ENCODING 35
SWIDTH 697 0
DWIDTH 113 0
BBX 100 118 7 0
BITMAP
0000000000FFFE000001FFFC00
0000000000FFFE000001FFF800
0000000000FFFE000001FFF800
0000000000FFFC000003FFF800
0000000001FFFC000003FFF800
0000000001FFFC000003FFF000
0000000001FFF8000007FFF000
0000000003FFF8000007FFF000
0000000003FFF8000007FFE000
0000000003FFF800000FFFE000
0000000007FFF000000FFFE000
0000000007FFF000000FFFC000
0000000007FFF000000FFFC000
0000000007FFE000001FFFC000
000000000FFFE000001FFFC000
000000000FFFE000001FFF8000
000000000FFFC000003FFF8000
000000001FFFC000003FFF8000
000000001FFFC000003FFF0000
000000001FFF8000007FFF0000
000000003FFF8000007FFF0000
000000003FFF8000007FFE0000
000000003FFF8000007FFE0000
000000003FFF000000FFFE0000
000000007FFF000000FFFE0000
000000007FFF000000FFFC0000
000000007FFE000001FFFC0000
00000000FFFE000001FFFC0000
00000000FFFE000001FFF80000
00000000FFFC000003FFF80000
0007FFFFFFFFFFFFFFFFFFFFF0
0007FFFFFFFFFFFFFFFFFFFFF0
0007FFFFFFFFFFFFFFFFFFFFF0
0007FFFFFFFFFFFFFFFFFFFFF0
0007FFFFFFFFFFFFFFFFFFFFF0
0007FFFFFFFFFFFFFFFFFFFFF0
0007FFFFFFFFFFFFFFFFFFFFF0
0007FFFFFFFFFFFFFFFFFFFFF0
0007FFFFFFFFFFFFFFFFFFFFF0
0007FFFFFFFFFFFFFFFFFFFFF0
0007FFFFFFFFFFFFFFFFFFFFF0
0007FFFFFFFFFFFFFFFFFFFFF0
0007FFFFFFFFFFFFFFFFFFFFF0
0007FFFFFFFFFFFFFFFFFFFFF0
0000001FFFC000003FFF000000
0000001FFF8000003FFF000000
0000001FFF8000007FFF000000
0000003FFF8000007FFF000000
0000003FFF8000007FFE000000
0000003FFF000000FFFE000000
0000007FFF000000FFFE000000
0000007FFF000000FFFC000000
0000007FFE000001FFFC000000
000000FFFE000001FFFC000000
000000FFFE000001FFF8000000
000000FFFC000001FFF8000000
000000FFFC000003FFF8000000
000001FFFC000003FFF8000000
000001FFFC000003FFF0000000
000001FFF8000007FFF0000000
000003FFF8000007FFF0000000
000003FFF8000007FFE0000000
000003FFF000000FFFE0000000
000007FFF000000FFFE0000000
000007FFF000000FFFC0000000
000007FFE000000FFFC0000000
000007FFE000001FFFC0000000
00000FFFE000001FFFC0000000
00000FFFE000001FFF80000000
00000FFFC000003FFF80000000
00001FFFC000003FFF80000000
00001FFFC000003FFF00000000
FFFFFFFFFFFFFFFFFFFFFE0000
FFFFFFFFFFFFFFFFFFFFFE0000
FFFFFFFFFFFFFFFFFFFFFE0000
FFFFFFFFFFFFFFFFFFFFFE0000
FFFFFFFFFFFFFFFFFFFFFE0000
FFFFFFFFFFFFFFFFFFFFFE0000
FFFFFFFFFFFFFFFFFFFFFE0000
FFFFFFFFFFFFFFFFFFFFFE0000
FFFFFFFFFFFFFFFFFFFFFE0000
FFFFFFFFFFFFFFFFFFFFFE0000
FFFFFFFFFFFFFFFFFFFFFE0000
FFFFFFFFFFFFFFFFFFFFFE0000
FFFFFFFFFFFFFFFFFFFFFE0000
FFFFFFFFFFFFFFFFFFFFFE0000
0001FFF8000007FFF000000000
0003FFF8000007FFF000000000
0003FFF8000007FFE000000000
0003FFF000000FFFE000000000
0007FFF000000FFFE000000000
0007FFF000000FFFC000000000
0007FFE000001FFFC000000000
000FFFE000001FFFC000000000
000FFFE000001FFF8000000000
000FFFC000001FFF8000000000
000FFFC000003FFF8000000000
001FFFC000003FFF8000000000
001FFFC000003FFF0000000000
001FFF8000007FFF0000000000
003FFF8000007FFF0000000000
003FFF8000007FFE0000000000
003FFF000000FFFE0000000000
003FFF000000FFFE0000000000
007FFF000000FFFC0000000000
007FFE000000FFFC0000000000
007FFE000001FFFC0000000000
00FFFE000001FFFC0000000000
00FFFE000001FFF80000000000
00FFFC000003FFF80000000000
01FFFC000003FFF80000000000
01FFFC000003FFF00000000000
01FFF8000003FFF00000000000
01FFF8000007FFF00000000000
03FFF8000007FFF00000000000
03FFF0000007FFE00000000000
03FFF000000FFFE00000000000
07FFF000000FFFE00000000000
ENDCHAR
STARTCHAR dollar
ENCODING 36
SWIDTH 744 0
DWIDTH 121 0
BBX 102 118 9 0
BITMAP
000000000000FF800000000000
000000000000FF800000000000
000000000000FF800000000000
000000000000FF800000000000
000000000000FF800000000000
000000000000FF800000000000
000000000000FF800000000000
000000000000FF800000000000
000000000000FF800000000000
000000000000FF800000000000
000000000000FF800000000000
000001FFFFFFFFFFFFFFFFFF80
00003FFFFFFFFFFFFFFFFFFF80
0000FFFFFFFFFFFFFFFFFFFF80
0003FFFFFFFFFFFFFFFFFFFF80
000FFFFFFFFFFFFFFFFFFFFF80
003FFFFFFFFFFFFFFFFFFFFF80
007FFFFFFFFFFFFFFFFFFFFF80
00FFFFFFFFFFFFFFFFFFFFFF80
01FFFFFFFFFFFFFFFFFFFFFF80
03FFFFFFFFFFFFFFFFFFFFFF80
07FFFFFFFFFFFFFFFFFFFFFF80
0FFFFFFFFFFFFFFFFFFFFFFF80
0FFFFFFFFFFFFFFFFFFFFFFF80
1FFFFFFFFFFFFFFFFFFFFFFF80
1FFFFFFFFFFFFFFFFFFFFFFF80
3FFFFFFFFFFFFFFFFFFFFFFF80
3FFFFFFFFFFFFFFFFFFFFFFF80
3FFFFF800000FF800000000000
7FFFFE000000FF800000000000
7FFFF8000000FF800000000000
7FFFF0000000FF800000000000
7FFFE0000000FF800000000000
FFFFE0000000FF800000000000
FFFFC0000000FF800000000000
FFFFC0000000FF800000000000
FFFFC0000000FF800000000000
FFFFC0000000FF800000000000
FFFF80000000FF800000000000
FFFF80000000FF800000000000
FFFF80000000FF800000000000
FFFFC0000000FF800000000000
7FFFC0000000FF800000000000
7FFFC0000000FF800000000000
7FFFC0000000FF800000000000
7FFFE0000000FF800000000000
7FFFE0000000FF800000000000
3FFFF0000000FF800000000000
3FFFF8000000FF800000000000
1FFFFE000000FF800000000000
1FFFFF800000FF800000000000
0FFFFFFFFFFFFFFFFFFF000000
0FFFFFFFFFFFFFFFFFFFF80000
07FFFFFFFFFFFFFFFFFFFF0000
03FFFFFFFFFFFFFFFFFFFFC000
03FFFFFFFFFFFFFFFFFFFFE000
01FFFFFFFFFFFFFFFFFFFFF800
00FFFFFFFFFFFFFFFFFFFFFC00
007FFFFFFFFFFFFFFFFFFFFE00
001FFFFFFFFFFFFFFFFFFFFF00
000FFFFFFFFFFFFFFFFFFFFF80
0003FFFFFFFFFFFFFFFFFFFFC0
0000FFFFFFFFFFFFFFFFFFFFC0
00001FFFFFFFFFFFFFFFFFFFE0
000001FFFFFFFFFFFFFFFFFFE0
000000000000FF800007FFFFF0
000000000000FF800000FFFFF0
000000000000FF8000003FFFF0
000000000000FF8000001FFFF8
000000000000FF8000000FFFF8
000000000000FF80000007FFF8
000000000000FF80000007FFF8
000000000000FF80000003FFFC
000000000000FF80000003FFFC
000000000000FF80000003FFFC
000000000000FF80000003FFFC
000000000000FF80000003FFFC
000000000000FF80000003FFFC
000000000000FF80000003FFFC
000000000000FF80000003FFFC
000000000000FF80000003FFFC
000000000000FF80000003FFFC
000000000000FF80000007FFFC
000000000000FF80000007FFFC
000000000000FF80000007FFFC
000000000000FF8000000FFFF8
000000000000FF8000001FFFF8
000000000000FF8000003FFFF8
000000000000FF800000FFFFF8
000000000000FF800007FFFFF0
3FFFFFFFFFFFFFFFFFFFFFFFF0
3FFFFFFFFFFFFFFFFFFFFFFFF0
3FFFFFFFFFFFFFFFFFFFFFFFE0
3FFFFFFFFFFFFFFFFFFFFFFFE0
3FFFFFFFFFFFFFFFFFFFFFFFC0
3FFFFFFFFFFFFFFFFFFFFFFF80
3FFFFFFFFFFFFFFFFFFFFFFF80
3FFFFFFFFFFFFFFFFFFFFFFF00
3FFFFFFFFFFFFFFFFFFFFFFE00
3FFFFFFFFFFFFFFFFFFFFFFC00
3FFFFFFFFFFFFFFFFFFFFFF800
3FFFFFFFFFFFFFFFFFFFFFF000
3FFFFFFFFFFFFFFFFFFFFFC000
3FFFFFFFFFFFFFFFFFFFFF8000
3FFFFFFFFFFFFFFFFFFFFE0000
3FFFFFFFFFFFFFFFFFFFF00000
3FFFFFFFFFFFFFFFFFFE000000
000000000000FF800000000000
000000000000FF800000000000
000000000000FF800000000000
000000000000FF800000000000
000000000000FF800000000000
000000000000FF800000000000
000000000000FF800000000000
000000000000FF800000000000
000000000000FF800000000000
000000000000FF800000000000
000000000000FF800000000000
ENDCHAR
STARTCHAR percent
ENCODING 37
SWIDTH 965 0
DWIDTH 156 0
BBX 143 136 7 -11
BITMAP
00000000000000000000000000001FFF8000
00000000000000000000000000003FFF0000
00000000000000000000000000007FFE0000
0000000000000000000000000000FFFC0000
0000000000000000000000000000FFF80000
000000FFF0000000000000000001FFF80000
00000FFFFF000000000000000003FFF00000
00007FFFFFE00000000000000007FFE00000
0001FFFFFFF8000000000000000FFFC00000
0007FFFFFFFE000000000000000FFFC00000
000FFFFFFFFF800000000000001FFF800000
001FFFFFFFFFC00000000000003FFF000000
007FFFFFFFFFE00000000000007FFE000000
00FFFFFFFFFFF00000000000007FFC000000
01FFFFFFFFFFF8000000000000FFFC000000
03FFFF801FFFFC000000000001FFF8000000
03FFF80001FFFE000000000003FFF0000000
07FFE000007FFF000000000007FFE0000000
0FFFC000001FFF000000000007FFE0000000
0FFF0000000FFF80000000000FFFC0000000
1FFE00000007FF80000000001FFF80000000
1FFC00000003FFC0000000003FFF00000000
3FFC00000001FFC0000000003FFE00000000
3FF800000001FFE0000000007FFE00000000
7FF000000000FFE000000000FFFC00000000
7FF0000000007FF000000001FFF800000000
7FF0000000007FF000000003FFF000000000
7FE0000000007FF000000003FFE000000000
FFE0000000003FF000000007FFE000000000
FFE0000000003FF00000000FFFC000000000
FFC0000000003FF80000001FFF8000000000
FFC0000000003FF80000003FFF0000000000
FFC0000000003FF80000003FFF0000000000
FFC0000000003FF80000007FFE0000000000
FFC0000000003FF8000000FFFC0000000000
FFC0000000003FF8000001FFF80000000000
FFC0000000003FF8000001FFF00000000000
FFC0000000003FF8000003FFF00000000000
FFC0000000003FF8000007FFE00000000000
FFC0000000003FF000000FFFC00000000000
FFE0000000003FF000001FFF800000000000
7FE0000000003FF000001FFF800000000000
7FE0000000007FF000003FFF000000000000
7FF0000000007FF000007FFE000000000000
7FF000000000FFE00000FFFC000000000000
3FF800000000FFE00000FFF8000000000000
3FF800000001FFC00001FFF8000000000000
1FFC00000001FFC00003FFF0000000000000
1FFE00000003FF800007FFE0000000000000
0FFE00000007FF80000FFFC0000000000000
0FFF8000000FFF00000FFFC0000000000000
07FFC000001FFF00001FFF80000000000000
03FFE000007FFE00003FFF00000000000000
03FFF80001FFFC00007FFE00000000000000
01FFFF800FFFFC0000FFFC00000000000000
00FFFFFFFFFFF80000FFFC00000000000000
007FFFFFFFFFF00001FFF800000000000000
003FFFFFFFFFC00003FFF000000000000000
001FFFFFFFFF800007FFE000000000000000
0007FFFFFFFF000007FFE000000000000000
0003FFFFFFFC00000FFFC000000000000000
0000FFFFFFF800001FFF8000000000000000
00003FFFFFE000003FFF0000000000000000
00000FFFFF0000007FFE0000000000000000
0000007FF00000007FFE0000000000000000
0000000000000000FFFC0000000000000000
0000000000000001FFF80000000000000000
0000000000000003FFF00000003FFC000000
0000000000000003FFE0000003FFFFC00000
0000000000000007FFE000001FFFFFF80000
000000000000000FFFC000007FFFFFFE0000
000000000000001FFF800001FFFFFFFF8000
000000000000003FFF000003FFFFFFFFC000
000000000000003FFF00000FFFFFFFFFF000
000000000000007FFE00001FFFFFFFFFF800
00000000000000FFFC00003FFFFFFFFFFC00
00000000000001FFF800007FFFFFFFFFFE00
00000000000003FFF00000FFFFE007FFFF00
00000000000003FFF00001FFFE00007FFF80
00000000000007FFE00001FFF800001FFF80
0000000000000FFFC00003FFE000000FFFC0
0000000000001FFF800007FFC0000003FFE0
0000000000001FFF800007FF80000001FFE0
0000000000003FFF00000FFF00000000FFF0
0000000000007FFE00000FFE00000000FFF0
000000000000FFFC00001FFE000000007FF8
000000000001FFF800001FFC000000003FF8
000000000001FFF800001FFC000000003FF8
000000000003FFF000003FF8000000001FFC
000000000007FFE000003FF8000000001FFC
00000000000FFFC000003FF0000000001FFC
00000000000FFFC000003FF0000000000FFC
00000000001FFF8000003FF0000000000FFC
00000000003FFF0000003FF0000000000FFC
00000000007FFE0000007FF0000000000FFC
0000000000FFFC0000007FF0000000000FFE
0000000000FFFC0000007FF0000000000FFE
0000000001FFF80000007FF0000000000FFE
0000000003FFF00000003FF0000000000FFC
0000000007FFE00000003FF0000000000FFC
000000000FFFE00000003FF0000000000FFC
000000000FFFC00000003FF0000000000FFC
000000001FFF800000003FF0000000001FFC
000000003FFF000000003FF8000000001FFC
000000007FFE000000003FF8000000001FF8
000000007FFE000000001FF8000000001FF8
00000000FFFC000000001FFC000000003FF8
00000001FFF8000000001FFC000000003FF0
00000003FFF0000000000FFE000000007FF0
00000007FFF0000000000FFE00000000FFF0
00000007FFE00000000007FF00000000FFE0
0000000FFFC00000000007FF80000001FFE0
0000001FFF800000000003FFC0000003FFC0
0000003FFF000000000001FFE000000FFF80
0000003FFF000000000001FFF800001FFF80
0000007FFE000000000000FFFE00007FFF00
000000FFFC0000000000007FFFE007FFFE00
000001FFF80000000000003FFFFFFFFFFC00
000003FFF00000000000001FFFFFFFFFF800
000003FFF00000000000000FFFFFFFFFF000
000007FFE000000000000007FFFFFFFFE000
00000FFFC000000000000003FFFFFFFFC000
00001FFF8000000000000000FFFFFFFF0000
00003FFF80000000000000003FFFFFFC0000
00003FFF00000000000000000FFFFFF00000
00007FFE000000000000000003FFFFC00000
0000FFFC0000000000000000003FF8000000
0001FFF80000000000000000000000000000
0001FFF80000000000000000000000000000
0003FFF00000000000000000000000000000
0007FFE00000000000000000000000000000
000FFFC00000000000000000000000000000
001FFFC00000000000000000000000000000
001FFF800000000000000000000000000000
003FFF000000000000000000000000000000
007FFE000000000000000000000000000000
ENDCHAR
STARTCHAR ampersand
ENCODING 38
SWIDTH 759 0
DWIDTH 123 0
BBX 110 118 8 0
BITMAP
00000000FFFFFFFE000000000000
0000003FFFFFFFFE000000000000
000001FFFFFFFFFE000000000000
00000FFFFFFFFFFE000000000000
00003FFFFFFFFFFE000000000000
0000FFFFFFFFFFFE000000000000
0003FFFFFFFFFFFE000000000000
0007FFFFFFFFFFFE000000000000
000FFFFFFFFFFFFE000000000000
003FFFFFFFFFFFFE000000000000
007FFFFFFFFFFFFE000000000000
00FFFFFFFFFFFFFE000000000000
00FFFFFFFFFFFFFE000000000000
01FFFFFFFFFFFFFE000000000000
03FFFFFFFFFFFFFE000000000000
03FFFFFFFFFFFFFE000000000000
07FFFFFFFFFFFFFE000000000000
07FFFFFFFFFFFFFE000000000000
0FFFFFFFFFFFFFFE000000000000
0FFFFFFFFFFFFFFE000000000000
0FFFFFFFFFFFFFFE000000000000
1FFFFFFF00000000000000000000
1FFFFFFC00000000000000000000
1FFFFFF000000000000000000000
1FFFFFE000000000000000000000
3FFFFFC000000000000000000000
3FFFFF8000000000000000000000
3FFFFF0000000000000000000000
3FFFFF0000000000000000000000
3FFFFF0000000000000000000000
3FFFFE0000000000000000000000
3FFFFE0000000000000000000000
3FFFFE0000000000000000000000
3FFFFE0000000000000000000000
3FFFFE0000000000000000000000
3FFFFE0000000000000000000000
1FFFFE0000000000000000000000
1FFFFE0000000000000000000000
1FFFFE0000000000000000000000
1FFFFF0000000000000000000000
1FFFFF0000000000000000000000
0FFFFF0000000000000000000000
0FFFFF8000000000000000000000
07FFFF8000000000000000000000
07FFFFC000000000000000000000
03FFFFE000000000000000000000
03FFFFF800000000000000000000
01FFFFFE00000000000000000000
00FFFFFFC0000000000000000000
007FFFFFFFFFFFFFFFFFFFFFFE00
003FFFFFFFFFFFFFFFFFFFFFFE00
001FFFFFFFFFFFFFFFFFFFFFFE00
0007FFFFFFFFFFFFFFFFFFFFFE00
0003FFFFFFFFFFFFFFFFFFFFFE00
0000FFFFFFFFFFFFFFFFFFFFFE00
00003FFFFFFFFFFFFFFFFFFFFE00
0001FFFFFFFFFFFFFFFFFFFFFE00
0007FFFFFFFFFFFFFFFFFFFFFE00
000FFFFFFFFFFFFFFFFFFFFFFE00
003FFFFFFFFFFFFFFFFFFFFFFE00
007FFFFFFFFFFFFFFFFFFFFFFE00
00FFFFFFFFFFFFFFFFFFFFFFFE00
01FFFFFFFFFFFFFFFFFFFFFFFE00
03FFFFFFFFFFFFFFFFFFFFFFFE00
07FFFFFFFFFFFFFFFFFFFFFFFE00
07FFFFFFFFFFFFFFFFFFFFFFFE00
0FFFFFFFC00000000FFFFF800000
1FFFFFFC000000000FFFFF800000
1FFFFFF0000000000FFFFF800000
3FFFFFC0000000000FFFFF800000
3FFFFF00000000000FFFFF800000
3FFFFF00000000000FFFFF800000
7FFFFE00000000000FFFFF800000
7FFFFC00000000000FFFFF800000
7FFFFC00000000000FFFFF800000
FFFFF800000000000FFFFF800000
FFFFF800000000000FFFFF800000
FFFFF800000000000FFFFF800000
FFFFF800000000000FFFFF800000
FFFFF800000000000FFFFF800000
FFFFF800000000000FFFFF800000
FFFFF800000000000FFFFF800000
FFFFF800000000000FFFFF800000
FFFFF800000000000FFFFF800000
FFFFF800000000000FFFFF800000
FFFFF800000000000FFFFF800000
FFFFF800000000000FFFFF800000
FFFFFC00000000000FFFFF800000
FFFFFC00000000000FFFFF800000
7FFFFE00000000000FFFFF800000
7FFFFE00000000000FFFFF800000
7FFFFF00000000000FFFFF800000
7FFFFF80000000000FFFFF800000
7FFFFFC0000000000FFFFF800000
3FFFFFF0000000000FFFFF800000
3FFFFFFC000000000FFFFF800000
3FFFFFFF800000000FFFFF800000
1FFFFFFFFFFFFFFFFFFFFFFFFFFC
1FFFFFFFFFFFFFFFFFFFFFFFFFFC
0FFFFFFFFFFFFFFFFFFFFFFFFFFC
0FFFFFFFFFFFFFFFFFFFFFFFFFFC
07FFFFFFFFFFFFFFFFFFFFFFFFFC
07FFFFFFFFFFFFFFFFFFFFFFFFFC
03FFFFFFFFFFFFFFFFFFFFFFFFFC
01FFFFFFFFFFFFFFFFFFFFFFFFFC
00FFFFFFFFFFFFFFFFFFFFFFFFFC
00FFFFFFFFFFFFFFFFFFFFFFFFFC
007FFFFFFFFFFFFFFFFFFFFFFFFC
003FFFFFFFFFFFFFFFFFFFFFFFFC
000FFFFFFFFFFFFFFFFFFFFFFFFC
0007FFFFFFFFFFFFFFFFFFFFFFFC
0003FFFFFFFFFFFFFFFFFFFFFFFC
0000FFFFFFFFFFFFFFFFFFFFFFFC
00007FFFFFFFFFFFFFFFFFFFFFFC
00000FFFFFFFFFFFFFFFFFFFFFFC
000003FFFFFFFFFFFFFFFFFFFFFC
0000007FFFFFFFFFFFFFFFFFFFFC
00000001FFFFFFFFFFFFFFFFFFFC
ENDCHAR
STARTCHAR quotesingle
ENCODING 39
SWIDTH 255 0
DWIDTH 41 0
BBX 21 42 10 76
BITMAP
FFFFF8
FFFFF8
FFFFF8
7FFFF8
7FFFF8
7FFFF8
7FFFF8
7FFFF0
7FFFF0
7FFFF0
7FFFF0
7FFFF0
7FFFF0
7FFFF0
3FFFF0
3FFFF0
3FFFF0
3FFFF0
3FFFE0
3FFFE0
3FFFE0
3FFFE0
3FFFE0
3FFFE0
3FFFE0
1FFFE0
1FFFE0
1FFFE0
1FFFC0
1FFFC0
1FFFC0
1FFFC0
1FFFC0
1FFFC0
1FFFC0
1FFFC0
0FFFC0
0FFFC0
0FFFC0
0FFF80
0FFF80
0FFF80
ENDCHAR
STARTCHAR parenleft
ENCODING 40
SWIDTH 356 0
DWIDTH 58 0
BBX 32 149 15 -14
BITMAP
00007FFF
00007FFF
0000FFFE
0000FFFE
0001FFFC
0001FFFC
0001FFFC
0003FFF8
0003FFF8
0003FFF0
0007FFF0
0007FFE0
000FFFE0
000FFFE0
000FFFC0
001FFFC0
001FFFC0
001FFF80
003FFF80
003FFF00
003FFF00
007FFF00
007FFE00
007FFE00
00FFFE00
00FFFC00
00FFFC00
01FFFC00
01FFF800
01FFF800
03FFF800
03FFF000
03FFF000
03FFF000
07FFE000
07FFE000
07FFE000
07FFE000
0FFFC000
0FFFC000
0FFFC000
0FFFC000
1FFF8000
1FFF8000
1FFF8000
1FFF8000
1FFF0000
1FFF0000
3FFF0000
3FFF0000
3FFF0000
3FFE0000
3FFE0000
3FFE0000
7FFE0000
7FFE0000
7FFE0000
7FFE0000
7FFC0000
7FFC0000
7FFC0000
7FFC0000
7FFC0000
7FFC0000
7FFC0000
FFFC0000
FFFC0000
FFFC0000
FFF80000
FFF80000
FFF80000
FFF80000
FFF80000
FFF80000
FFF80000
FFF80000
FFF80000
FFF80000
FFF80000
FFF80000
FFF80000
FFFC0000
FFFC0000
7FFC0000
7FFC0000
7FFC0000
7FFC0000
7FFC0000
7FFC0000
7FFC0000
7FFC0000
7FFC0000
7FFE0000
7FFE0000
3FFE0000
3FFE0000
3FFE0000
3FFE0000
3FFF0000
3FFF0000
3FFF0000
1FFF0000
1FFF0000
1FFF0000
1FFF8000
1FFF8000
0FFF8000
0FFF8000
0FFFC000
0FFFC000
0FFFC000
07FFC000
07FFE000
07FFE000
07FFE000
03FFE000
03FFF000
03FFF000
03FFF000
01FFF800
01FFF800
01FFF800
00FFFC00
00FFFC00
00FFFC00
007FFE00
007FFE00
007FFE00
003FFF00
003FFF00
003FFF80
001FFF80
001FFF80
001FFFC0
000FFFC0
000FFFC0
0007FFE0
0007FFE0
0007FFF0
0003FFF0
0003FFF8
0001FFF8
0001FFF8
0001FFFC
0000FFFC
0000FFFE
00007FFE
00007FFF
00003FFF
ENDCHAR
STARTCHAR parenright
ENCODING 41
SWIDTH 355 0
DWIDTH 58 0
BBX 32 149 10 -14
BITMAP
7FFE0000
7FFF0000
3FFF0000
3FFF8000
3FFF8000
1FFF8000
1FFFC000
0FFFC000
0FFFE000
0FFFE000
07FFE000
07FFF000
03FFF000
03FFF800
03FFF800
01FFF800
01FFFC00
00FFFC00
00FFFC00
00FFFE00
007FFE00
007FFE00
007FFF00
003FFF00
003FFF00
003FFF80
001FFF80
001FFF80
001FFFC0
000FFFC0
000FFFC0
000FFFC0
0007FFE0
0007FFE0
0007FFE0
0007FFE0
0003FFF0
0003FFF0
0003FFF0
0001FFF0
0001FFF8
0001FFF8
0001FFF8
0001FFF8
0000FFFC
0000FFFC
0000FFFC
0000FFFC
00007FFC
00007FFC
00007FFE
00007FFE
00007FFE
00007FFE
00003FFE
00003FFE
00003FFE
00003FFF
00003FFF
00003FFF
00003FFF
00003FFF
00001FFF
00001FFF
00001FFF
00001FFF
00001FFF
00001FFF
00001FFF
00001FFF
00001FFF
00001FFF
00001FFF
00001FFF
00001FFF
00001FFF
00001FFF
00001FFF
00001FFF
00001FFF
00001FFF
00001FFF
00001FFF
00001FFF
00001FFF
00001FFF
00001FFF
00003FFF
00003FFF
00003FFF
00003FFF
00003FFE
00003FFE
00003FFE
00003FFE
00007FFE
00007FFE
00007FFE
00007FFE
00007FFC
00007FFC
0000FFFC
0000FFFC
0000FFFC
0000FFFC
0000FFF8
0001FFF8
0001FFF8
0001FFF8
0001FFF0
0003FFF0
0003FFF0
0003FFF0
0003FFF0
0007FFE0
0007FFE0
0007FFE0
000FFFC0
000FFFC0
000FFFC0
000FFFC0
001FFF80
001FFF80
001FFF80
003FFF00
003FFF00
007FFF00
007FFE00
007FFE00
00FFFE00
00FFFC00
00FFFC00
01FFFC00
01FFF800
03FFF800
03FFF000
03FFF000
07FFF000
07FFE000
0FFFE000
0FFFC000
0FFFC000
1FFFC000
1FFF8000
3FFF8000
3FFF0000
7FFF0000
7FFE0000
FFFE0000
ENDCHAR
STARTCHAR asterisk
ENCODING 42
SWIDTH 469 0
DWIDTH 76 0
BBX 56 53 10 65
BITMAP
000001FF800000
000001FF800000
000001FF800000
000001FF800000
000001FF800000
000001FF800000
000001FF800000
000001FF800000
000001FF800000
000001FF800000
000001FF800000
000001FF800000
000001FF800000
000001FF800000
000001FF800000
1C0001FF800038
3F8001FF8001F8
3FF801FF801FFC
3FFF01FF80FFFC
3FFFE1FF87FFFC
7FFFFDFFBFFFFE
7FFFFFFFFFFFFE
7FFFFFFFFFFFFE
FFFFFFFFFFFFFF
1FFFFFFFFFFFF8
03FFFFFFFFFFC0
007FFFFFFFFE00
000FFFFFFFE000
0000FFFFFF0000
00001FFFF80000
00000FFFF00000
00001FFFF80000
00003FFFFC0000
00003FFFFC0000
00007FFFFE0000
0000FFFFFF0000
0001FFE7FF0000
0001FFE7FF8000
0003FFC3FFC000
0007FF81FFC000
0007FF01FFE000
000FFF00FFF000
001FFE007FF800
001FFC003FF800
003FFC003FFC00
007FF8001FFE00
00FFF0000FFE00
00FFE0000FFF00
007FE00007FE00
001FC00003FC00
000F800001F000
0007800001E000
0003000000C000
ENDCHAR
STARTCHAR plus
ENCODING 43
SWIDTH 690 0
DWIDTH 112 0
BBX 92 92 10 14
BITMAP
0000000001FFF80000000000
0000000001FFF80000000000
0000000001FFF80000000000
0000000001FFF80000000000
0000000001FFF80000000000
0000000001FFF80000000000
0000000001FFF80000000000
0000000001FFF80000000000
0000000001FFF80000000000
0000000001FFF80000000000
0000000001FFF80000000000
0000000001FFF80000000000
0000000001FFF80000000000
0000000001FFF80000000000
0000000001FFF80000000000
0000000001FFF80000000000
0000000001FFF80000000000
0000000001FFF80000000000
0000000001FFF80000000000
0000000001FFF80000000000
0000000001FFF80000000000
0000000001FFF80000000000
0000000001FFF80000000000
0000000001FFF80000000000
0000000001FFF80000000000
0000000001FFF80000000000
0000000001FFF80000000000
0000000001FFF80000000000
0000000001FFF80000000000
0000000001FFF80000000000
0000000001FFF80000000000
0000000001FFF80000000000
0000000001FFF80000000000
0000000001FFF80000000000
0000000001FFF80000000000
0000000001FFF80000000000
0000000001FFF80000000000
0000000001FFF80000000000
0000000001FFF80000000000
FFFFFFFFFFFFFFFFFFFFFFF0
FFFFFFFFFFFFFFFFFFFFFFF0
FFFFFFFFFFFFFFFFFFFFFFF0
FFFFFFFFFFFFFFFFFFFFFFF0
FFFFFFFFFFFFFFFFFFFFFFF0
FFFFFFFFFFFFFFFFFFFFFFF0
FFFFFFFFFFFFFFFFFFFFFFF0
FFFFFFFFFFFFFFFFFFFFFFF0
FFFFFFFFFFFFFFFFFFFFFFF0
FFFFFFFFFFFFFFFFFFFFFFF0
FFFFFFFFFFFFFFFFFFFFFFF0
FFFFFFFFFFFFFFFFFFFFFFF0
FFFFFFFFFFFFFFFFFFFFFFF0
FFFFFFFFFFFFFFFFFFFFFFF0
0000000001FFF80000000000
0000000001FFF80000000000
0000000001FFF80000000000
0000000001FFF80000000000
0000000001FFF80000000000
0000000001FFF80000000000
0000000001FFF80000000000
0000000001FFF80000000000
0000000001FFF80000000000
0000000001FFF80000000000
0000000001FFF80000000000
0000000001FFF80000000000
0000000001FFF80000000000
0000000001FFF80000000000
0000000001FFF80000000000
0000000001FFF80000000000
0000000001FFF80000000000
0000000001FFF80000000000
0000000001FFF80000000000
0000000001FFF80000000000
0000000001FFF80000000000
0000000001FFF80000000000
0000000001FFF80000000000
0000000001FFF80000000000
0000000001FFF80000000000
0000000001FFF80000000000
0000000001FFF80000000000
0000000001FFF80000000000
0000000001FFF80000000000
0000000001FFF80000000000
0000000001FFF80000000000
0000000001FFF80000000000
0000000001FFF80000000000
0000000001FFF80000000000
0000000001FFF80000000000
0000000001FFF80000000000
0000000001FFF80000000000
0000000001FFF80000000000
0000000001FFF80000000000
ENDCHAR
STARTCHAR comma
ENCODING 44
SWIDTH 259 0
DWIDTH 42 0
BBX 21 42 11 -19
BITMAP
FFFFF8
FFFFF0
FFFFF0
FFFFF0
FFFFF0
FFFFF0
FFFFF0
FFFFE0
FFFFE0
FFFFE0
FFFFE0
FFFFE0
FFFFC0
FFFFC0
FFFFC0
FFFFC0
FFFFC0
FFFF80
FFFF80
FFFF80
FFFF80
FFFF80
FFFF00
FFFF00
FFFF00
FFFF00
FFFF00
FFFE00
FFFE00
FFFE00
FFFE00
FFFE00
FFFE00
FFFC00
FFFC00
FFFC00
FFFC00
FFFC00
FFF800
FFF800
FFF800
FFF800
ENDCHAR
STARTCHAR hyphen
ENCODING 45
SWIDTH 296 0
DWIDTH 48 0
BBX 39 14 5 53
BITMAP
FFFFFFFFFE
FFFFFFFFFE
FFFFFFFFFE
FFFFFFFFFE
FFFFFFFFFE
FFFFFFFFFE
FFFFFFFFFE
FFFFFFFFFE
FFFFFFFFFE
FFFFFFFFFE
FFFFFFFFFE
FFFFFFFFFE
FFFFFFFFFE
FFFFFFFFFE
ENDCHAR
STARTCHAR period
ENCODING 46
SWIDTH 262 0
DWIDTH 42 0
BBX 22 22 10 0
BITMAP
00FE00
07FF80
0FFFC0
1FFFE0
3FFFF0
3FFFF8
7FFFF8
7FFFFC
FFFFFC
FFFFFC
FFFFFC
FFFFFC
FFFFFC
FFFFFC
7FFFFC
7FFFF8
3FFFF8
3FFFF0
1FFFE0
0FFFC0
07FF80
01FE00
ENDCHAR
STARTCHAR slash
ENCODING 47
SWIDTH 444 0
DWIDTH 72 0
BBX 69 118 1 0
BITMAP
00000000000000FFF8
00000000000001FFF8
00000000000001FFF0
00000000000003FFF0
00000000000003FFE0
00000000000007FFE0
00000000000007FFC0
0000000000000FFFC0
0000000000000FFF80
0000000000001FFF80
0000000000001FFF00
0000000000003FFF00
0000000000003FFF00
0000000000003FFE00
0000000000007FFE00
0000000000007FFC00
000000000000FFFC00
000000000000FFF800
000000000001FFF800
000000000001FFF000
000000000003FFF000
000000000003FFE000
000000000007FFE000
000000000007FFC000
00000000000FFFC000
00000000000FFFC000
00000000001FFF8000
00000000001FFF8000
00000000003FFF0000
00000000003FFF0000
00000000003FFE0000
00000000007FFE0000
00000000007FFC0000
0000000000FFFC0000
0000000000FFF80000
0000000001FFF80000
0000000001FFF00000
0000000003FFF00000
0000000003FFF00000
0000000007FFE00000
0000000007FFE00000
000000000FFFC00000
000000000FFFC00000
000000001FFF800000
000000001FFF800000
000000003FFF000000
000000003FFF000000
000000003FFE000000
000000007FFE000000
000000007FFC000000
00000000FFFC000000
00000000FFF8000000
00000001FFF8000000
00000001FFF8000000
00000003FFF0000000
00000003FFF0000000
00000007FFE0000000
00000007FFE0000000
0000000FFFC0000000
0000000FFFC0000000
0000001FFF80000000
0000001FFF80000000
0000003FFF00000000
0000003FFF00000000
0000003FFE00000000
0000007FFE00000000
0000007FFE00000000
000000FFFC00000000
000000FFFC00000000
000001FFF800000000
000001FFF800000000
000003FFF000000000
000003FFF000000000
000007FFE000000000
000007FFE000000000
00000FFFC000000000
00000FFFC000000000
00001FFF8000000000
00001FFF8000000000
00001FFF8000000000
00003FFF0000000000
00003FFF0000000000
00007FFE0000000000
00007FFE0000000000
0000FFFC0000000000
0000FFFC0000000000
0001FFF80000000000
0001FFF80000000000
0003FFF00000000000
0003FFF00000000000
0007FFE00000000000
0007FFE00000000000
000FFFE00000000000
000FFFC00000000000
001FFFC00000000000
001FFF800000000000
001FFF800000000000
003FFF000000000000
003FFF000000000000
007FFE000000000000
007FFE000000000000
00FFFC000000000000
00FFFC000000000000
01FFF8000000000000
01FFF8000000000000
03FFF8000000000000
03FFF0000000000000
07FFF0000000000000
07FFE0000000000000
0FFFE0000000000000
0FFFC0000000000000
1FFFC0000000000000
1FFF80000000000000
1FFF80000000000000
3FFF00000000000000
3FFF00000000000000
7FFE00000000000000
FFFE00000000000000
ENDCHAR
STARTCHAR zero
ENCODING 48
SWIDTH 838 0
DWIDTH 136 0
BBX 122 118 7 0
BITMAP
0000000000000FFFF800000000000000
000000000003FFFFFFE0000000000000
00000000003FFFFFFFFE000000000000
0000000001FFFFFFFFFFE00000000000
000000000FFFFFFFFFFFF80000000000
000000003FFFFFFFFFFFFF0000000000
00000000FFFFFFFFFFFFFFC000000000
00000003FFFFFFFFFFFFFFF000000000
0000000FFFFFFFFFFFFFFFFC00000000
0000003FFFFFFFFFFFFFFFFE00000000
0000007FFFFFFFFFFFFFFFFF80000000
000001FFFFFFFFFFFFFFFFFFC0000000
000003FFFFFFFFFFFFFFFFFFF0000000
00000FFFFFFFFFFFFFFFFFFFF8000000
00001FFFFFFFFFFFFFFFFFFFFC000000
00003FFFFFFFFFFFFFFFFFFFFE000000
00007FFFFFFFFFFFFFFFFFFFFF800000
0000FFFFFFFFFFFFFFFFFFFFFFC00000
0001FFFFFFFFFFFFFFFFFFFFFFE00000
0003FFFFFFFFFFFFFFFFFFFFFFF00000
0007FFFFFFFFFFFFFFFFFFFFFFF00000
000FFFFFFFFFE00001FFFFFFFFF80000
000FFFFFFFFE0000001FFFFFFFFC0000
001FFFFFFFF000000003FFFFFFFE0000
003FFFFFFF8000000000FFFFFFFF0000
007FFFFFFE00000000003FFFFFFF0000
007FFFFFF800000000000FFFFFFF8000
00FFFFFFF0000000000003FFFFFFC000
00FFFFFFC0000000000001FFFFFFC000
01FFFFFF80000000000000FFFFFFE000
03FFFFFF000000000000003FFFFFE000
03FFFFFE000000000000001FFFFFF000
07FFFFFC000000000000000FFFFFF000
07FFFFF80000000000000007FFFFF800
0FFFFFF00000000000000007FFFFF800
0FFFFFE00000000000000003FFFFFC00
0FFFFFE00000000000000001FFFFFC00
1FFFFFC00000000000000000FFFFFC00
1FFFFF800000000000000000FFFFFE00
1FFFFF8000000000000000007FFFFE00
3FFFFF0000000000000000007FFFFE00
3FFFFF0000000000000000003FFFFF00
3FFFFE0000000000000000003FFFFF00
7FFFFE0000000000000000001FFFFF00
7FFFFE0000000000000000001FFFFF80
7FFFFC0000000000000000001FFFFF80
7FFFFC0000000000000000000FFFFF80
7FFFFC0000000000000000000FFFFF80
FFFFFC0000000000000000000FFFFF80
FFFFF80000000000000000000FFFFF80
FFFFF80000000000000000000FFFFFC0
FFFFF800000000000000000007FFFFC0
FFFFF800000000000000000007FFFFC0
FFFFF800000000000000000007FFFFC0
FFFFF800000000000000000007FFFFC0
FFFFF000000000000000000007FFFFC0
FFFFF000000000000000000007FFFFC0
FFFFF000000000000000000007FFFFC0
FFFFF000000000000000000007FFFFC0
FFFFF000000000000000000007FFFFC0
FFFFF000000000000000000007FFFFC0
FFFFF000000000000000000007FFFFC0
FFFFF800000000000000000007FFFFC0
FFFFF800000000000000000007FFFFC0
FFFFF800000000000000000007FFFFC0
FFFFF800000000000000000007FFFFC0
FFFFF800000000000000000007FFFF80
FFFFF80000000000000000000FFFFF80
7FFFF80000000000000000000FFFFF80
7FFFFC0000000000000000000FFFFF80
7FFFFC0000000000000000000FFFFF80
7FFFFC0000000000000000001FFFFF00
7FFFFC0000000000000000001FFFFF00
3FFFFE0000000000000000001FFFFF00
3FFFFE0000000000000000003FFFFF00
3FFFFF0000000000000000003FFFFE00
1FFFFF0000000000000000007FFFFE00
1FFFFF8000000000000000007FFFFE00
1FFFFF800000000000000000FFFFFC00
0FFFFFC00000000000000000FFFFFC00
0FFFFFC00000000000000001FFFFFC00
07FFFFE00000000000000001FFFFF800
07FFFFF00000000000000003FFFFF800
07FFFFF00000000000000007FFFFF000
03FFFFF8000000000000000FFFFFF000
03FFFFFC000000000000001FFFFFE000
01FFFFFE000000000000003FFFFFE000
01FFFFFF000000000000007FFFFFC000
00FFFFFF80000000000000FFFFFFC000
007FFFFFE0000000000001FFFFFF8000
007FFFFFF0000000000003FFFFFF0000
003FFFFFFC00000000000FFFFFFF0000
001FFFFFFE00000000003FFFFFFE0000
001FFFFFFF8000000000FFFFFFFC0000
000FFFFFFFF000000003FFFFFFFC0000
0007FFFFFFFE0000001FFFFFFFF80000
0003FFFFFFFFE00001FFFFFFFFF00000
0001FFFFFFFFFFFFFFFFFFFFFFE00000
0001FFFFFFFFFFFFFFFFFFFFFFC00000
0000FFFFFFFFFFFFFFFFFFFFFF800000
00007FFFFFFFFFFFFFFFFFFFFF000000
00003FFFFFFFFFFFFFFFFFFFFE000000
00001FFFFFFFFFFFFFFFFFFFFC000000
000007FFFFFFFFFFFFFFFFFFF8000000
000003FFFFFFFFFFFFFFFFFFF0000000
000001FFFFFFFFFFFFFFFFFFE0000000
000000FFFFFFFFFFFFFFFFFF80000000
0000003FFFFFFFFFFFFFFFFF00000000
0000001FFFFFFFFFFFFFFFFC00000000
00000007FFFFFFFFFFFFFFF000000000
00000001FFFFFFFFFFFFFFE000000000
000000007FFFFFFFFFFFFF8000000000
000000001FFFFFFFFFFFFE0000000000
0000000007FFFFFFFFFFF00000000000
0000000000FFFFFFFFFFC00000000000
00000000001FFFFFFFFE000000000000
000000000001FFFFFFE0000000000000
00000000000007FFF800000000000000
ENDCHAR
STARTCHAR one
ENCODING 49
SWIDTH 385 0
DWIDTH 62 0
BBX 48 118 4 0
BITMAP
FFFFE0000000
FFFFFF000000
FFFFFFE00000
FFFFFFF80000
FFFFFFFE0000
FFFFFFFF8000
FFFFFFFFC000
FFFFFFFFF000
FFFFFFFFF800
FFFFFFFFFC00
FFFFFFFFFE00
FFFFFFFFFF00
FFFFFFFFFF80
FFFFFFFFFF80
FFFFFFFFFFC0
FFFFFFFFFFE0
FFFFFFFFFFE0
FFFFFFFFFFF0
FFFFFFFFFFF0
FFFFFFFFFFF8
FFFFFFFFFFF8
00003FFFFFF8
00000FFFFFFC
000003FFFFFC
000001FFFFFC
000000FFFFFE
0000007FFFFE
0000007FFFFE
0000003FFFFE
0000003FFFFE
0000001FFFFF
0000001FFFFF
0000001FFFFF
0000001FFFFF
0000001FFFFF
0000000FFFFF
0000000FFFFF
0000000FFFFF
0000000FFFFF
0000000FFFFF
0000000FFFFF
0000000FFFFF
0000000FFFFF
0000000FFFFF
0000000FFFFF
0000000FFFFF
0000000FFFFF
0000000FFFFF
0000000FFFFF
0000000FFFFF
0000000FFFFF
0000000FFFFF
0000000FFFFF
0000000FFFFF
0000000FFFFF
0000000FFFFF
0000000FFFFF
0000000FFFFF
0000000FFFFF
0000000FFFFF
0000000FFFFF
0000000FFFFF
0000000FFFFF
0000000FFFFF
0000000FFFFF
0000000FFFFF
0000000FFFFF
0000000FFFFF
0000000FFFFF
0000000FFFFF
0000000FFFFF
0000000FFFFF
0000000FFFFF
0000000FFFFF
0000000FFFFF
0000000FFFFF
0000000FFFFF
0000000FFFFF
0000000FFFFF
0000000FFFFF
0000000FFFFF
0000000FFFFF
0000000FFFFF
0000000FFFFF
0000000FFFFF
0000000FFFFF
0000000FFFFF
0000000FFFFF
0000000FFFFF
0000000FFFFF
0000000FFFFF
0000000FFFFF
0000000FFFFF
0000000FFFFF
0000000FFFFF
0000000FFFFF
0000000FFFFF
0000000FFFFF
0000000FFFFF
0000000FFFFF
0000000FFFFF
0000000FFFFF
0000000FFFFF
0000000FFFFF
0000000FFFFF
0000000FFFFF
0000000FFFFF
0000000FFFFF
0000000FFFFF
0000000FFFFF
0000000FFFFF
0000000FFFFF
0000000FFFFF
0000000FFFFF
0000000FFFFF
0000000FFFFF
0000000FFFFF
0000000FFFFF
ENDCHAR
STARTCHAR two
ENCODING 50
SWIDTH 825 0
DWIDTH 134 0
BBX 115 118 10 0
BITMAP
7FFFFFFFFFFFFFFFFFFFFC00000000
7FFFFFFFFFFFFFFFFFFFFFE0000000
7FFFFFFFFFFFFFFFFFFFFFFE000000
7FFFFFFFFFFFFFFFFFFFFFFF800000
7FFFFFFFFFFFFFFFFFFFFFFFE00000
7FFFFFFFFFFFFFFFFFFFFFFFF80000
7FFFFFFFFFFFFFFFFFFFFFFFFC0000
7FFFFFFFFFFFFFFFFFFFFFFFFF0000
7FFFFFFFFFFFFFFFFFFFFFFFFF8000
7FFFFFFFFFFFFFFFFFFFFFFFFFC000
7FFFFFFFFFFFFFFFFFFFFFFFFFE000
7FFFFFFFFFFFFFFFFFFFFFFFFFF000
7FFFFFFFFFFFFFFFFFFFFFFFFFF800
7FFFFFFFFFFFFFFFFFFFFFFFFFF800
7FFFFFFFFFFFFFFFFFFFFFFFFFFC00
7FFFFFFFFFFFFFFFFFFFFFFFFFFE00
7FFFFFFFFFFFFFFFFFFFFFFFFFFE00
7FFFFFFFFFFFFFFFFFFFFFFFFFFF00
7FFFFFFFFFFFFFFFFFFFFFFFFFFF00
7FFFFFFFFFFFFFFFFFFFFFFFFFFF80
7FFFFFFFFFFFFFFFFFFFFFFFFFFF80
0000000000000000000007FFFFFF80
0000000000000000000001FFFFFFC0
00000000000000000000007FFFFFC0
00000000000000000000003FFFFFC0
00000000000000000000001FFFFFC0
00000000000000000000000FFFFFE0
00000000000000000000000FFFFFE0
000000000000000000000007FFFFE0
000000000000000000000007FFFFE0
000000000000000000000007FFFFE0
000000000000000000000003FFFFE0
000000000000000000000003FFFFE0
000000000000000000000003FFFFE0
000000000000000000000003FFFFE0
000000000000000000000003FFFFE0
000000000000000000000003FFFFE0
000000000000000000000003FFFFE0
000000000000000000000003FFFFE0
000000000000000000000003FFFFE0
000000000000000000000007FFFFE0
000000000000000000000007FFFFC0
000000000000000000000007FFFFC0
00000000000000000000000FFFFFC0
00000000000000000000001FFFFFC0
00000000000000000000001FFFFF80
00000000000000000000003FFFFF80
0000000000000000000000FFFFFF00
0000000000000000000001FFFFFF00
000000000000000000000FFFFFFE00
0000000FFFFFFFFFFFFFFFFFFFFE00
000001FFFFFFFFFFFFFFFFFFFFFC00
00000FFFFFFFFFFFFFFFFFFFFFFC00
00007FFFFFFFFFFFFFFFFFFFFFF800
0001FFFFFFFFFFFFFFFFFFFFFFF000
0007FFFFFFFFFFFFFFFFFFFFFFE000
000FFFFFFFFFFFFFFFFFFFFFFFE000
003FFFFFFFFFFFFFFFFFFFFFFFC000
007FFFFFFFFFFFFFFFFFFFFFFF0000
00FFFFFFFFFFFFFFFFFFFFFFFE0000
01FFFFFFFFFFFFFFFFFFFFFFFC0000
01FFFFFFFFFFFFFFFFFFFFFFF00000
03FFFFFFFFFFFFFFFFFFFFFFE00000
07FFFFFFFFFFFFFFFFFFFFFF800000
07FFFFFFFFFFFFFFFFFFFFFC000000
0FFFFFFFFFFFFFFFFFFFFFE0000000
1FFFFFFFFFFFFFFFFFFFFE00000000
1FFFFFFE0000000000000000000000
1FFFFFF00000000000000000000000
3FFFFFC00000000000000000000000
3FFFFF000000000000000000000000
3FFFFE000000000000000000000000
7FFFFC000000000000000000000000
7FFFFC000000000000000000000000
7FFFF8000000000000000000000000
7FFFF8000000000000000000000000
7FFFF0000000000000000000000000
7FFFF0000000000000000000000000
FFFFF0000000000000000000000000
FFFFF0000000000000000000000000
FFFFF0000000000000000000000000
FFFFF0000000000000000000000000
FFFFF0000000000000000000000000
FFFFF0000000000000000000000000
FFFFF0000000000000000000000000
FFFFF0000000000000000000000000
FFFFF0000000000000000000000000
FFFFF0000000000000000000000000
FFFFF0000000000000000000000000
FFFFF0000000000000000000000000
FFFFF0000000000000000000000000
FFFFF0000000000000000000000000
FFFFF0000000000000000000000000
FFFFF0000000000000000000000000
FFFFF0000000000000000000000000
FFFFF0000000000000000000000000
FFFFF0000000000000000000000000
FFFFFFFFFFFFFFFFFFFFFFFFFFFF80
FFFFFFFFFFFFFFFFFFFFFFFFFFFF80
FFFFFFFFFFFFFFFFFFFFFFFFFFFF80
FFFFFFFFFFFFFFFFFFFFFFFFFFFF80
FFFFFFFFFFFFFFFFFFFFFFFFFFFF80
FFFFFFFFFFFFFFFFFFFFFFFFFFFF80
FFFFFFFFFFFFFFFFFFFFFFFFFFFF80
FFFFFFFFFFFFFFFFFFFFFFFFFFFF80
FFFFFFFFFFFFFFFFFFFFFFFFFFFF80
FFFFFFFFFFFFFFFFFFFFFFFFFFFF80
FFFFFFFFFFFFFFFFFFFFFFFFFFFF80
FFFFFFFFFFFFFFFFFFFFFFFFFFFF80
FFFFFFFFFFFFFFFFFFFFFFFFFFFF80
FFFFFFFFFFFFFFFFFFFFFFFFFFFF80
FFFFFFFFFFFFFFFFFFFFFFFFFFFF80
FFFFFFFFFFFFFFFFFFFFFFFFFFFF80
FFFFFFFFFFFFFFFFFFFFFFFFFFFF80
FFFFFFFFFFFFFFFFFFFFFFFFFFFF80
FFFFFFFFFFFFFFFFFFFFFFFFFFFF80
FFFFFFFFFFFFFFFFFFFFFFFFFFFF80
FFFFFFFFFFFFFFFFFFFFFFFFFFFF80
ENDCHAR
STARTCHAR three
ENCODING 51
SWIDTH 827 0
DWIDTH 134 0
BBX 119 118 7 0
BITMAP
7FFFFFFFFFFFFFFFFFFFFE00000000
7FFFFFFFFFFFFFFFFFFFFFF8000000
7FFFFFFFFFFFFFFFFFFFFFFF000000
7FFFFFFFFFFFFFFFFFFFFFFFE00000
7FFFFFFFFFFFFFFFFFFFFFFFF80000
7FFFFFFFFFFFFFFFFFFFFFFFFE0000
7FFFFFFFFFFFFFFFFFFFFFFFFF8000
7FFFFFFFFFFFFFFFFFFFFFFFFFC000
7FFFFFFFFFFFFFFFFFFFFFFFFFE000
7FFFFFFFFFFFFFFFFFFFFFFFFFF000
7FFFFFFFFFFFFFFFFFFFFFFFFFF800
7FFFFFFFFFFFFFFFFFFFFFFFFFFC00
7FFFFFFFFFFFFFFFFFFFFFFFFFFE00
7FFFFFFFFFFFFFFFFFFFFFFFFFFF00
7FFFFFFFFFFFFFFFFFFFFFFFFFFF00
7FFFFFFFFFFFFFFFFFFFFFFFFFFF80
7FFFFFFFFFFFFFFFFFFFFFFFFFFFC0
7FFFFFFFFFFFFFFFFFFFFFFFFFFFC0
7FFFFFFFFFFFFFFFFFFFFFFFFFFFE0
7FFFFFFFFFFFFFFFFFFFFFFFFFFFE0
7FFFFFFFFFFFFFFFFFFFFFFFFFFFE0
000000000000000000000FFFFFFFF0
0000000000000000000000FFFFFFF0
00000000000000000000003FFFFFF0
00000000000000000000001FFFFFF0
000000000000000000000007FFFFF0
000000000000000000000003FFFFF8
000000000000000000000003FFFFF8
000000000000000000000001FFFFF8
000000000000000000000001FFFFF8
000000000000000000000001FFFFF8
000000000000000000000000FFFFF8
000000000000000000000000FFFFF8
000000000000000000000000FFFFF8
000000000000000000000000FFFFF8
000000000000000000000000FFFFF8
000000000000000000000000FFFFF0
000000000000000000000000FFFFF0
000000000000000000000000FFFFF0
000000000000000000000000FFFFF0
000000000000000000000001FFFFF0
000000000000000000000001FFFFE0
000000000000000000000001FFFFE0
000000000000000000000003FFFFE0
000000000000000000000003FFFFC0
000000000000000000000007FFFFC0
00000000000000000000000FFFFF80
00000000000000000000001FFFFF00
00000000000000000000007FFFFF00
0000000000000000000007FFFFFE00
0000000FFFFFFFFFFFFFFFFFFFFC00
0000000FFFFFFFFFFFFFFFFFFFF800
0000000FFFFFFFFFFFFFFFFFFFF000
0000000FFFFFFFFFFFFFFFFFFFC000
0000000FFFFFFFFFFFFFFFFFFF8000
0000000FFFFFFFFFFFFFFFFFFE0000
0000000FFFFFFFFFFFFFFFFFF80000
0000000FFFFFFFFFFFFFFFFFFF0000
0000000FFFFFFFFFFFFFFFFFFFC000
0000000FFFFFFFFFFFFFFFFFFFE000
0000000FFFFFFFFFFFFFFFFFFFF800
0000000FFFFFFFFFFFFFFFFFFFFC00
0000000FFFFFFFFFFFFFFFFFFFFE00
0000000FFFFFFFFFFFFFFFFFFFFF00
0000000FFFFFFFFFFFFFFFFFFFFF80
0000000FFFFFFFFFFFFFFFFFFFFFC0
0000000FFFFFFFFFFFFFFFFFFFFFC0
0000000000000000000003FFFFFFE0
00000000000000000000003FFFFFF0
00000000000000000000000FFFFFF0
000000000000000000000007FFFFF8
000000000000000000000003FFFFF8
000000000000000000000001FFFFF8
000000000000000000000000FFFFFC
000000000000000000000000FFFFFC
0000000000000000000000007FFFFC
0000000000000000000000007FFFFE
0000000000000000000000003FFFFE
0000000000000000000000003FFFFE
0000000000000000000000003FFFFE
0000000000000000000000003FFFFE
0000000000000000000000003FFFFE
0000000000000000000000003FFFFE
0000000000000000000000003FFFFE
0000000000000000000000003FFFFE
0000000000000000000000003FFFFE
0000000000000000000000007FFFFE
0000000000000000000000007FFFFE
0000000000000000000000007FFFFE
000000000000000000000000FFFFFC
000000000000000000000001FFFFFC
000000000000000000000001FFFFFC
000000000000000000000007FFFFFC
00000000000000000000000FFFFFFC
00000000000000000000003FFFFFF8
0000000000000000000000FFFFFFF8
0000000000000000000007FFFFFFF8
FFFFFFFFFFFFFFFFFFFFFFFFFFFFF0
FFFFFFFFFFFFFFFFFFFFFFFFFFFFF0
FFFFFFFFFFFFFFFFFFFFFFFFFFFFE0
FFFFFFFFFFFFFFFFFFFFFFFFFFFFE0
FFFFFFFFFFFFFFFFFFFFFFFFFFFFC0
FFFFFFFFFFFFFFFFFFFFFFFFFFFFC0
FFFFFFFFFFFFFFFFFFFFFFFFFFFF80
FFFFFFFFFFFFFFFFFFFFFFFFFFFF00
FFFFFFFFFFFFFFFFFFFFFFFFFFFE00
FFFFFFFFFFFFFFFFFFFFFFFFFFFC00
FFFFFFFFFFFFFFFFFFFFFFFFFFFC00
FFFFFFFFFFFFFFFFFFFFFFFFFFF000
FFFFFFFFFFFFFFFFFFFFFFFFFFE000
FFFFFFFFFFFFFFFFFFFFFFFFFFC000
FFFFFFFFFFFFFFFFFFFFFFFFFF8000
FFFFFFFFFFFFFFFFFFFFFFFFFE0000
FFFFFFFFFFFFFFFFFFFFFFFFF80000
FFFFFFFFFFFFFFFFFFFFFFFFE00000
FFFFFFFFFFFFFFFFFFFFFFFF800000
FFFFFFFFFFFFFFFFFFFFFFF8000000
FFFFFFFFFFFFFFFFFFFFFF80000000
ENDCHAR
STARTCHAR four
ENCODING 52
SWIDTH 845 0
DWIDTH 137 0
BBX 125 118 8 0
BITMAP
FFFFF00000000000000001FFFFF00000
FFFFF00000000000000001FFFFF00000
FFFFF00000000000000001FFFFF00000
FFFFF00000000000000001FFFFF00000
FFFFF00000000000000001FFFFF00000
FFFFF00000000000000001FFFFF00000
FFFFF00000000000000001FFFFF00000
FFFFF00000000000000001FFFFF00000
FFFFF00000000000000001FFFFF00000
FFFFF00000000000000001FFFFF00000
FFFFF00000000000000001FFFFF00000
FFFFF00000000000000001FFFFF00000
FFFFF00000000000000001FFFFF00000
FFFFF00000000000000001FFFFF00000
FFFFF00000000000000001FFFFF00000
FFFFF00000000000000001FFFFF00000
FFFFF00000000000000001FFFFF00000
FFFFF00000000000000001FFFFF00000
FFFFF00000000000000001FFFFF00000
FFFFF00000000000000001FFFFF00000
FFFFF00000000000000001FFFFF00000
FFFFF00000000000000001FFFFF00000
FFFFF00000000000000001FFFFF00000
FFFFF00000000000000001FFFFF00000
FFFFF00000000000000001FFFFF00000
FFFFF00000000000000001FFFFF00000
FFFFF00000000000000001FFFFF00000
FFFFF00000000000000001FFFFF00000
FFFFF00000000000000001FFFFF00000
FFFFF00000000000000001FFFFF00000
FFFFF00000000000000001FFFFF00000
FFFFF00000000000000001FFFFF00000
FFFFF00000000000000001FFFFF00000
FFFFF00000000000000001FFFFF00000
FFFFF00000000000000001FFFFF00000
FFFFF00000000000000001FFFFF00000
FFFFF00000000000000001FFFFF00000
FFFFF00000000000000001FFFFF00000
FFFFF00000000000000001FFFFF00000
FFFFF00000000000000001FFFFF00000
FFFFF00000000000000001FFFFF00000
FFFFF00000000000000001FFFFF00000
FFFFF00000000000000001FFFFF00000
FFFFF00000000000000001FFFFF00000
FFFFF00000000000000001FFFFF00000
FFFFF00000000000000001FFFFF00000
FFFFF00000000000000001FFFFF00000
FFFFF00000000000000001FFFFF00000
FFFFF00000000000000001FFFFF00000
FFFFF00000000000000001FFFFF00000
FFFFF00000000000000001FFFFF00000
FFFFF00000000000000001FFFFF00000
FFFFF00000000000000001FFFFF00000
FFFFF80000000000000001FFFFF00000
FFFFF80000000000000001FFFFF00000
FFFFF80000000000000001FFFFF00000
FFFFF80000000000000001FFFFF00000
FFFFF80000000000000001FFFFF00000
FFFFFC0000000000000001FFFFF00000
7FFFFC0000000000000001FFFFF00000
7FFFFE0000000000000001FFFFF00000
7FFFFE0000000000000001FFFFF00000
7FFFFF0000000000000001FFFFF00000
7FFFFF8000000000000001FFFFF00000
3FFFFFE000000000000001FFFFF00000
3FFFFFF800000000000001FFFFF00000
3FFFFFFF80000000000001FFFFF00000
1FFFFFFFFFFFFFFFFFFFFFFFFFFFFFF8
1FFFFFFFFFFFFFFFFFFFFFFFFFFFFFF8
0FFFFFFFFFFFFFFFFFFFFFFFFFFFFFF8
0FFFFFFFFFFFFFFFFFFFFFFFFFFFFFF8
07FFFFFFFFFFFFFFFFFFFFFFFFFFFFF8
07FFFFFFFFFFFFFFFFFFFFFFFFFFFFF8
03FFFFFFFFFFFFFFFFFFFFFFFFFFFFF8
01FFFFFFFFFFFFFFFFFFFFFFFFFFFFF8
00FFFFFFFFFFFFFFFFFFFFFFFFFFFFF8
00FFFFFFFFFFFFFFFFFFFFFFFFFFFFF8
007FFFFFFFFFFFFFFFFFFFFFFFFFFFF8
001FFFFFFFFFFFFFFFFFFFFFFFFFFFF8
000FFFFFFFFFFFFFFFFFFFFFFFFFFFF8
0007FFFFFFFFFFFFFFFFFFFFFFFFFFF8
0001FFFFFFFFFFFFFFFFFFFFFFFFFFF8
0000FFFFFFFFFFFFFFFFFFFFFFFFFFF8
00001FFFFFFFFFFFFFFFFFFFFFFFFFF8
000007FFFFFFFFFFFFFFFFFFFFFFFFF8
0000007FFFFFFFFFFFFFFFFFFFFFFFF8
00000003FFFFFFFFFFFFFFFFFFFFFFF8
0000000000000000000001FFFFF00000
0000000000000000000001FFFFF00000
0000000000000000000001FFFFF00000
0000000000000000000001FFFFF00000
0000000000000000000001FFFFF00000
0000000000000000000001FFFFF00000
0000000000000000000001FFFFF00000
0000000000000000000001FFFFF00000
0000000000000000000001FFFFF00000
0000000000000000000001FFFFF00000
0000000000000000000001FFFFF00000
0000000000000000000001FFFFF00000
0000000000000000000001FFFFF00000
0000000000000000000001FFFFF00000
0000000000000000000001FFFFF00000
0000000000000000000001FFFFF00000
0000000000000000000001FFFFF00000
0000000000000000000001FFFFF00000
0000000000000000000001FFFFF00000
0000000000000000000001FFFFF00000
0000000000000000000001FFFFF00000
0000000000000000000001FFFFF00000
0000000000000000000001FFFFF00000
0000000000000000000001FFFFF00000
0000000000000000000001FFFFF00000
0000000000000000000001FFFFF00000
0000000000000000000001FFFFF00000
0000000000000000000001FFFFF00000
0000000000000000000001FFFFF00000
0000000000000000000001FFFFF00000
0000000000000000000001FFFFF00000
ENDCHAR
STARTCHAR five
ENCODING 53
SWIDTH 885 0
DWIDTH 143 0
BBX 125 118 10 0
BITMAP
FFFFFFFFFFFFFFFFFFFFFFFFFFFFFE00
FFFFFFFFFFFFFFFFFFFFFFFFFFFFFE00
FFFFFFFFFFFFFFFFFFFFFFFFFFFFFE00
FFFFFFFFFFFFFFFFFFFFFFFFFFFFFE00
FFFFFFFFFFFFFFFFFFFFFFFFFFFFFE00
FFFFFFFFFFFFFFFFFFFFFFFFFFFFFE00
FFFFFFFFFFFFFFFFFFFFFFFFFFFFFE00
FFFFFFFFFFFFFFFFFFFFFFFFFFFFFE00
FFFFFFFFFFFFFFFFFFFFFFFFFFFFFE00
FFFFFFFFFFFFFFFFFFFFFFFFFFFFFE00
FFFFFFFFFFFFFFFFFFFFFFFFFFFFFE00
FFFFFFFFFFFFFFFFFFFFFFFFFFFFFE00
FFFFFFFFFFFFFFFFFFFFFFFFFFFFFE00
FFFFFFFFFFFFFFFFFFFFFFFFFFFFFE00
FFFFFFFFFFFFFFFFFFFFFFFFFFFFFE00
FFFFFFFFFFFFFFFFFFFFFFFFFFFFFE00
FFFFFFFFFFFFFFFFFFFFFFFFFFFFFE00
FFFFFFFFFFFFFFFFFFFFFFFFFFFFFE00
FFFFFFFFFFFFFFFFFFFFFFFFFFFFFE00
FFFFFFFFFFFFFFFFFFFFFFFFFFFFFE00
FFFFFFFFFFFFFFFFFFFFFFFFFFFFFE00
FFFFF800000000000000000000000000
FFFFF800000000000000000000000000
FFFFF800000000000000000000000000
FFFFF800000000000000000000000000
FFFFF800000000000000000000000000
FFFFF800000000000000000000000000
FFFFF800000000000000000000000000
FFFFF800000000000000000000000000
FFFFF800000000000000000000000000
FFFFF800000000000000000000000000
FFFFF800000000000000000000000000
FFFFF800000000000000000000000000
FFFFF800000000000000000000000000
FFFFF800000000000000000000000000
FFFFF800000000000000000000000000
FFFFF800000000000000000000000000
FFFFF800000000000000000000000000
FFFFF800000000000000000000000000
FFFFF800000000000000000000000000
FFFFF800000000000000000000000000
FFFFF800000000000000000000000000
FFFFF800000000000000000000000000
FFFFF800000000000000000000000000
FFFFF800000000000000000000000000
FFFFF800000000000000000000000000
FFFFF800000000000000000000000000
FFFFF800000000000000000000000000
FFFFF800000000000000000000000000
FFFFF800000000000000000000000000
FFFFFFFFFFFFFFFFFFFFFFFF80000000
FFFFFFFFFFFFFFFFFFFFFFFFFC000000
FFFFFFFFFFFFFFFFFFFFFFFFFF800000
FFFFFFFFFFFFFFFFFFFFFFFFFFF00000
FFFFFFFFFFFFFFFFFFFFFFFFFFFC0000
FFFFFFFFFFFFFFFFFFFFFFFFFFFF0000
FFFFFFFFFFFFFFFFFFFFFFFFFFFF8000
FFFFFFFFFFFFFFFFFFFFFFFFFFFFE000
FFFFFFFFFFFFFFFFFFFFFFFFFFFFF000
FFFFFFFFFFFFFFFFFFFFFFFFFFFFF800
FFFFFFFFFFFFFFFFFFFFFFFFFFFFFC00
FFFFFFFFFFFFFFFFFFFFFFFFFFFFFE00
FFFFFFFFFFFFFFFFFFFFFFFFFFFFFE00
FFFFFFFFFFFFFFFFFFFFFFFFFFFFFF00
FFFFFFFFFFFFFFFFFFFFFFFFFFFFFF80
FFFFFFFFFFFFFFFFFFFFFFFFFFFFFF80
FFFFFFFFFFFFFFFFFFFFFFFFFFFFFFC0
000000000000000000000003FFFFFFC0
0000000000000000000000007FFFFFC0
0000000000000000000000001FFFFFE0
00000000000000000000000007FFFFE0
00000000000000000000000003FFFFE0
00000000000000000000000001FFFFF0
00000000000000000000000001FFFFF0
00000000000000000000000000FFFFF0
00000000000000000000000000FFFFF0
000000000000000000000000007FFFF0
000000000000000000000000007FFFF8
000000000000000000000000007FFFF8
000000000000000000000000007FFFF8
000000000000000000000000007FFFF8
000000000000000000000000007FFFF8
000000000000000000000000007FFFF8
000000000000000000000000007FFFF8
000000000000000000000000007FFFF8
000000000000000000000000007FFFF8
000000000000000000000000007FFFF8
000000000000000000000000007FFFF8
00000000000000000000000000FFFFF8
00000000000000000000000000FFFFF8
00000000000000000000000001FFFFF0
00000000000000000000000001FFFFF0
00000000000000000000000003FFFFF0
00000000000000000000000007FFFFF0
0000000000000000000000000FFFFFF0
0000000000000000000000003FFFFFE0
000000000000000000000001FFFFFFE0
FFFFFFFFFFFFFFFFFFFFFFFFFFFFFFE0
FFFFFFFFFFFFFFFFFFFFFFFFFFFFFFC0
FFFFFFFFFFFFFFFFFFFFFFFFFFFFFFC0
FFFFFFFFFFFFFFFFFFFFFFFFFFFFFF80
FFFFFFFFFFFFFFFFFFFFFFFFFFFFFF80
FFFFFFFFFFFFFFFFFFFFFFFFFFFFFF00
FFFFFFFFFFFFFFFFFFFFFFFFFFFFFF00
FFFFFFFFFFFFFFFFFFFFFFFFFFFFFE00
FFFFFFFFFFFFFFFFFFFFFFFFFFFFFC00
FFFFFFFFFFFFFFFFFFFFFFFFFFFFF800
FFFFFFFFFFFFFFFFFFFFFFFFFFFFF800
FFFFFFFFFFFFFFFFFFFFFFFFFFFFF000
FFFFFFFFFFFFFFFFFFFFFFFFFFFFE000
FFFFFFFFFFFFFFFFFFFFFFFFFFFF8000
FFFFFFFFFFFFFFFFFFFFFFFFFFFF0000
FFFFFFFFFFFFFFFFFFFFFFFFFFFE0000
FFFFFFFFFFFFFFFFFFFFFFFFFFF80000
FFFFFFFFFFFFFFFFFFFFFFFFFFE00000
FFFFFFFFFFFFFFFFFFFFFFFFFF000000
FFFFFFFFFFFFFFFFFFFFFFFFF8000000
FFFFFFFFFFFFFFFFFFFFFFFF00000000
ENDCHAR
STARTCHAR six
ENCODING 54
SWIDTH 872 0
DWIDTH 141 0
BBX 126 118 7 0
BITMAP
00000000000FFFFFFFFFFFFFFFFFFF80
0000000003FFFFFFFFFFFFFFFFFFFF80
000000003FFFFFFFFFFFFFFFFFFFFF80
00000001FFFFFFFFFFFFFFFFFFFFFF80
0000000FFFFFFFFFFFFFFFFFFFFFFF80
0000003FFFFFFFFFFFFFFFFFFFFFFF80
000000FFFFFFFFFFFFFFFFFFFFFFFF80
000003FFFFFFFFFFFFFFFFFFFFFFFF80
000007FFFFFFFFFFFFFFFFFFFFFFFF80
00001FFFFFFFFFFFFFFFFFFFFFFFFF80
00003FFFFFFFFFFFFFFFFFFFFFFFFF80
00007FFFFFFFFFFFFFFFFFFFFFFFFF80
0001FFFFFFFFFFFFFFFFFFFFFFFFFF80
0003FFFFFFFFFFFFFFFFFFFFFFFFFF80
0007FFFFFFFFFFFFFFFFFFFFFFFFFF80
0007FFFFFFFFFFFFFFFFFFFFFFFFFF80
000FFFFFFFFFFFFFFFFFFFFFFFFFFF80
001FFFFFFFFFFFFFFFFFFFFFFFFFFF80
003FFFFFFFFFFFFFFFFFFFFFFFFFFF80
007FFFFFFFFFFFFFFFFFFFFFFFFFFF80
007FFFFFFFFFFFFFFFFFFFFFFFFFFF80
00FFFFFFFFF000000000000000000000
00FFFFFFFF0000000000000000000000
01FFFFFFF80000000000000000000000
03FFFFFFE00000000000000000000000
03FFFFFF800000000000000000000000
03FFFFFF000000000000000000000000
07FFFFFE000000000000000000000000
07FFFFFC000000000000000000000000
0FFFFFF8000000000000000000000000
0FFFFFF0000000000000000000000000
0FFFFFE0000000000000000000000000
1FFFFFC0000000000000000000000000
1FFFFFC0000000000000000000000000
1FFFFF80000000000000000000000000
3FFFFF80000000000000000000000000
3FFFFF00000000000000000000000000
3FFFFF00000000000000000000000000
3FFFFE00000000000000000000000000
7FFFFE00000000000000000000000000
7FFFFE00000000000000000000000000
7FFFFC00000000000000000000000000
7FFFFC00000000000000000000000000
7FFFFC00000000000000000000000000
7FFFFC00000000000000000000000000
FFFFF800000000000000000000000000
FFFFF800000000000000000000000000
FFFFF800000000000000000000000000
FFFFF800000000000000000000000000
FFFFFFFFFFFFFFFFFFFFFFFFC0000000
FFFFFFFFFFFFFFFFFFFFFFFFFE000000
FFFFFFFFFFFFFFFFFFFFFFFFFFC00000
FFFFFFFFFFFFFFFFFFFFFFFFFFF80000
FFFFFFFFFFFFFFFFFFFFFFFFFFFE0000
FFFFFFFFFFFFFFFFFFFFFFFFFFFF8000
FFFFFFFFFFFFFFFFFFFFFFFFFFFFC000
FFFFFFFFFFFFFFFFFFFFFFFFFFFFF000
FFFFFFFFFFFFFFFFFFFFFFFFFFFFF800
FFFFFFFFFFFFFFFFFFFFFFFFFFFFFC00
FFFFFFFFFFFFFFFFFFFFFFFFFFFFFE00
FFFFFFFFFFFFFFFFFFFFFFFFFFFFFF00
FFFFFFFFFFFFFFFFFFFFFFFFFFFFFF00
FFFFFFFFFFFFFFFFFFFFFFFFFFFFFF80
FFFFFFFFFFFFFFFFFFFFFFFFFFFFFFC0
FFFFFFFFFFFFFFFFFFFFFFFFFFFFFFC0
FFFFFFFFFFFFFFFFFFFFFFFFFFFFFFE0
FFFFFFFFFFFFFFFFFFFFFFFFFFFFFFE0
FFFFF8000000000000000003FFFFFFE0
FFFFF80000000000000000003FFFFFF0
FFFFF80000000000000000000FFFFFF0
7FFFF800000000000000000007FFFFF0
7FFFF800000000000000000003FFFFF8
7FFFFC00000000000000000001FFFFF8
7FFFFC00000000000000000000FFFFF8
7FFFFC00000000000000000000FFFFF8
7FFFFC000000000000000000007FFFF8
7FFFFC000000000000000000007FFFF8
3FFFFE000000000000000000007FFFF8
3FFFFE000000000000000000003FFFFC
3FFFFE000000000000000000003FFFFC
3FFFFF000000000000000000003FFFFC
1FFFFF000000000000000000003FFFFC
1FFFFF800000000000000000003FFFFC
1FFFFF800000000000000000003FFFFC
0FFFFFC00000000000000000003FFFFC
0FFFFFE00000000000000000003FFFFC
0FFFFFE00000000000000000007FFFFC
07FFFFF00000000000000000007FFFF8
07FFFFF80000000000000000007FFFF8
07FFFFFC000000000000000000FFFFF8
03FFFFFE000000000000000000FFFFF8
03FFFFFF000000000000000001FFFFF8
01FFFFFFC00000000000000003FFFFF8
01FFFFFFE00000000000000007FFFFF0
00FFFFFFFC000000000000000FFFFFF0
00FFFFFFFF000000000000003FFFFFF0
007FFFFFFFF0000000000001FFFFFFF0
003FFFFFFFFFFFFFFFFFFFFFFFFFFFE0
003FFFFFFFFFFFFFFFFFFFFFFFFFFFE0
001FFFFFFFFFFFFFFFFFFFFFFFFFFFC0
000FFFFFFFFFFFFFFFFFFFFFFFFFFFC0
0007FFFFFFFFFFFFFFFFFFFFFFFFFF80
0003FFFFFFFFFFFFFFFFFFFFFFFFFF80
0003FFFFFFFFFFFFFFFFFFFFFFFFFF00
0001FFFFFFFFFFFFFFFFFFFFFFFFFF00
0000FFFFFFFFFFFFFFFFFFFFFFFFFE00
00003FFFFFFFFFFFFFFFFFFFFFFFFC00
00001FFFFFFFFFFFFFFFFFFFFFFFF800
00000FFFFFFFFFFFFFFFFFFFFFFFF000
000003FFFFFFFFFFFFFFFFFFFFFFE000
000001FFFFFFFFFFFFFFFFFFFFFFC000
0000007FFFFFFFFFFFFFFFFFFFFF8000
0000001FFFFFFFFFFFFFFFFFFFFE0000
00000007FFFFFFFFFFFFFFFFFFFC0000
00000000FFFFFFFFFFFFFFFFFFF00000
000000001FFFFFFFFFFFFFFFFF800000
0000000003FFFFFFFFFFFFFFFC000000
00000000000FFFFFFFFFFFFF80000000
ENDCHAR
STARTCHAR seven
ENCODING 55
SWIDTH 756 0
DWIDTH 122 0
BBX 112 118 7 0
BITMAP
FFFFFFFFFFFFFFFFFFFFFFFFFF00
FFFFFFFFFFFFFFFFFFFFFFFFFFE0
FFFFFFFFFFFFFFFFFFFFFFFFFFF8
FFFFFFFFFFFFFFFFFFFFFFFFFFFC
FFFFFFFFFFFFFFFFFFFFFFFFFFFC
FFFFFFFFFFFFFFFFFFFFFFFFFFFE
FFFFFFFFFFFFFFFFFFFFFFFFFFFF
FFFFFFFFFFFFFFFFFFFFFFFFFFFF
FFFFFFFFFFFFFFFFFFFFFFFFFFFF
FFFFFFFFFFFFFFFFFFFFFFFFFFFF
FFFFFFFFFFFFFFFFFFFFFFFFFFFF
FFFFFFFFFFFFFFFFFFFFFFFFFFFF
FFFFFFFFFFFFFFFFFFFFFFFFFFFF
FFFFFFFFFFFFFFFFFFFFFFFFFFFF
FFFFFFFFFFFFFFFFFFFFFFFFFFFE
FFFFFFFFFFFFFFFFFFFFFFFFFFFE
FFFFFFFFFFFFFFFFFFFFFFFFFFFC
FFFFFFFFFFFFFFFFFFFFFFFFFFFC
FFFFFFFFFFFFFFFFFFFFFFFFFFF8
FFFFFFFFFFFFFFFFFFFFFFFFFFF0
FFFFFFFFFFFFFFFFFFFFFFFFFFE0
000000000000000000007FFFFFE0
00000000000000000000FFFFFFC0
00000000000000000001FFFFFF80
00000000000000000003FFFFFF00
00000000000000000003FFFFFE00
00000000000000000007FFFFFC00
0000000000000000000FFFFFFC00
0000000000000000001FFFFFF800
0000000000000000003FFFFFF000
0000000000000000007FFFFFE000
0000000000000000007FFFFFC000
000000000000000000FFFFFFC000
000000000000000001FFFFFF8000
000000000000000003FFFFFF0000
000000000000000007FFFFFE0000
00000000000000000FFFFFFC0000
00000000000000000FFFFFFC0000
00000000000000001FFFFFF80000
00000000000000003FFFFFF00000
00000000000000007FFFFFE00000
0000000000000000FFFFFFC00000
0000000000000001FFFFFF800000
0000000000000001FFFFFF800000
0000000000000003FFFFFF000000
0000000000000007FFFFFE000000
000000000000000FFFFFFC000000
000000000000001FFFFFF8000000
000000000000001FFFFFF8000000
000000000000003FFFFFF0000000
000000000000007FFFFFE0000000
00000000000000FFFFFFC0000000
00000000000001FFFFFF80000000
00000000000003FFFFFF00000000
00000000000003FFFFFF00000000
00000000000007FFFFFE00000000
0000000000000FFFFFFC00000000
0000000000001FFFFFF800000000
0000000000003FFFFFF000000000
0000000000007FFFFFF000000000
0000000000007FFFFFE000000000
000000000000FFFFFFC000000000
000000000001FFFFFF8000000000
000000000003FFFFFF0000000000
000000000007FFFFFE0000000000
00000000000FFFFFFE0000000000
00000000000FFFFFFC0000000000
00000000001FFFFFF80000000000
00000000003FFFFFF00000000000
00000000007FFFFFE00000000000
0000000000FFFFFFE00000000000
0000000000FFFFFFC00000000000
0000000001FFFFFF800000000000
0000000003FFFFFF000000000000
0000000007FFFFFE000000000000
000000000FFFFFFE000000000000
000000001FFFFFFC000000000000
000000001FFFFFF8000000000000
000000003FFFFFF0000000000000
000000007FFFFFE0000000000000
00000000FFFFFFC0000000000000
00000001FFFFFFC0000000000000
00000003FFFFFF80000000000000
00000003FFFFFF00000000000000
00000007FFFFFE00000000000000
0000000FFFFFFC00000000000000
0000001FFFFFFC00000000000000
0000003FFFFFF800000000000000
0000007FFFFFF000000000000000
0000007FFFFFE000000000000000
000000FFFFFFC000000000000000
000001FFFFFF8000000000000000
000003FFFFFF8000000000000000
000007FFFFFF0000000000000000
00000FFFFFFE0000000000000000
00000FFFFFFC0000000000000000
00001FFFFFF80000000000000000
00003FFFFFF80000000000000000
00007FFFFFF00000000000000000
0000FFFFFFE00000000000000000
0000FFFFFFC00000000000000000
0001FFFFFF800000000000000000
0003FFFFFF000000000000000000
0007FFFFFF000000000000000000
000FFFFFFE000000000000000000
001FFFFFFC000000000000000000
001FFFFFF8000000000000000000
003FFFFFF0000000000000000000
007FFFFFF0000000000000000000
00FFFFFFE0000000000000000000
01FFFFFFC0000000000000000000
03FFFFFF80000000000000000000
03FFFFFF00000000000000000000
07FFFFFF00000000000000000000
0FFFFFFE00000000000000000000
1FFFFFFC00000000000000000000
3FFFFFF800000000000000000000
7FFFFFF000000000000000000000
ENDCHAR
STARTCHAR eight
ENCODING 56
SWIDTH 898 0
DWIDTH 145 0
BBX 129 118 8 0
BITMAP
00000000FFFFFFFFFFFFFFFF8000000000
0000001FFFFFFFFFFFFFFFFFFE00000000
000001FFFFFFFFFFFFFFFFFFFFC0000000
00000FFFFFFFFFFFFFFFFFFFFFF8000000
00003FFFFFFFFFFFFFFFFFFFFFFE000000
0000FFFFFFFFFFFFFFFFFFFFFFFF800000
0001FFFFFFFFFFFFFFFFFFFFFFFFE00000
0007FFFFFFFFFFFFFFFFFFFFFFFFF00000
000FFFFFFFFFFFFFFFFFFFFFFFFFFC0000
001FFFFFFFFFFFFFFFFFFFFFFFFFFE0000
003FFFFFFFFFFFFFFFFFFFFFFFFFFF0000
007FFFFFFFFFFFFFFFFFFFFFFFFFFF8000
00FFFFFFFFFFFFFFFFFFFFFFFFFFFF8000
01FFFFFFFFFFFFFFFFFFFFFFFFFFFFC000
01FFFFFFFFFFFFFFFFFFFFFFFFFFFFE000
03FFFFFFFFFFFFFFFFFFFFFFFFFFFFE000
03FFFFFFFFFFFFFFFFFFFFFFFFFFFFF000
07FFFFFFFFFFFFFFFFFFFFFFFFFFFFF000
07FFFFFFFFFFFFFFFFFFFFFFFFFFFFF800
0FFFFFFFFFFFFFFFFFFFFFFFFFFFFFF800
0FFFFFFFFFFFFFFFFFFFFFFFFFFFFFFC00
0FFFFFFFE000000000000003FFFFFFFC00
1FFFFFFF00000000000000003FFFFFFC00
1FFFFFF800000000000000000FFFFFFC00
1FFFFFF0000000000000000003FFFFFE00
1FFFFFE0000000000000000001FFFFFE00
1FFFFFC0000000000000000000FFFFFE00
1FFFFF80000000000000000000FFFFFE00
1FFFFF800000000000000000007FFFFE00
1FFFFF000000000000000000007FFFFE00
1FFFFF000000000000000000003FFFFE00
1FFFFF000000000000000000003FFFFE00
1FFFFE000000000000000000003FFFFE00
1FFFFE000000000000000000003FFFFE00
1FFFFE000000000000000000003FFFFE00
1FFFFE000000000000000000003FFFFE00
1FFFFE000000000000000000003FFFFE00
1FFFFE000000000000000000003FFFFE00
1FFFFE000000000000000000003FFFFC00
1FFFFF000000000000000000003FFFFC00
0FFFFF000000000000000000003FFFFC00
0FFFFF000000000000000000007FFFFC00
0FFFFF000000000000000000007FFFF800
07FFFF800000000000000000007FFFF800
07FFFF80000000000000000000FFFFF000
03FFFFC0000000000000000001FFFFF000
03FFFFE0000000000000000003FFFFE000
01FFFFF8000000000000000007FFFFE000
00FFFFFE00000000000000001FFFFFC000
00FFFFFFC000000000000001FFFFFF8000
007FFFFFFFFFFFFFFFFFFFFFFFFFFF0000
003FFFFFFFFFFFFFFFFFFFFFFFFFFE0000
000FFFFFFFFFFFFFFFFFFFFFFFFFFC0000
0007FFFFFFFFFFFFFFFFFFFFFFFFF80000
0001FFFFFFFFFFFFFFFFFFFFFFFFE00000
00007FFFFFFFFFFFFFFFFFFFFFFF800000
00003FFFFFFFFFFFFFFFFFFFFFFE000000
0000FFFFFFFFFFFFFFFFFFFFFFFFC00000
0003FFFFFFFFFFFFFFFFFFFFFFFFF00000
000FFFFFFFFFFFFFFFFFFFFFFFFFFC0000
001FFFFFFFFFFFFFFFFFFFFFFFFFFE0000
007FFFFFFFFFFFFFFFFFFFFFFFFFFF0000
00FFFFFFFFFFFFFFFFFFFFFFFFFFFF8000
01FFFFFFFFFFFFFFFFFFFFFFFFFFFFC000
03FFFFFFFFFFFFFFFFFFFFFFFFFFFFE000
03FFFFFFFFFFFFFFFFFFFFFFFFFFFFF000
07FFFFFFFFFFFFFFFFFFFFFFFFFFFFF800
0FFFFFFF8000000000000000FFFFFFF800
0FFFFFFC00000000000000000FFFFFFC00
1FFFFFF0000000000000000003FFFFFC00
1FFFFFC0000000000000000001FFFFFE00
3FFFFF80000000000000000000FFFFFE00
3FFFFF000000000000000000007FFFFF00
7FFFFE000000000000000000003FFFFF00
7FFFFE000000000000000000001FFFFF00
7FFFFC000000000000000000001FFFFF00
7FFFFC000000000000000000000FFFFF80
7FFFFC000000000000000000000FFFFF80
FFFFF8000000000000000000000FFFFF80
FFFFF8000000000000000000000FFFFF80
FFFFF8000000000000000000000FFFFF80
FFFFF8000000000000000000000FFFFF80
FFFFF8000000000000000000000FFFFF80
FFFFF8000000000000000000000FFFFF80
FFFFF8000000000000000000000FFFFF80
FFFFF8000000000000000000000FFFFF80
FFFFFC000000000000000000000FFFFF80
FFFFFC000000000000000000000FFFFF80
7FFFFC000000000000000000001FFFFF80
7FFFFE000000000000000000001FFFFF80
7FFFFF000000000000000000003FFFFF80
7FFFFF800000000000000000007FFFFF00
7FFFFFC0000000000000000000FFFFFF00
3FFFFFE0000000000000000003FFFFFF00
3FFFFFF8000000000000000007FFFFFF00
3FFFFFFE00000000000000003FFFFFFE00
1FFFFFFFE000000000000001FFFFFFFE00
1FFFFFFFFFFFFFFFFFFFFFFFFFFFFFFC00
1FFFFFFFFFFFFFFFFFFFFFFFFFFFFFFC00
0FFFFFFFFFFFFFFFFFFFFFFFFFFFFFF800
0FFFFFFFFFFFFFFFFFFFFFFFFFFFFFF800
07FFFFFFFFFFFFFFFFFFFFFFFFFFFFF000
03FFFFFFFFFFFFFFFFFFFFFFFFFFFFF000
03FFFFFFFFFFFFFFFFFFFFFFFFFFFFE000
01FFFFFFFFFFFFFFFFFFFFFFFFFFFFC000
00FFFFFFFFFFFFFFFFFFFFFFFFFFFFC000
007FFFFFFFFFFFFFFFFFFFFFFFFFFF8000
003FFFFFFFFFFFFFFFFFFFFFFFFFFF0000
001FFFFFFFFFFFFFFFFFFFFFFFFFFE0000
000FFFFFFFFFFFFFFFFFFFFFFFFFFC0000
0007FFFFFFFFFFFFFFFFFFFFFFFFF00000
0003FFFFFFFFFFFFFFFFFFFFFFFFE00000
0000FFFFFFFFFFFFFFFFFFFFFFFF800000
00003FFFFFFFFFFFFFFFFFFFFFFF000000
00000FFFFFFFFFFFFFFFFFFFFFF8000000
000003FFFFFFFFFFFFFFFFFFFFE0000000
0000003FFFFFFFFFFFFFFFFFFF00000000
00000001FFFFFFFFFFFFFFFFC000000000
ENDCHAR
STARTCHAR nine
ENCODING 57
SWIDTH 861 0
DWIDTH 139 0
BBX 126 118 7 0
BITMAP
0000000FFFFFFFFFFFFF800000000000
000001FFFFFFFFFFFFFFFE0000000000
00000FFFFFFFFFFFFFFFFFE000000000
00003FFFFFFFFFFFFFFFFFFC00000000
0000FFFFFFFFFFFFFFFFFFFF00000000
0001FFFFFFFFFFFFFFFFFFFFE0000000
0007FFFFFFFFFFFFFFFFFFFFF8000000
000FFFFFFFFFFFFFFFFFFFFFFC000000
001FFFFFFFFFFFFFFFFFFFFFFF000000
003FFFFFFFFFFFFFFFFFFFFFFF800000
007FFFFFFFFFFFFFFFFFFFFFFFE00000
00FFFFFFFFFFFFFFFFFFFFFFFFF00000
01FFFFFFFFFFFFFFFFFFFFFFFFF80000
01FFFFFFFFFFFFFFFFFFFFFFFFFC0000
03FFFFFFFFFFFFFFFFFFFFFFFFFE0000
07FFFFFFFFFFFFFFFFFFFFFFFFFF0000
07FFFFFFFFFFFFFFFFFFFFFFFFFF8000
0FFFFFFFFFFFFFFFFFFFFFFFFFFFC000
0FFFFFFFFFFFFFFFFFFFFFFFFFFFC000
1FFFFFFFFFFFFFFFFFFFFFFFFFFFE000
1FFFFFFFFFFFFFFFFFFFFFFFFFFFF000
3FFFFFFE0000000000007FFFFFFFF000
3FFFFFF800000000000007FFFFFFF800
3FFFFFE000000000000000FFFFFFF800
7FFFFFC0000000000000003FFFFFFC00
7FFFFF80000000000000000FFFFFFE00
7FFFFF000000000000000007FFFFFE00
7FFFFE000000000000000003FFFFFF00
FFFFFE000000000000000001FFFFFF00
FFFFFC000000000000000000FFFFFF00
FFFFFC0000000000000000007FFFFF80
FFFFF80000000000000000003FFFFF80
FFFFF80000000000000000001FFFFFC0
FFFFF80000000000000000001FFFFFC0
FFFFF80000000000000000000FFFFFC0
FFFFF80000000000000000000FFFFFC0
FFFFF800000000000000000007FFFFE0
FFFFF800000000000000000007FFFFE0
FFFFF800000000000000000003FFFFE0
FFFFF800000000000000000003FFFFF0
FFFFF800000000000000000001FFFFF0
FFFFF800000000000000000001FFFFF0
FFFFF800000000000000000001FFFFF0
FFFFF800000000000000000001FFFFF0
FFFFFC00000000000000000000FFFFF0
FFFFFC00000000000000000000FFFFF8
7FFFFC00000000000000000000FFFFF8
7FFFFE00000000000000000000FFFFF8
7FFFFF00000000000000000000FFFFF8
7FFFFF80000000000000000000FFFFF8
7FFFFFC00000000000000000007FFFF8
3FFFFFE00000000000000000007FFFF8
3FFFFFF80000000000000000007FFFF8
3FFFFFFF0000000000000000007FFFF8
1FFFFFFFFFFFFFFFFFFFFFFFFFFFFFFC
1FFFFFFFFFFFFFFFFFFFFFFFFFFFFFFC
0FFFFFFFFFFFFFFFFFFFFFFFFFFFFFFC
0FFFFFFFFFFFFFFFFFFFFFFFFFFFFFFC
07FFFFFFFFFFFFFFFFFFFFFFFFFFFFFC
03FFFFFFFFFFFFFFFFFFFFFFFFFFFFFC
01FFFFFFFFFFFFFFFFFFFFFFFFFFFFFC
01FFFFFFFFFFFFFFFFFFFFFFFFFFFFFC
00FFFFFFFFFFFFFFFFFFFFFFFFFFFFFC
007FFFFFFFFFFFFFFFFFFFFFFFFFFFFC
001FFFFFFFFFFFFFFFFFFFFFFFFFFFFC
000FFFFFFFFFFFFFFFFFFFFFFFFFFFFC
0003FFFFFFFFFFFFFFFFFFFFFFFFFFFC
0000FFFFFFFFFFFFFFFFFFFFFFFFFFF8
00003FFFFFFFFFFFFFFFFFFFFFFFFFF8
000007FFFFFFFFFFFFFFFFFFFFFFFFF8
0000003FFFFFFFFFFFFFFFFFFFFFFFF8
00000000000000000000000000FFFFF8
00000000000000000000000000FFFFF8
00000000000000000000000000FFFFF8
00000000000000000000000001FFFFF8
00000000000000000000000001FFFFF8
00000000000000000000000001FFFFF0
00000000000000000000000001FFFFF0
00000000000000000000000003FFFFF0
00000000000000000000000003FFFFF0
00000000000000000000000007FFFFF0
00000000000000000000000007FFFFE0
00000000000000000000000007FFFFE0
0000000000000000000000000FFFFFE0
0000000000000000000000001FFFFFC0
0000000000000000000000001FFFFFC0
0000000000000000000000003FFFFFC0
0000000000000000000000007FFFFFC0
0000000000000000000000007FFFFF80
000000000000000000000000FFFFFF80
000000000000000000000003FFFFFF00
000000000000000000000007FFFFFF00
00000000000000000000000FFFFFFE00
00000000000000000000003FFFFFFE00
0000000000000000000000FFFFFFFC00
0000000000000000000007FFFFFFFC00
000000000000000000003FFFFFFFF800
0007FFFFFFFFFFFFFFFFFFFFFFFFF800
0007FFFFFFFFFFFFFFFFFFFFFFFFF000
0007FFFFFFFFFFFFFFFFFFFFFFFFE000
0007FFFFFFFFFFFFFFFFFFFFFFFFE000
0007FFFFFFFFFFFFFFFFFFFFFFFFC000
0007FFFFFFFFFFFFFFFFFFFFFFFF8000
0007FFFFFFFFFFFFFFFFFFFFFFFF0000
0007FFFFFFFFFFFFFFFFFFFFFFFE0000
0007FFFFFFFFFFFFFFFFFFFFFFFC0000
0007FFFFFFFFFFFFFFFFFFFFFFF80000
0007FFFFFFFFFFFFFFFFFFFFFFF00000
0007FFFFFFFFFFFFFFFFFFFFFFC00000
0007FFFFFFFFFFFFFFFFFFFFFF800000
0007FFFFFFFFFFFFFFFFFFFFFF000000
0007FFFFFFFFFFFFFFFFFFFFFC000000
0007FFFFFFFFFFFFFFFFFFFFF0000000
0007FFFFFFFFFFFFFFFFFFFFC0000000
0007FFFFFFFFFFFFFFFFFFFE00000000
0007FFFFFFFFFFFFFFFFFFF000000000
0007FFFFFFFFFFFFFFFFFF0000000000
0007FFFFFFFFFFFFFFFF800000000000
ENDCHAR
STARTCHAR colon
ENCODING 58
SWIDTH 262 0
DWIDTH 42 0
BBX 22 75 10 0
BITMAP
00FE00
07FF80
0FFFC0
1FFFE0
3FFFF0
3FFFF8
7FFFF8
7FFFFC
FFFFFC
FFFFFC
FFFFFC
FFFFFC
FFFFFC
FFFFFC
7FFFFC
7FFFF8
7FFFF8
3FFFF0
1FFFE0
0FFFC0
07FF80
00FE00
000000
000000
000000
000000
000000
000000
000000
000000
000000
000000
000000
000000
000000
000000
000000
000000
000000
000000
000000
000000
000000
000000
000000
000000
000000
000000
000000
000000
000000
000000
000000
00FE00
07FF80
0FFFC0
1FFFE0
3FFFF0
3FFFF8
7FFFF8
7FFFFC
FFFFFC
FFFFFC
FFFFFC
FFFFFC
FFFFFC
FFFFFC
7FFFFC
7FFFF8
3FFFF8
3FFFF0
1FFFE0
0FFFC0
07FF80
01FE00
ENDCHAR
STARTCHAR semicolon
ENCODING 59
SWIDTH 262 0
DWIDTH 42 0
BBX 22 93 10 -19
BITMAP
00FE00
07FF80
0FFFE0
1FFFF0
3FFFF0
3FFFF8
7FFFF8
7FFFFC
7FFFFC
FFFFFC
FFFFFC
FFFFFC
FFFFFC
7FFFFC
7FFFFC
7FFFF8
3FFFF8
3FFFF0
1FFFF0
0FFFC0
07FF80
00FE00
000000
000000
000000
000000
000000
000000
000000
000000
000000
000000
000000
000000
000000
000000
000000
000000
000000
000000
000000
000000
000000
000000
000000
000000
000000
000000
000000
000000
000000
7FFFFC
7FFFF8
7FFFF8
7FFFF8
7FFFF8
7FFFF8
7FFFF8
7FFFF0
7FFFF0
7FFFF0
7FFFF0
7FFFF0
7FFFE0
7FFFE0
7FFFE0
7FFFE0
7FFFE0
7FFFC0
7FFFC0
7FFFC0
7FFFC0
7FFFC0
7FFF80
7FFF80
7FFF80
7FFF80
7FFF80
7FFF00
7FFF00
7FFF00
7FFF00
7FFF00
7FFF00
7FFE00
7FFE00
7FFE00
7FFE00
7FFE00
7FFC00
7FFC00
7FFC00
7FFC00
ENDCHAR
STARTCHAR less
ENCODING 60
SWIDTH 690 0
DWIDTH 112 0
BBX 92 88 10 16
BITMAP
000000000000000000000010
000000000000000000000070
0000000000000000000003F0
000000000000000000000FF0
000000000000000000003FF0
00000000000000000001FFF0
00000000000000000007FFF0
0000000000000000003FFFF0
000000000000000000FFFFF0
000000000000000003FFFFF0
00000000000000001FFFFFF0
00000000000000007FFFFFF0
0000000000000003FFFFFFF0
000000000000000FFFFFFFF0
000000000000003FFFFFFFF0
00000000000001FFFFFFFFC0
00000000000007FFFFFFFF00
0000000000001FFFFFFFF800
000000000000FFFFFFFFE000
000000000003FFFFFFFF0000
00000000001FFFFFFFFC0000
00000000007FFFFFFFE00000
0000000001FFFFFFFF800000
000000000FFFFFFFFC000000
000000003FFFFFFFE0000000
00000001FFFFFFFF80000000
00000007FFFFFFFC00000000
0000001FFFFFFFF000000000
000000FFFFFFFF8000000000
000003FFFFFFFE0000000000
00000FFFFFFFF00000000000
00007FFFFFFFC00000000000
0001FFFFFFFE000000000000
000FFFFFFFF0000000000000
003FFFFFFFC0000000000000
00FFFFFFFE00000000000000
07FFFFFFF800000000000000
0FFFFFFFC000000000000000
1FFFFFFF0000000000000000
3FFFFFF80000000000000000
7FFFFFE00000000000000000
7FFFFF000000000000000000
FFFFF8000000000000000000
FFFFE0000000000000000000
FFFFE0000000000000000000
FFFFFC000000000000000000
7FFFFF000000000000000000
7FFFFFE00000000000000000
3FFFFFF80000000000000000
3FFFFFFF0000000000000000
0FFFFFFFC000000000000000
03FFFFFFF800000000000000
00FFFFFFFE00000000000000
003FFFFFFFC0000000000000
0007FFFFFFF0000000000000
0001FFFFFFFE000000000000
00007FFFFFFFC00000000000
00000FFFFFFFF00000000000
000003FFFFFFFE0000000000
000000FFFFFFFF8000000000
0000001FFFFFFFF000000000
00000007FFFFFFFC00000000
00000000FFFFFFFF80000000
000000003FFFFFFFE0000000
000000000FFFFFFFFC000000
0000000001FFFFFFFF000000
00000000007FFFFFFFE00000
00000000000FFFFFFFF80000
000000000003FFFFFFFF0000
000000000000FFFFFFFFC000
0000000000001FFFFFFFF800
00000000000007FFFFFFFE00
00000000000001FFFFFFFFC0
000000000000003FFFFFFFF0
000000000000000FFFFFFFF0
0000000000000003FFFFFFF0
00000000000000007FFFFFF0
00000000000000001FFFFFF0
000000000000000003FFFFF0
000000000000000000FFFFF0
0000000000000000003FFFF0
00000000000000000007FFF0
00000000000000000001FFF0
000000000000000000007FF0
000000000000000000000FF0
0000000000000000000003F0
000000000000000000000070
000000000000000000000010
ENDCHAR
STARTCHAR equal
ENCODING 61
SWIDTH 690 0
DWIDTH 112 0
BBX 92 58 10 31
BITMAP
FFFFFFFFFFFFFFFFFFFFFFF0
FFFFFFFFFFFFFFFFFFFFFFF0
FFFFFFFFFFFFFFFFFFFFFFF0
FFFFFFFFFFFFFFFFFFFFFFF0
FFFFFFFFFFFFFFFFFFFFFFF0
FFFFFFFFFFFFFFFFFFFFFFF0
FFFFFFFFFFFFFFFFFFFFFFF0
FFFFFFFFFFFFFFFFFFFFFFF0
FFFFFFFFFFFFFFFFFFFFFFF0
FFFFFFFFFFFFFFFFFFFFFFF0
FFFFFFFFFFFFFFFFFFFFFFF0
FFFFFFFFFFFFFFFFFFFFFFF0
FFFFFFFFFFFFFFFFFFFFFFF0
FFFFFFFFFFFFFFFFFFFFFFF0
000000000000000000000000
000000000000000000000000
000000000000000000000000
000000000000000000000000
000000000000000000000000
000000000000000000000000
000000000000000000000000
000000000000000000000000
000000000000000000000000
000000000000000000000000
000000000000000000000000
000000000000000000000000
000000000000000000000000
000000000000000000000000
000000000000000000000000
000000000000000000000000
000000000000000000000000
000000000000000000000000
000000000000000000000000
000000000000000000000000
000000000000000000000000
000000000000000000000000
000000000000000000000000
000000000000000000000000
000000000000000000000000
000000000000000000000000
000000000000000000000000
000000000000000000000000
000000000000000000000000
000000000000000000000000
FFFFFFFFFFFFFFFFFFFFFFF0
FFFFFFFFFFFFFFFFFFFFFFF0
FFFFFFFFFFFFFFFFFFFFFFF0
FFFFFFFFFFFFFFFFFFFFFFF0
FFFFFFFFFFFFFFFFFFFFFFF0
FFFFFFFFFFFFFFFFFFFFFFF0
FFFFFFFFFFFFFFFFFFFFFFF0
FFFFFFFFFFFFFFFFFFFFFFF0
FFFFFFFFFFFFFFFFFFFFFFF0
FFFFFFFFFFFFFFFFFFFFFFF0
FFFFFFFFFFFFFFFFFFFFFFF0
FFFFFFFFFFFFFFFFFFFFFFF0
FFFFFFFFFFFFFFFFFFFFFFF0
FFFFFFFFFFFFFFFFFFFFFFF0
ENDCHAR
STARTCHAR greater
ENCODING 62
SWIDTH 690 0
DWIDTH 112 0
BBX 92 88 10 16
BITMAP
800000000000000000000000
E00000000000000000000000
FC0000000000000000000000
FF0000000000000000000000
FFC000000000000000000000
FFF800000000000000000000
FFFE00000000000000000000
FFFF80000000000000000000
FFFFF0000000000000000000
FFFFFC000000000000000000
FFFFFF800000000000000000
FFFFFFE00000000000000000
FFFFFFF80000000000000000
FFFFFFFF0000000000000000
FFFFFFFFC000000000000000
7FFFFFFFF800000000000000
0FFFFFFFFE00000000000000
03FFFFFFFF80000000000000
007FFFFFFFF0000000000000
000FFFFFFFFC000000000000
0003FFFFFFFF000000000000
00007FFFFFFFE00000000000
00001FFFFFFFF80000000000
000003FFFFFFFF0000000000
000000FFFFFFFFC000000000
0000001FFFFFFFF000000000
00000007FFFFFFFE00000000
00000000FFFFFFFF80000000
000000001FFFFFFFE0000000
0000000007FFFFFFFC000000
0000000000FFFFFFFF000000
00000000003FFFFFFFE00000
000000000007FFFFFFF80000
000000000001FFFFFFFE0000
0000000000003FFFFFFFC000
0000000000000FFFFFFFF000
00000000000001FFFFFFFC00
000000000000003FFFFFFF00
000000000000000FFFFFFF80
0000000000000001FFFFFFC0
00000000000000007FFFFFE0
00000000000000000FFFFFE0
000000000000000003FFFFE0
0000000000000000007FFFF0
0000000000000000007FFFF0
000000000000000003FFFFE0
00000000000000000FFFFFE0
00000000000000007FFFFFE0
0000000000000001FFFFFFC0
000000000000000FFFFFFF80
000000000000007FFFFFFF00
00000000000001FFFFFFFC00
0000000000000FFFFFFFF000
0000000000003FFFFFFFC000
000000000001FFFFFFFE0000
000000000007FFFFFFF80000
00000000003FFFFFFFC00000
0000000000FFFFFFFF000000
0000000007FFFFFFFC000000
000000001FFFFFFFE0000000
00000000FFFFFFFF80000000
00000003FFFFFFFE00000000
0000001FFFFFFFF000000000
0000007FFFFFFFC000000000
000003FFFFFFFE0000000000
00000FFFFFFFF80000000000
00007FFFFFFFE00000000000
0003FFFFFFFF000000000000
000FFFFFFFFC000000000000
007FFFFFFFF0000000000000
01FFFFFFFF80000000000000
0FFFFFFFFE00000000000000
3FFFFFFFF000000000000000
FFFFFFFFC000000000000000
FFFFFFFF0000000000000000
FFFFFFF80000000000000000
FFFFFFE00000000000000000
FFFFFF800000000000000000
FFFFFC000000000000000000
FFFFF0000000000000000000
FFFF80000000000000000000
FFFE00000000000000000000
FFF800000000000000000000
FFC000000000000000000000
FF0000000000000000000000
FC0000000000000000000000
E00000000000000000000000
800000000000000000000000
ENDCHAR
STARTCHAR question
ENCODING 63
SWIDTH 776 0
DWIDTH 126 0
BBX 114 118 7 0
BITMAP
FFFFFFFFFFFFFFFFFFFFF800000000
FFFFFFFFFFFFFFFFFFFFFFC0000000
FFFFFFFFFFFFFFFFFFFFFFFC000000
FFFFFFFFFFFFFFFFFFFFFFFF000000
FFFFFFFFFFFFFFFFFFFFFFFFC00000
FFFFFFFFFFFFFFFFFFFFFFFFF00000
FFFFFFFFFFFFFFFFFFFFFFFFF80000
FFFFFFFFFFFFFFFFFFFFFFFFFE0000
FFFFFFFFFFFFFFFFFFFFFFFFFF0000
FFFFFFFFFFFFFFFFFFFFFFFFFF8000
FFFFFFFFFFFFFFFFFFFFFFFFFFC000
FFFFFFFFFFFFFFFFFFFFFFFFFFE000
FFFFFFFFFFFFFFFFFFFFFFFFFFF000
FFFFFFFFFFFFFFFFFFFFFFFFFFF000
FFFFFFFFFFFFFFFFFFFFFFFFFFF800
FFFFFFFFFFFFFFFFFFFFFFFFFFFC00
FFFFFFFFFFFFFFFFFFFFFFFFFFFC00
FFFFFFFFFFFFFFFFFFFFFFFFFFFE00
FFFFFFFFFFFFFFFFFFFFFFFFFFFE00
FFFFFFFFFFFFFFFFFFFFFFFFFFFF00
FFFFFFFFFFFFFFFFFFFFFFFFFFFF00
000000000000000000000FFFFFFF00
0000000000000000000003FFFFFF80
0000000000000000000000FFFFFF80
00000000000000000000007FFFFF80
00000000000000000000003FFFFF80
00000000000000000000001FFFFF80
00000000000000000000001FFFFFC0
00000000000000000000000FFFFFC0
00000000000000000000000FFFFFC0
00000000000000000000000FFFFFC0
000000000000000000000007FFFFC0
000000000000000000000007FFFFC0
000000000000000000000007FFFFC0
000000000000000000000007FFFFC0
000000000000000000000007FFFFC0
000000000000000000000007FFFFC0
000000000000000000000007FFFFC0
00000000000000000000000FFFFF80
00000000000000000000000FFFFF80
00000000000000000000000FFFFF80
00000000000000000000001FFFFF80
00000000000000000000003FFFFF00
00000000000000000000003FFFFF00
00000000000000000000007FFFFF00
0000000000000000000001FFFFFE00
0000000000000000000003FFFFFE00
000000000000000000001FFFFFFE00
00000001FFFFFFFFFFFFFFFFFFFC00
0000001FFFFFFFFFFFFFFFFFFFF800
000000FFFFFFFFFFFFFFFFFFFFF800
000003FFFFFFFFFFFFFFFFFFFFF000
00000FFFFFFFFFFFFFFFFFFFFFE000
00001FFFFFFFFFFFFFFFFFFFFFE000
00003FFFFFFFFFFFFFFFFFFFFFC000
00007FFFFFFFFFFFFFFFFFFFFF8000
0000FFFFFFFFFFFFFFFFFFFFFF0000
0001FFFFFFFFFFFFFFFFFFFFFC0000
0003FFFFFFFFFFFFFFFFFFFFF80000
0003FFFFFFFFFFFFFFFFFFFFE00000
0007FFFFFFFFFFFFFFFFFFFFC00000
0007FFFFFFFFFFFFFFFFFFFF000000
0007FFFFFFFFFFFFFFFFFFF8000000
000FFFFFFFFFFFFFFFFFFFC0000000
000FFFFFFFFFFFFFFFFFF800000000
000FFFFFE000000000000000000000
000FFFFF8000000000000000000000
001FFFFF0000000000000000000000
001FFFFE0000000000000000000000
001FFFFE0000000000000000000000
001FFFFE0000000000000000000000
001FFFFE0000000000000000000000
001FFFFE0000000000000000000000
001FFFFE0000000000000000000000
001FFFFE0000000000000000000000
001FFFFE0000000000000000000000
001FFFFE0000000000000000000000
001FFFFE0000000000000000000000
001FFFFE0000000000000000000000
000000000000000000000000000000
000000000000000000000000000000
000000000000000000000000000000
000000000000000000000000000000
000000000000000000000000000000
000000000000000000000000000000
000000000000000000000000000000
000000000000000000000000000000
000000000000000000000000000000
000000000000000000000000000000
000000000000000000000000000000
000000000000000000000000000000
000000000000000000000000000000
000000000000000000000000000000
000000000000000000000000000000
000000000000000000000000000000
000000000000000000000000000000
00003F800000000000000000000000
0001FFE00000000000000000000000
0003FFF00000000000000000000000
0007FFFC0000000000000000000000
000FFFFC0000000000000000000000
001FFFFE0000000000000000000000
001FFFFE0000000000000000000000
001FFFFF0000000000000000000000
003FFFFF0000000000000000000000
003FFFFF0000000000000000000000
003FFFFF0000000000000000000000
003FFFFF0000000000000000000000
003FFFFF0000000000000000000000
003FFFFF0000000000000000000000
001FFFFF0000000000000000000000
001FFFFE0000000000000000000000
001FFFFE0000000000000000000000
000FFFFC0000000000000000000000
0007FFFC0000000000000000000000
0003FFF00000000000000000000000
0001FFE00000000000000000000000
00003F800000000000000000000000
ENDCHAR
STARTCHAR at
ENCODING 64
SWIDTH 833 0
DWIDTH 135 0
BBX 118 118 7 0
BITMAP
0000000000001FFFFFFFFFFFFFFFFC
000000000007FFFFFFFFFFFFFFFFFC
00000000007FFFFFFFFFFFFFFFFFFC
0000000003FFFFFFFFFFFFFFFFFFFC
000000000FFFFFFFFFFFFFFFFFFFFC
000000007FFFFFFFFFFFFFFFFFFFFC
00000001FFFFFFFFFFFFFFFFFFFFFC
00000003FFFFFFFFFFFFFFFFFFFFFC
0000000FFFFFFFFFFFFFFFFFFFFFFC
0000003FFFFFFFFFFFFFFFFFFFFFFC
0000007FFFFFFFFFFFFFFFFFFFFFFC
000001FFFFFFFFFFFFFFFFFFFFFFFC
000003FFFFFFFFFFFFFFFFFFFFFFFC
000007FFFFFFFFFFFFFFFFFFFFFFFC
00000FFFFFFFFFFFFFFFFFFFFFFFFC
00001FFFFFFFF0000000000003FFFC
00003FFFFFFC00000000000003FFFC
00007FFFFFE000000000000003FFFC
0000FFFFFF0000000000000003FFFC
0001FFFFFC0000000000000003FFFC
0003FFFFF00000000000000003FFFC
0007FFFFC00000000000000003FFFC
000FFFFF800000000000000003FFFC
001FFFFE000000000000000003FFFC
001FFFFC000000000000000003FFFC
003FFFF8000000000000000003FFFC
007FFFF0000000000000000003FFFC
007FFFE0000000000000000003FFFC
00FFFFC0000000000000000003FFFC
00FFFF80000000000000000003FFFC
01FFFF00000000000000000003FFFC
01FFFE00000000000000000003FFFC
03FFFE0000000FFFFFFFFF0003FFFC
03FFFC000000FFFFFFFFFF0003FFFC
07FFF8000003FFFFFFFFFF0003FFFC
07FFF800000FFFFFFFFFFF0003FFFC
0FFFF000001FFFFFFFFFFF0003FFFC
0FFFF000003FFFFFFFFFFF0003FFFC
1FFFE000007FFFFFFFFFFF0003FFFC
1FFFE00000FFFFFFFFFFFF0003FFFC
1FFFC00001FFFFFFFFFFFF0003FFFC
3FFFC00003FFFFFFFFFFFF0003FFFC
3FFFC00003FFFFFFFFFFFF0003FFFC
3FFF800007FFFFFFFFFFFF0003FFFC
3FFF800007FFFF00001FFF0003FFFC
7FFF80000FFFFC00001FFF0003FFFC
7FFF80000FFFF000001FFF0003FFFC
7FFF00001FFFE000001FFF0003FFFC
7FFF00001FFFC000001FFF0003FFFC
7FFF00001FFF8000001FFF0003FFFC
FFFF00003FFF8000001FFF0003FFFC
FFFF00003FFF0000001FFF0003FFFC
FFFF00003FFF0000001FFF0003FFFC
FFFE00003FFF0000001FFF0003FFFC
FFFE00003FFE0000001FFF0003FFFC
FFFE00007FFE0000001FFF0003FFFC
FFFE00007FFE0000001FFF0003FFFC
FFFE00007FFE0000001FFF0003FFFC
FFFE00007FFE0000001FFF0003FFFC
FFFE00007FFE0000001FFF0003FFFC
FFFE00007FFE0000001FFF0003FFFC
FFFE00007FFE0000001FFF0003FFFC
FFFE00003FFF0000001FFF0003FFFC
FFFE00003FFF0000001FFF0003FFFC
FFFE00003FFF0000001FFF0003FFFC
FFFF00003FFF8000001FFF0003FFFC
FFFF00003FFF8000001FFF0003FFFC
FFFF00003FFFC000001FFF0003FFFC
FFFF00001FFFC000001FFF0003FFFC
FFFF00001FFFE000001FFF0003FFFC
7FFF00001FFFF000001FFF0003FFFC
7FFF80000FFFFC00001FFF0003FFFC
7FFF80000FFFFF80001FFF0003FFFC
7FFF800007FFFFFFFFFFFFFFFFFFFC
7FFF800007FFFFFFFFFFFFFFFFFFFC
7FFFC00003FFFFFFFFFFFFFFFFFFFC
3FFFC00001FFFFFFFFFFFFFFFFFFFC
3FFFC00001FFFFFFFFFFFFFFFFFFFC
3FFFE00000FFFFFFFFFFFFFFFFFFFC
1FFFE000007FFFFFFFFFFFFFFFFFFC
1FFFF000003FFFFFFFFFFFFFFFFFFC
1FFFF000001FFFFFFFFFFFFFFFFFFC
0FFFF8000007FFFFFFFFFFFFFFFFFC
0FFFF8000003FFFFFFFFFFFFFFFFFC
0FFFFC000000FFFFFFFFFFFFFFFFFC
07FFFE0000000FFFFFFFFFFFFFFFFC
07FFFE000000000000000000000000
03FFFF000000000000000000000000
03FFFF800000000000000000000000
01FFFFC00000000000000000000000
01FFFFE00000000000000000000000
00FFFFF00000000000000000000000
007FFFF80000000000000000000000
007FFFFC0000000000000000000000
003FFFFE0000000000000000000000
001FFFFF8000000000000000000000
001FFFFFC000000000000000000000
000FFFFFF000000000000000000000
0007FFFFFC00000000000000000000
0003FFFFFF00000000000000000000
0001FFFFFFE0000000000000000000
0000FFFFFFFC000000000000000000
00007FFFFFFFF00000000000000000
00003FFFFFFFFFFFFFFFFFFFFFFFFC
00001FFFFFFFFFFFFFFFFFFFFFFFFC
00000FFFFFFFFFFFFFFFFFFFFFFFFC
000003FFFFFFFFFFFFFFFFFFFFFFFC
000001FFFFFFFFFFFFFFFFFFFFFFFC
0000007FFFFFFFFFFFFFFFFFFFFFFC
0000003FFFFFFFFFFFFFFFFFFFFFFC
0000000FFFFFFFFFFFFFFFFFFFFFFC
00000003FFFFFFFFFFFFFFFFFFFFFC
00000000FFFFFFFFFFFFFFFFFFFFFC
000000003FFFFFFFFFFFFFFFFFFFFC
0000000007FFFFFFFFFFFFFFFFFFFC
0000000000FFFFFFFFFFFFFFFFFFFC
00000000000FFFFFFFFFFFFFFFFFFC
0000000000003FFFFFFFFFFFFFFFFC
ENDCHAR
STARTCHAR A
ENCODING 65
SWIDTH 989 0
DWIDTH 160 0
BBX 156 120 2 0
BITMAP
0000000000000000000200000000000000000000
0000000000000000007FE0000000000000000000
000000000000000000FFF0000000000000000000
000000000000000001FFF8000000000000000000
000000000000000003FFFC000000000000000000
000000000000000007FFFE000000000000000000
00000000000000000FFFFF000000000000000000
00000000000000000FFFFF000000000000000000
00000000000000001FFFFF800000000000000000
00000000000000001FFFFF800000000000000000
00000000000000003FFFFFC00000000000000000
00000000000000007FFFFFE00000000000000000
00000000000000007FFFFFE00000000000000000
0000000000000000FFFFFFF00000000000000000
0000000000000000FFFFFFF00000000000000000
0000000000000001FFFFFFF80000000000000000
0000000000000003FFFFFFFC0000000000000000
0000000000000003FFFFFFFC0000000000000000
0000000000000007FFFFFFFE0000000000000000
0000000000000007FFFFFFFE0000000000000000
000000000000000FFFFFFFFF0000000000000000
000000000000001FFFFFFFFF8000000000000000
000000000000001FFFFFFFFF8000000000000000
000000000000003FFFFFFFFFC000000000000000
000000000000003FFFFFFFFFC000000000000000
000000000000007FFFFFFFFFE000000000000000
00000000000000FFFFFFFFFFF000000000000000
00000000000000FFFFFFFFFFF000000000000000
00000000000001FFFFFFFFFFF800000000000000
00000000000001FFFFFFFFFFF800000000000000
00000000000003FFFFFBFFFFFC00000000000000
00000000000007FFFFF3FFFFFE00000000000000
00000000000007FFFFE1FFFFFE00000000000000
0000000000000FFFFFE0FFFFFF00000000000000
0000000000000FFFFFC0FFFFFF00000000000000
0000000000001FFFFFC07FFFFF80000000000000
0000000000003FFFFF807FFFFFC0000000000000
0000000000003FFFFF803FFFFFC0000000000000
0000000000007FFFFF001FFFFFE0000000000000
0000000000007FFFFE001FFFFFE0000000000000
000000000000FFFFFE000FFFFFF0000000000000
000000000001FFFFFC000FFFFFF8000000000000
000000000001FFFFFC0007FFFFF8000000000000
000000000003FFFFF80003FFFFFC000000000000
000000000003FFFFF00003FFFFFC000000000000
000000000007FFFFF00001FFFFFE000000000000
00000000000FFFFFE00001FFFFFF000000000000
00000000000FFFFFE00000FFFFFF000000000000
00000000001FFFFFC000007FFFFF800000000000
00000000001FFFFF8000007FFFFF800000000000
00000000003FFFFF8000003FFFFFC00000000000
00000000007FFFFF0000003FFFFFE00000000000
00000000007FFFFF0000001FFFFFE00000000000
0000000000FFFFFE0000000FFFFFF00000000000
0000000000FFFFFC0000000FFFFFF00000000000
0000000001FFFFFC00000007FFFFF80000000000
0000000003FFFFF800000007FFFFFC0000000000
0000000003FFFFF800000003FFFFFC0000000000
0000000007FFFFF000000001FFFFFE0000000000
0000000007FFFFF000000001FFFFFE0000000000
000000000FFFFFE000000000FFFFFF0000000000
000000001FFFFFC0000000007FFFFF8000000000
000000001FFFFFC0000000007FFFFF8000000000
000000003FFFFF80000000003FFFFFC000000000
000000003FFFFF80000000003FFFFFC000000000
000000007FFFFF00000000001FFFFFE000000000
00000000FFFFFE00000000000FFFFFF000000000
00000000FFFFFE00000000000FFFFFF000000000
00000001FFFFFC000000000007FFFFF800000000
00000001FFFFFC000000000007FFFFF800000000
00000003FFFFF8000000000003FFFFFC00000000
00000007FFFFF0000000000001FFFFFE00000000
00000007FFFFF0000000000001FFFFFE00000000
0000000FFFFFE0001FFFFFFFFFFFFFFF00000000
0000000FFFFFE0003FFFFFFFFFFFFFFF00000000
0000001FFFFFC0003FFFFFFFFFFFFFFF80000000
0000003FFFFF80007FFFFFFFFFFFFFFFC0000000
0000003FFFFF80007FFFFFFFFFFFFFFFC0000000
0000007FFFFF0000FFFFFFFFFFFFFFFFE0000000
0000007FFFFF0000FFFFFFFFFFFFFFFFE0000000
000000FFFFFE0001FFFFFFFFFFFFFFFFF0000000
000001FFFFFE0003FFFFFFFFFFFFFFFFF8000000
000001FFFFFC0003FFFFFFFFFFFFFFFFF8000000
000003FFFFF80007FFFFFFFFFFFFFFFFFC000000
000003FFFFF80007FFFFFFFFFFFFFFFFFC000000
000007FFFFF0000FFFFFFFFFFFFFFFFFFE000000
00000FFFFFF0000FFFFFFFFFFFFFFFFFFF000000
00000FFFFFE0001FFFFFFFFFFFFFFFFFFF000000
00001FFFFFC0003FFFFFFFFFFFFFFFFFFF800000
00001FFFFFC0003FFFFFFFFFFFFFFFFFFF800000
00003FFFFF8000000000000000003FFFFFC00000
00007FFFFF8000000000000000003FFFFFE00000
00007FFFFF0000000000000000001FFFFFE00000
0000FFFFFE0000000000000000001FFFFFF00000
0000FFFFFE0000000000000000000FFFFFF00000
0001FFFFFC00000000000000000007FFFFF80000
0003FFFFFC00000000000000000007FFFFFC0000
0003FFFFF800000000000000000003FFFFFC0000
0007FFFFF000000000000000000003FFFFFE0000
0007FFFFF000000000000000000001FFFFFE0000
000FFFFFE000000000000000000000FFFFFF0000
001FFFFFE000000000000000000000FFFFFF8000
001FFFFFC0000000000000000000007FFFFF8000
003FFFFFC0000000000000000000007FFFFFC000
003FFFFF80000000000000000000003FFFFFC000
007FFFFF00000000000000000000003FFFFFE000
00FFFFFF00000000000000000000001FFFFFF000
00FFFFFE00000000000000000000000FFFFFF000
01FFFFFE00000000000000000000000FFFFFF800
01FFFFFC000000000000000000000007FFFFF800
03FFFFF8000000000000000000000007FFFFFC00
07FFFFF8000000000000000000000003FFFFFE00
07FFFFF0000000000000000000000001FFFFFE00
0FFFFFF0000000000000000000000001FFFFFF00
0FFFFFE0000000000000000000000000FFFFFF00
1FFFFFC0000000000000000000000000FFFFFF80
3FFFFFC00000000000000000000000007FFFFFC0
3FFFFF800000000000000000000000003FFFFFC0
7FFFFF800000000000000000000000003FFFFFE0
FFFFFF000000000000000000000000001FFFFFF0
ENDCHAR
STARTCHAR B
ENCODING 66
SWIDTH 891 0
DWIDTH 144 0
BBX 127 118 10 0
BITMAP
FFFFFFFFFFFFFFFFFFFFFFFE00000000
FFFFFFFFFFFFFFFFFFFFFFFFF0000000
FFFFFFFFFFFFFFFFFFFFFFFFFF000000
FFFFFFFFFFFFFFFFFFFFFFFFFFC00000
FFFFFFFFFFFFFFFFFFFFFFFFFFF80000
FFFFFFFFFFFFFFFFFFFFFFFFFFFC0000
FFFFFFFFFFFFFFFFFFFFFFFFFFFF0000
FFFFFFFFFFFFFFFFFFFFFFFFFFFFC000
FFFFFFFFFFFFFFFFFFFFFFFFFFFFE000
FFFFFFFFFFFFFFFFFFFFFFFFFFFFF000
FFFFFFFFFFFFFFFFFFFFFFFFFFFFF800
FFFFFFFFFFFFFFFFFFFFFFFFFFFFFC00
FFFFFFFFFFFFFFFFFFFFFFFFFFFFFE00
FFFFFFFFFFFFFFFFFFFFFFFFFFFFFE00
FFFFFFFFFFFFFFFFFFFFFFFFFFFFFF00
FFFFFFFFFFFFFFFFFFFFFFFFFFFFFF80
FFFFFFFFFFFFFFFFFFFFFFFFFFFFFF80
FFFFFFFFFFFFFFFFFFFFFFFFFFFFFFC0
FFFFFFFFFFFFFFFFFFFFFFFFFFFFFFC0
FFFFFFFFFFFFFFFFFFFFFFFFFFFFFFE0
FFFFFFFFFFFFFFFFFFFFFFFFFFFFFFE0
FFFFF800000000000000001FFFFFFFE0
FFFFF8000000000000000001FFFFFFE0
FFFFF80000000000000000007FFFFFF0
FFFFF80000000000000000001FFFFFF0
FFFFF80000000000000000000FFFFFF0
FFFFF800000000000000000007FFFFF0
FFFFF800000000000000000003FFFFF0
FFFFF800000000000000000003FFFFF0
FFFFF800000000000000000001FFFFF0
FFFFF800000000000000000001FFFFF0
FFFFF800000000000000000001FFFFF0
FFFFF800000000000000000001FFFFF0
FFFFF800000000000000000001FFFFF0
FFFFF800000000000000000000FFFFF0
FFFFF800000000000000000000FFFFF0
FFFFF800000000000000000000FFFFF0
FFFFF800000000000000000001FFFFF0
FFFFF800000000000000000001FFFFF0
FFFFF800000000000000000001FFFFF0
FFFFF800000000000000000001FFFFE0
FFFFF800000000000000000001FFFFE0
FFFFF800000000000000000003FFFFE0
FFFFF800000000000000000003FFFFC0
FFFFF800000000000000000007FFFFC0
FFFFF800000000000000000007FFFF80
FFFFF80000000000000000000FFFFF80
FFFFF80000000000000000003FFFFF00
FFFFF8000000000000000000FFFFFE00
FFFFF800000000000000000FFFFFFE00
FFFFF8000FFFFFFFFFFFFFFFFFFFFC00
FFFFF8000FFFFFFFFFFFFFFFFFFFF800
FFFFF8000FFFFFFFFFFFFFFFFFFFE000
FFFFF8000FFFFFFFFFFFFFFFFFFFC000
FFFFF8000FFFFFFFFFFFFFFFFFFF0000
FFFFF8000FFFFFFFFFFFFFFFFFFC0000
FFFFF8000FFFFFFFFFFFFFFFFFF80000
FFFFF8000FFFFFFFFFFFFFFFFFFE0000
FFFFF8000FFFFFFFFFFFFFFFFFFF8000
FFFFF8000FFFFFFFFFFFFFFFFFFFE000
FFFFF8000FFFFFFFFFFFFFFFFFFFF000
FFFFF8000FFFFFFFFFFFFFFFFFFFFC00
FFFFF8000FFFFFFFFFFFFFFFFFFFFE00
FFFFF8000FFFFFFFFFFFFFFFFFFFFF00
FFFFF8000FFFFFFFFFFFFFFFFFFFFF00
FFFFF8000FFFFFFFFFFFFFFFFFFFFF80
FFFFF8000FFFFFFFFFFFFFFFFFFFFFC0
FFFFF8000000000000000007FFFFFFE0
FFFFF80000000000000000007FFFFFE0
FFFFF80000000000000000001FFFFFF0
FFFFF800000000000000000007FFFFF0
FFFFF800000000000000000003FFFFF8
FFFFF800000000000000000001FFFFF8
FFFFF800000000000000000001FFFFF8
FFFFF800000000000000000000FFFFFC
FFFFF800000000000000000000FFFFFC
FFFFF8000000000000000000007FFFFC
FFFFF8000000000000000000007FFFFC
FFFFF8000000000000000000007FFFFC
FFFFF8000000000000000000003FFFFC
FFFFF8000000000000000000003FFFFC
FFFFF8000000000000000000003FFFFE
FFFFF8000000000000000000003FFFFE
FFFFF8000000000000000000007FFFFE
FFFFF8000000000000000000007FFFFE
FFFFF8000000000000000000007FFFFC
FFFFF8000000000000000000007FFFFC
FFFFF8000000000000000000007FFFFC
FFFFF800000000000000000000FFFFFC
FFFFF800000000000000000000FFFFFC
FFFFF800000000000000000001FFFFFC
FFFFF800000000000000000003FFFFFC
FFFFF800000000000000000007FFFFF8
FFFFF80000000000000000001FFFFFF8
FFFFF80000000000000000007FFFFFF8
FFFFF8000000000000000001FFFFFFF8
FFFFF800000000000000001FFFFFFFF0
FFFFFFFFFFFFFFFFFFFFFFFFFFFFFFF0
FFFFFFFFFFFFFFFFFFFFFFFFFFFFFFE0
FFFFFFFFFFFFFFFFFFFFFFFFFFFFFFE0
FFFFFFFFFFFFFFFFFFFFFFFFFFFFFFC0
FFFFFFFFFFFFFFFFFFFFFFFFFFFFFFC0
FFFFFFFFFFFFFFFFFFFFFFFFFFFFFF80
FFFFFFFFFFFFFFFFFFFFFFFFFFFFFF00
FFFFFFFFFFFFFFFFFFFFFFFFFFFFFF00
FFFFFFFFFFFFFFFFFFFFFFFFFFFFFE00
FFFFFFFFFFFFFFFFFFFFFFFFFFFFFC00
FFFFFFFFFFFFFFFFFFFFFFFFFFFFF800
FFFFFFFFFFFFFFFFFFFFFFFFFFFFF000
FFFFFFFFFFFFFFFFFFFFFFFFFFFFE000
FFFFFFFFFFFFFFFFFFFFFFFFFFFFC000
FFFFFFFFFFFFFFFFFFFFFFFFFFFF0000
FFFFFFFFFFFFFFFFFFFFFFFFFFFE0000
FFFFFFFFFFFFFFFFFFFFFFFFFFF80000
FFFFFFFFFFFFFFFFFFFFFFFFFFE00000
FFFFFFFFFFFFFFFFFFFFFFFFFF000000
FFFFFFFFFFFFFFFFFFFFFFFFF8000000
FFFFFFFFFFFFFFFFFFFFFFFF00000000
ENDCHAR
STARTCHAR C
ENCODING 67
SWIDTH 829 0
DWIDTH 134 0
BBX 121 118 7 0
BITMAP
0000000000007FFFFFFFFFFFFFFFFF80
00000000001FFFFFFFFFFFFFFFFFFF80
0000000001FFFFFFFFFFFFFFFFFFFF80
000000000FFFFFFFFFFFFFFFFFFFFF80
000000007FFFFFFFFFFFFFFFFFFFFF80
00000001FFFFFFFFFFFFFFFFFFFFFF80
00000007FFFFFFFFFFFFFFFFFFFFFF80
0000001FFFFFFFFFFFFFFFFFFFFFFF80
0000007FFFFFFFFFFFFFFFFFFFFFFF80
000000FFFFFFFFFFFFFFFFFFFFFFFF80
000003FFFFFFFFFFFFFFFFFFFFFFFF80
000007FFFFFFFFFFFFFFFFFFFFFFFF80
00000FFFFFFFFFFFFFFFFFFFFFFFFF80
00001FFFFFFFFFFFFFFFFFFFFFFFFF80
00007FFFFFFFFFFFFFFFFFFFFFFFFF80
0000FFFFFFFFFFFFFFFFFFFFFFFFFF80
0001FFFFFFFFFFFFFFFFFFFFFFFFFF80
0003FFFFFFFFFFFFFFFFFFFFFFFFFF80
0003FFFFFFFFFFFFFFFFFFFFFFFFFF80
0007FFFFFFFFFFFFFFFFFFFFFFFFFF80
000FFFFFFFFFFFFFFFFFFFFFFFFFFF80
001FFFFFFFFF00000000000000000000
003FFFFFFFF800000000000000000000
003FFFFFFFC000000000000000000000
007FFFFFFF0000000000000000000000
00FFFFFFFC0000000000000000000000
00FFFFFFF80000000000000000000000
01FFFFFFE00000000000000000000000
01FFFFFFC00000000000000000000000
03FFFFFF800000000000000000000000
03FFFFFF000000000000000000000000
07FFFFFE000000000000000000000000
07FFFFFC000000000000000000000000
0FFFFFF8000000000000000000000000
0FFFFFF0000000000000000000000000
0FFFFFE0000000000000000000000000
1FFFFFE0000000000000000000000000
1FFFFFC0000000000000000000000000
1FFFFF80000000000000000000000000
3FFFFF80000000000000000000000000
3FFFFF00000000000000000000000000
3FFFFF00000000000000000000000000
7FFFFF00000000000000000000000000
7FFFFE00000000000000000000000000
7FFFFE00000000000000000000000000
7FFFFC00000000000000000000000000
7FFFFC00000000000000000000000000
FFFFFC00000000000000000000000000
FFFFFC00000000000000000000000000
FFFFF800000000000000000000000000
FFFFF800000000000000000000000000
FFFFF800000000000000000000000000
FFFFF800000000000000000000000000
FFFFF800000000000000000000000000
FFFFF800000000000000000000000000
FFFFF000000000000000000000000000
FFFFF000000000000000000000000000
FFFFF000000000000000000000000000
FFFFF000000000000000000000000000
FFFFF000000000000000000000000000
FFFFF000000000000000000000000000
FFFFF000000000000000000000000000
FFFFF800000000000000000000000000
FFFFF800000000000000000000000000
FFFFF800000000000000000000000000
FFFFF800000000000000000000000000
FFFFF800000000000000000000000000
FFFFF800000000000000000000000000
7FFFF800000000000000000000000000
7FFFFC00000000000000000000000000
7FFFFC00000000000000000000000000
7FFFFC00000000000000000000000000
7FFFFE00000000000000000000000000
3FFFFE00000000000000000000000000
3FFFFE00000000000000000000000000
3FFFFF00000000000000000000000000
3FFFFF00000000000000000000000000
1FFFFF80000000000000000000000000
1FFFFF80000000000000000000000000
1FFFFFC0000000000000000000000000
0FFFFFC0000000000000000000000000
0FFFFFE0000000000000000000000000
0FFFFFF0000000000000000000000000
07FFFFF0000000000000000000000000
07FFFFF8000000000000000000000000
03FFFFFC000000000000000000000000
03FFFFFE000000000000000000000000
01FFFFFF000000000000000000000000
01FFFFFF800000000000000000000000
00FFFFFFC00000000000000000000000
00FFFFFFE00000000000000000000000
007FFFFFF80000000000000000000000
003FFFFFFC0000000000000000000000
003FFFFFFF0000000000000000000000
001FFFFFFFC000000000000000000000
000FFFFFFFF800000000000000000000
000FFFFFFFFF80000000000000000000
0007FFFFFFFFFFFFFFFFFFFFFFFFFF80
0003FFFFFFFFFFFFFFFFFFFFFFFFFF80
0001FFFFFFFFFFFFFFFFFFFFFFFFFF80
0000FFFFFFFFFFFFFFFFFFFFFFFFFF80
00007FFFFFFFFFFFFFFFFFFFFFFFFF80
00003FFFFFFFFFFFFFFFFFFFFFFFFF80
00001FFFFFFFFFFFFFFFFFFFFFFFFF80
00000FFFFFFFFFFFFFFFFFFFFFFFFF80
000007FFFFFFFFFFFFFFFFFFFFFFFF80
000001FFFFFFFFFFFFFFFFFFFFFFFF80
000000FFFFFFFFFFFFFFFFFFFFFFFF80
0000007FFFFFFFFFFFFFFFFFFFFFFF80
0000001FFFFFFFFFFFFFFFFFFFFFFF80
00000007FFFFFFFFFFFFFFFFFFFFFF80
00000003FFFFFFFFFFFFFFFFFFFFFF80
00000000FFFFFFFFFFFFFFFFFFFFFF80
000000003FFFFFFFFFFFFFFFFFFFFF80
0000000007FFFFFFFFFFFFFFFFFFFF80
0000000000FFFFFFFFFFFFFFFFFFFF80
00000000001FFFFFFFFFFFFFFFFFFF80
0000000000007FFFFFFFFFFFFFFFFF80
ENDCHAR
STARTCHAR D
ENCODING 68
SWIDTH 879 0
DWIDTH 142 0
BBX 126 118 10 0
BITMAP
FFFFFFFFFFFFFFFFFFF8000000000000
FFFFFFFFFFFFFFFFFFFFE00000000000
FFFFFFFFFFFFFFFFFFFFFC0000000000
FFFFFFFFFFFFFFFFFFFFFFC000000000
FFFFFFFFFFFFFFFFFFFFFFF000000000
FFFFFFFFFFFFFFFFFFFFFFFC00000000
FFFFFFFFFFFFFFFFFFFFFFFF00000000
FFFFFFFFFFFFFFFFFFFFFFFFC0000000
FFFFFFFFFFFFFFFFFFFFFFFFF0000000
FFFFFFFFFFFFFFFFFFFFFFFFFC000000
FFFFFFFFFFFFFFFFFFFFFFFFFE000000
FFFFFFFFFFFFFFFFFFFFFFFFFF000000
FFFFFFFFFFFFFFFFFFFFFFFFFFC00000
FFFFFFFFFFFFFFFFFFFFFFFFFFE00000
FFFFFFFFFFFFFFFFFFFFFFFFFFF00000
FFFFFFFFFFFFFFFFFFFFFFFFFFF80000
FFFFFFFFFFFFFFFFFFFFFFFFFFFC0000
FFFFFFFFFFFFFFFFFFFFFFFFFFFE0000
FFFFFFFFFFFFFFFFFFFFFFFFFFFF0000
FFFFFFFFFFFFFFFFFFFFFFFFFFFF8000
FFFFFFFFFFFFFFFFFFFFFFFFFFFF8000
FFFFF800000000000007FFFFFFFFC000
FFFFF800000000000000FFFFFFFFE000
FFFFF8000000000000001FFFFFFFF000
FFFFF80000000000000007FFFFFFF000
FFFFF80000000000000001FFFFFFF800
FFFFF800000000000000007FFFFFFC00
FFFFF800000000000000003FFFFFFC00
FFFFF800000000000000000FFFFFFE00
FFFFF8000000000000000007FFFFFE00
FFFFF8000000000000000003FFFFFF00
FFFFF8000000000000000001FFFFFF00
FFFFF8000000000000000000FFFFFF80
FFFFF80000000000000000007FFFFF80
FFFFF80000000000000000007FFFFFC0
FFFFF80000000000000000003FFFFFC0
FFFFF80000000000000000001FFFFFC0
FFFFF80000000000000000001FFFFFE0
FFFFF80000000000000000000FFFFFE0
FFFFF800000000000000000007FFFFE0
FFFFF800000000000000000007FFFFF0
FFFFF800000000000000000003FFFFF0
FFFFF800000000000000000003FFFFF0
FFFFF800000000000000000003FFFFF0
FFFFF800000000000000000001FFFFF0
FFFFF800000000000000000001FFFFF8
FFFFF800000000000000000001FFFFF8
FFFFF800000000000000000000FFFFF8
FFFFF800000000000000000000FFFFF8
FFFFF800000000000000000000FFFFF8
FFFFF800000000000000000000FFFFF8
FFFFF8000000000000000000007FFFF8
FFFFF8000000000000000000007FFFFC
FFFFF8000000000000000000007FFFFC
FFFFF8000000000000000000007FFFFC
FFFFF8000000000000000000007FFFFC
FFFFF8000000000000000000007FFFFC
FFFFF8000000000000000000007FFFFC
FFFFF8000000000000000000007FFFFC
FFFFF8000000000000000000007FFFFC
FFFFF8000000000000000000007FFFFC
FFFFF8000000000000000000007FFFFC
FFFFF8000000000000000000007FFFFC
FFFFF8000000000000000000007FFFFC
FFFFF8000000000000000000007FFFF8
FFFFF8000000000000000000007FFFF8
FFFFF8000000000000000000007FFFF8
FFFFF800000000000000000000FFFFF8
FFFFF800000000000000000000FFFFF8
FFFFF800000000000000000000FFFFF8
FFFFF800000000000000000000FFFFF8
FFFFF800000000000000000001FFFFF0
FFFFF800000000000000000001FFFFF0
FFFFF800000000000000000001FFFFF0
FFFFF800000000000000000003FFFFF0
FFFFF800000000000000000003FFFFE0
FFFFF800000000000000000007FFFFE0
FFFFF800000000000000000007FFFFE0
FFFFF80000000000000000000FFFFFE0
FFFFF80000000000000000000FFFFFC0
FFFFF80000000000000000001FFFFFC0
FFFFF80000000000000000001FFFFFC0
FFFFF80000000000000000003FFFFF80
FFFFF80000000000000000007FFFFF80
FFFFF8000000000000000000FFFFFF00
FFFFF8000000000000000000FFFFFF00
FFFFF8000000000000000001FFFFFE00
FFFFF8000000000000000003FFFFFE00
FFFFF8000000000000000007FFFFFC00
FFFFF800000000000000001FFFFFFC00
FFFFF800000000000000003FFFFFF800
FFFFF800000000000000007FFFFFF800
FFFFF80000000000000001FFFFFFF000
FFFFF80000000000000007FFFFFFE000
FFFFF8000000000000001FFFFFFFE000
FFFFF800000000000000FFFFFFFFC000
FFFFF800000000000007FFFFFFFF8000
FFFFFFFFFFFFFFFFFFFFFFFFFFFF0000
FFFFFFFFFFFFFFFFFFFFFFFFFFFF0000
FFFFFFFFFFFFFFFFFFFFFFFFFFFE0000
FFFFFFFFFFFFFFFFFFFFFFFFFFFC0000
FFFFFFFFFFFFFFFFFFFFFFFFFFF80000
FFFFFFFFFFFFFFFFFFFFFFFFFFF00000
FFFFFFFFFFFFFFFFFFFFFFFFFFE00000
FFFFFFFFFFFFFFFFFFFFFFFFFFC00000
FFFFFFFFFFFFFFFFFFFFFFFFFF000000
FFFFFFFFFFFFFFFFFFFFFFFFFE000000
FFFFFFFFFFFFFFFFFFFFFFFFFC000000
FFFFFFFFFFFFFFFFFFFFFFFFF0000000
FFFFFFFFFFFFFFFFFFFFFFFFE0000000
FFFFFFFFFFFFFFFFFFFFFFFF80000000
FFFFFFFFFFFFFFFFFFFFFFFE00000000
FFFFFFFFFFFFFFFFFFFFFFF800000000
FFFFFFFFFFFFFFFFFFFFFFE000000000
FFFFFFFFFFFFFFFFFFFFFF8000000000
FFFFFFFFFFFFFFFFFFFFFC0000000000
FFFFFFFFFFFFFFFFFFFFC00000000000
FFFFFFFFFFFFFFFFFFF8000000000000
ENDCHAR
STARTCHAR E
ENCODING 69
SWIDTH 759 0
DWIDTH 123 0
BBX 106 118 10 0
BITMAP
FFFFFFFFFFFFFFFFFFFFFFFFFF80
FFFFFFFFFFFFFFFFFFFFFFFFFF80
FFFFFFFFFFFFFFFFFFFFFFFFFF80
FFFFFFFFFFFFFFFFFFFFFFFFFF80
FFFFFFFFFFFFFFFFFFFFFFFFFF80
FFFFFFFFFFFFFFFFFFFFFFFFFF80
FFFFFFFFFFFFFFFFFFFFFFFFFF80
FFFFFFFFFFFFFFFFFFFFFFFFFF80
FFFFFFFFFFFFFFFFFFFFFFFFFF80
FFFFFFFFFFFFFFFFFFFFFFFFFF80
FFFFFFFFFFFFFFFFFFFFFFFFFF80
FFFFFFFFFFFFFFFFFFFFFFFFFF80
FFFFFFFFFFFFFFFFFFFFFFFFFF80
FFFFFFFFFFFFFFFFFFFFFFFFFF80
FFFFFFFFFFFFFFFFFFFFFFFFFF80
FFFFFFFFFFFFFFFFFFFFFFFFFF80
FFFFFFFFFFFFFFFFFFFFFFFFFF80
FFFFFFFFFFFFFFFFFFFFFFFFFF80
FFFFFFFFFFFFFFFFFFFFFFFFFF80
FFFFFFFFFFFFFFFFFFFFFFFFFF80
FFFFFFFFFFFFFFFFFFFFFFFFFF80
FFFFF80000000000000000000000
FFFFF80000000000000000000000
FFFFF80000000000000000000000
FFFFF80000000000000000000000
FFFFF80000000000000000000000
FFFFF80000000000000000000000
FFFFF80000000000000000000000
FFFFF80000000000000000000000
FFFFF80000000000000000000000
FFFFF80000000000000000000000
FFFFF80000000000000000000000
FFFFF80000000000000000000000
FFFFF80000000000000000000000
FFFFF80000000000000000000000
FFFFF80000000000000000000000
FFFFF80000000000000000000000
FFFFF80000000000000000000000
FFFFF80000000000000000000000
FFFFF80000000000000000000000
FFFFF80000000000000000000000
FFFFF80000000000000000000000
FFFFF80000000000000000000000
FFFFF80000000000000000000000
FFFFF80000000000000000000000
FFFFF80000000000000000000000
FFFFF80000000000000000000000
FFFFF80000000000000000000000
FFFFF80000000000000000000000
FFFFF80000000000000000000000
FFFFF8000FFFFFFFFFFFFFFFF800
FFFFF8000FFFFFFFFFFFFFFFF800
FFFFF8000FFFFFFFFFFFFFFFF800
FFFFF8000FFFFFFFFFFFFFFFF800
FFFFF8000FFFFFFFFFFFFFFFF800
FFFFF8000FFFFFFFFFFFFFFFF800
FFFFF8000FFFFFFFFFFFFFFFF800
FFFFF8000FFFFFFFFFFFFFFFF800
FFFFF8000FFFFFFFFFFFFFFFF800
FFFFF8000FFFFFFFFFFFFFFFF800
FFFFF8000FFFFFFFFFFFFFFFF800
FFFFF8000FFFFFFFFFFFFFFFF800
FFFFF8000FFFFFFFFFFFFFFFF800
FFFFF8000FFFFFFFFFFFFFFFF800
FFFFF8000FFFFFFFFFFFFFFFF800
FFFFF8000FFFFFFFFFFFFFFFF800
FFFFF8000FFFFFFFFFFFFFFFF800
FFFFF80000000000000000000000
FFFFF80000000000000000000000
FFFFF80000000000000000000000
FFFFF80000000000000000000000
FFFFF80000000000000000000000
FFFFF80000000000000000000000
FFFFF80000000000000000000000
FFFFF80000000000000000000000
FFFFF80000000000000000000000
FFFFF80000000000000000000000
FFFFF80000000000000000000000
FFFFF80000000000000000000000
FFFFF80000000000000000000000
FFFFF80000000000000000000000
FFFFF80000000000000000000000
FFFFF80000000000000000000000
FFFFF80000000000000000000000
FFFFF80000000000000000000000
FFFFF80000000000000000000000
FFFFF80000000000000000000000
FFFFF80000000000000000000000
FFFFF80000000000000000000000
FFFFF80000000000000000000000
FFFFF80000000000000000000000
FFFFF80000000000000000000000
FFFFF80000000000000000000000
FFFFF80000000000000000000000
FFFFF80000000000000000000000
FFFFF80000000000000000000000
FFFFF80000000000000000000000
FFFFFFFFFFFFFFFFFFFFFFFFFFC0
FFFFFFFFFFFFFFFFFFFFFFFFFFC0
FFFFFFFFFFFFFFFFFFFFFFFFFFC0
FFFFFFFFFFFFFFFFFFFFFFFFFFC0
FFFFFFFFFFFFFFFFFFFFFFFFFFC0
FFFFFFFFFFFFFFFFFFFFFFFFFFC0
FFFFFFFFFFFFFFFFFFFFFFFFFFC0
FFFFFFFFFFFFFFFFFFFFFFFFFFC0
FFFFFFFFFFFFFFFFFFFFFFFFFFC0
FFFFFFFFFFFFFFFFFFFFFFFFFFC0
FFFFFFFFFFFFFFFFFFFFFFFFFFC0
FFFFFFFFFFFFFFFFFFFFFFFFFFC0
FFFFFFFFFFFFFFFFFFFFFFFFFFC0
FFFFFFFFFFFFFFFFFFFFFFFFFFC0
FFFFFFFFFFFFFFFFFFFFFFFFFFC0
FFFFFFFFFFFFFFFFFFFFFFFFFFC0
FFFFFFFFFFFFFFFFFFFFFFFFFFC0
FFFFFFFFFFFFFFFFFFFFFFFFFFC0
FFFFFFFFFFFFFFFFFFFFFFFFFFC0
FFFFFFFFFFFFFFFFFFFFFFFFFFC0
FFFFFFFFFFFFFFFFFFFFFFFFFFC0
ENDCHAR
STARTCHAR F
ENCODING 70
SWIDTH 705 0
DWIDTH 114 0
BBX 100 118 10 0
BITMAP
FFFFFFFFFFFFFFFFFFFFFFFFF0
FFFFFFFFFFFFFFFFFFFFFFFFF0
FFFFFFFFFFFFFFFFFFFFFFFFF0
FFFFFFFFFFFFFFFFFFFFFFFFF0
FFFFFFFFFFFFFFFFFFFFFFFFF0
FFFFFFFFFFFFFFFFFFFFFFFFF0
FFFFFFFFFFFFFFFFFFFFFFFFF0
FFFFFFFFFFFFFFFFFFFFFFFFF0
FFFFFFFFFFFFFFFFFFFFFFFFF0
FFFFFFFFFFFFFFFFFFFFFFFFF0
FFFFFFFFFFFFFFFFFFFFFFFFF0
FFFFFFFFFFFFFFFFFFFFFFFFF0
FFFFFFFFFFFFFFFFFFFFFFFFF0
FFFFFFFFFFFFFFFFFFFFFFFFF0
FFFFFFFFFFFFFFFFFFFFFFFFF0
FFFFFFFFFFFFFFFFFFFFFFFFF0
FFFFFFFFFFFFFFFFFFFFFFFFF0
FFFFFFFFFFFFFFFFFFFFFFFFF0
FFFFFFFFFFFFFFFFFFFFFFFFF0
FFFFFFFFFFFFFFFFFFFFFFFFF0
FFFFFFFFFFFFFFFFFFFFFFFFF0
FFFFF800000000000000000000
FFFFF800000000000000000000
FFFFF800000000000000000000
FFFFF800000000000000000000
FFFFF800000000000000000000
FFFFF800000000000000000000
FFFFF800000000000000000000
FFFFF800000000000000000000
FFFFF800000000000000000000
FFFFF800000000000000000000
FFFFF800000000000000000000
FFFFF800000000000000000000
FFFFF800000000000000000000
FFFFF800000000000000000000
FFFFF800000000000000000000
FFFFF800000000000000000000
FFFFF800000000000000000000
FFFFF800000000000000000000
FFFFF800000000000000000000
FFFFF800000000000000000000
FFFFF800000000000000000000
FFFFF800000000000000000000
FFFFF800000000000000000000
FFFFF800000000000000000000
FFFFF800000000000000000000
FFFFF800000000000000000000
FFFFF800000000000000000000
FFFFF800000000000000000000
FFFFF800000000000000000000
FFFFF800000000000000000000
FFFFF8000FFFFFFFFFFFFFFE00
FFFFF8000FFFFFFFFFFFFFFE00
FFFFF8000FFFFFFFFFFFFFFE00
FFFFF8000FFFFFFFFFFFFFFE00
FFFFF8000FFFFFFFFFFFFFFE00
FFFFF8000FFFFFFFFFFFFFFE00
FFFFF8000FFFFFFFFFFFFFFE00
FFFFF8000FFFFFFFFFFFFFFE00
FFFFF8000FFFFFFFFFFFFFFE00
FFFFF8000FFFFFFFFFFFFFFE00
FFFFF8000FFFFFFFFFFFFFFE00
FFFFF8000FFFFFFFFFFFFFFE00
FFFFF8000FFFFFFFFFFFFFFE00
FFFFF8000FFFFFFFFFFFFFFE00
FFFFF8000FFFFFFFFFFFFFFE00
FFFFF8000FFFFFFFFFFFFFFE00
FFFFF8000FFFFFFFFFFFFFFE00
FFFFF8000FFFFFFFFFFFFFFE00
FFFFF800000000000000000000
FFFFF800000000000000000000
FFFFF800000000000000000000
FFFFF800000000000000000000
FFFFF800000000000000000000
FFFFF800000000000000000000
FFFFF800000000000000000000
FFFFF800000000000000000000
FFFFF800000000000000000000
FFFFF800000000000000000000
FFFFF800000000000000000000
FFFFF800000000000000000000
FFFFF800000000000000000000
FFFFF800000000000000000000
FFFFF800000000000000000000
FFFFF800000000000000000000
FFFFF800000000000000000000
FFFFF800000000000000000000
FFFFF800000000000000000000
FFFFF800000000000000000000
FFFFF800000000000000000000
FFFFF800000000000000000000
FFFFF800000000000000000000
FFFFF800000000000000000000
FFFFF800000000000000000000
FFFFF800000000000000000000
FFFFF800000000000000000000
FFFFF800000000000000000000
FFFFF800000000000000000000
FFFFF800000000000000000000
FFFFF800000000000000000000
FFFFF800000000000000000000
FFFFF800000000000000000000
FFFFF800000000000000000000
FFFFF800000000000000000000
FFFFF800000000000000000000
FFFFF800000000000000000000
FFFFF800000000000000000000
FFFFF800000000000000000000
FFFFF800000000000000000000
FFFFF800000000000000000000
FFFFF800000000000000000000
FFFFF800000000000000000000
FFFFF800000000000000000000
FFFFF800000000000000000000
FFFFF800000000000000000000
FFFFF800000000000000000000
FFFFF800000000000000000000
FFFFF800000000000000000000
ENDCHAR
STARTCHAR G
ENCODING 71
SWIDTH 888 0
DWIDTH 144 0
BBX 128 118 7 0
BITMAP
0000000000007FFFFFFFFFFFFFFFFF80
00000000001FFFFFFFFFFFFFFFFFFF80
0000000001FFFFFFFFFFFFFFFFFFFF80
000000000FFFFFFFFFFFFFFFFFFFFF80
000000007FFFFFFFFFFFFFFFFFFFFF80
00000001FFFFFFFFFFFFFFFFFFFFFF80
00000007FFFFFFFFFFFFFFFFFFFFFF80
0000001FFFFFFFFFFFFFFFFFFFFFFF80
0000007FFFFFFFFFFFFFFFFFFFFFFF80
000000FFFFFFFFFFFFFFFFFFFFFFFF80
000003FFFFFFFFFFFFFFFFFFFFFFFF80
000007FFFFFFFFFFFFFFFFFFFFFFFF80
00000FFFFFFFFFFFFFFFFFFFFFFFFF80
00001FFFFFFFFFFFFFFFFFFFFFFFFF80
00007FFFFFFFFFFFFFFFFFFFFFFFFF80
0000FFFFFFFFFFFFFFFFFFFFFFFFFF80
0001FFFFFFFFFFFFFFFFFFFFFFFFFF80
0003FFFFFFFFFFFFFFFFFFFFFFFFFF80
0003FFFFFFFFFFFFFFFFFFFFFFFFFF80
0007FFFFFFFFFFFFFFFFFFFFFFFFFF80
000FFFFFFFFFFFFFFFFFFFFFFFFFFF80
001FFFFFFFFF00000000000000000000
003FFFFFFFF800000000000000000000
003FFFFFFFC000000000000000000000
007FFFFFFF0000000000000000000000
00FFFFFFFC0000000000000000000000
00FFFFFFF80000000000000000000000
01FFFFFFE00000000000000000000000
01FFFFFFC00000000000000000000000
03FFFFFF800000000000000000000000
03FFFFFF000000000000000000000000
07FFFFFE000000000000000000000000
07FFFFFC000000000000000000000000
0FFFFFF8000000000000000000000000
0FFFFFF0000000000000000000000000
0FFFFFE0000000000000000000000000
1FFFFFE0000000000000000000000000
1FFFFFC0000000000000000000000000
1FFFFF80000000000000000000000000
3FFFFF80000000000000000000000000
3FFFFF00000000000000000000000000
3FFFFF00000000000000000000000000
7FFFFF00000000000000000000000000
7FFFFE00000000000000000000000000
7FFFFE00000000000000000000000000
7FFFFC00000000000000000000000000
7FFFFC00000000000000000000000000
FFFFFC00000000000000000000000000
FFFFFC00000000000000000000000000
FFFFF800000000000000000000000000
FFFFF800000003FFFFFFFFFFFFFFFFFF
FFFFF800000003FFFFFFFFFFFFFFFFFF
FFFFF800000003FFFFFFFFFFFFFFFFFF
FFFFF800000003FFFFFFFFFFFFFFFFFF
FFFFF800000003FFFFFFFFFFFFFFFFFF
FFFFF000000003FFFFFFFFFFFFFFFFFF
FFFFF000000003FFFFFFFFFFFFFFFFFF
FFFFF000000003FFFFFFFFFFFFFFFFFF
FFFFF000000003FFFFFFFFFFFFFFFFFF
FFFFF000000003FFFFFFFFFFFFFFFFFF
FFFFF000000003FFFFFFFFFFFFFFFFFF
FFFFF000000003FFFFFFFFFFFFFFFFFF
FFFFF800000003FFFFFFFFFFFFFFFFFF
FFFFF800000003FFFFFFFFFFFFFFFFFF
FFFFF800000003FFFFFFFFFFFFFFFFFF
FFFFF800000003FFFFFFFFFFFFFFFFFF
FFFFF800000003FFFFFFFFFFFFFFFFFF
FFFFF8000000000000000000001FFFFF
7FFFF8000000000000000000001FFFFF
7FFFFC000000000000000000001FFFFF
7FFFFC000000000000000000001FFFFF
7FFFFC000000000000000000001FFFFF
7FFFFE000000000000000000001FFFFF
3FFFFE000000000000000000001FFFFF
3FFFFE000000000000000000001FFFFF
3FFFFF000000000000000000001FFFFF
3FFFFF000000000000000000001FFFFF
1FFFFF800000000000000000001FFFFF
1FFFFF800000000000000000001FFFFF
1FFFFFC00000000000000000001FFFFF
0FFFFFC00000000000000000001FFFFF
0FFFFFE00000000000000000001FFFFF
0FFFFFF00000000000000000001FFFFF
07FFFFF00000000000000000001FFFFF
07FFFFF80000000000000000001FFFFF
03FFFFFC0000000000000000001FFFFF
03FFFFFE0000000000000000001FFFFF
01FFFFFF0000000000000000001FFFFF
01FFFFFF8000000000000000001FFFFF
00FFFFFFC000000000000000001FFFFF
00FFFFFFE000000000000000001FFFFF
007FFFFFF800000000000000001FFFFF
003FFFFFFC00000000000000001FFFFF
003FFFFFFF00000000000000001FFFFF
001FFFFFFFC0000000000000001FFFFF
000FFFFFFFF8000000000000001FFFFF
000FFFFFFFFF800000000000001FFFFF
0007FFFFFFFFFFFFFFFFFFFFFFFFFFFF
0003FFFFFFFFFFFFFFFFFFFFFFFFFFFF
0001FFFFFFFFFFFFFFFFFFFFFFFFFFFF
0000FFFFFFFFFFFFFFFFFFFFFFFFFFFF
00007FFFFFFFFFFFFFFFFFFFFFFFFFFF
00003FFFFFFFFFFFFFFFFFFFFFFFFFFF
00001FFFFFFFFFFFFFFFFFFFFFFFFFFF
00000FFFFFFFFFFFFFFFFFFFFFFFFFFF
000007FFFFFFFFFFFFFFFFFFFFFFFFFF
000001FFFFFFFFFFFFFFFFFFFFFFFFFF
000000FFFFFFFFFFFFFFFFFFFFFFFFFF
0000007FFFFFFFFFFFFFFFFFFFFFFFFF
0000001FFFFFFFFFFFFFFFFFFFFFFFFF
00000007FFFFFFFFFFFFFFFFFFFFFFFF
00000003FFFFFFFFFFFFFFFFFFFFFFFF
00000000FFFFFFFFFFFFFFFFFFFFFFFF
000000003FFFFFFFFFFFFFFFFFFFFFFF
0000000007FFFFFFFFFFFFFFFFFFFFFF
0000000000FFFFFFFFFFFFFFFFFFFFFF
00000000001FFFFFFFFFFFFFFFFFFFFF
0000000000007FFFFFFFFFFFFFFFFFFF
ENDCHAR
STARTCHAR H
ENCODING 72
SWIDTH 838 0
DWIDTH 136 0
BBX 116 118 10 0
BITMAP
FFFFF8000000000000000001FFFFF0
FFFFF8000000000000000001FFFFF0
FFFFF8000000000000000001FFFFF0
FFFFF8000000000000000001FFFFF0
FFFFF8000000000000000001FFFFF0
FFFFF8000000000000000001FFFFF0
FFFFF8000000000000000001FFFFF0
FFFFF8000000000000000001FFFFF0
FFFFF8000000000000000001FFFFF0
FFFFF8000000000000000001FFFFF0
FFFFF8000000000000000001FFFFF0
FFFFF8000000000000000001FFFFF0
FFFFF8000000000000000001FFFFF0
FFFFF8000000000000000001FFFFF0
FFFFF8000000000000000001FFFFF0
FFFFF8000000000000000001FFFFF0
FFFFF8000000000000000001FFFFF0
FFFFF8000000000000000001FFFFF0
FFFFF8000000000000000001FFFFF0
FFFFF8000000000000000001FFFFF0
FFFFF8000000000000000001FFFFF0
FFFFF8000000000000000001FFFFF0
FFFFF8000000000000000001FFFFF0
FFFFF8000000000000000001FFFFF0
FFFFF8000000000000000001FFFFF0
FFFFF8000000000000000001FFFFF0
FFFFF8000000000000000001FFFFF0
FFFFF8000000000000000001FFFFF0
FFFFF8000000000000000001FFFFF0
FFFFF8000000000000000001FFFFF0
FFFFF8000000000000000001FFFFF0
FFFFF8000000000000000001FFFFF0
FFFFF8000000000000000001FFFFF0
FFFFF8000000000000000001FFFFF0
FFFFF8000000000000000001FFFFF0
FFFFF8000000000000000001FFFFF0
FFFFF8000000000000000001FFFFF0
FFFFF8000000000000000001FFFFF0
FFFFF8000000000000000001FFFFF0
FFFFF8000000000000000001FFFFF0
FFFFF8000000000000000001FFFFF0
FFFFF8000000000000000001FFFFF0
FFFFF8000000000000000001FFFFF0
FFFFF8000000000000000001FFFFF0
FFFFF8000000000000000001FFFFF0
FFFFF8000000000000000001FFFFF0
FFFFF8000000000000000001FFFFF0
FFFFF8000000000000000001FFFFF0
FFFFF8000000000000000001FFFFF0
FFFFF8000FFFFFFFFFFFFFFFFFFFF0
FFFFF8000FFFFFFFFFFFFFFFFFFFF0
FFFFF8000FFFFFFFFFFFFFFFFFFFF0
FFFFF8000FFFFFFFFFFFFFFFFFFFF0
FFFFF8000FFFFFFFFFFFFFFFFFFFF0
FFFFF8000FFFFFFFFFFFFFFFFFFFF0
FFFFF8000FFFFFFFFFFFFFFFFFFFF0
FFFFF8000FFFFFFFFFFFFFFFFFFFF0
FFFFF8000FFFFFFFFFFFFFFFFFFFF0
FFFFF8000FFFFFFFFFFFFFFFFFFFF0
FFFFF8000FFFFFFFFFFFFFFFFFFFF0
FFFFF8000FFFFFFFFFFFFFFFFFFFF0
FFFFF8000FFFFFFFFFFFFFFFFFFFF0
FFFFF8000FFFFFFFFFFFFFFFFFFFF0
FFFFF8000FFFFFFFFFFFFFFFFFFFF0
FFFFF8000FFFFFFFFFFFFFFFFFFFF0
FFFFF8000FFFFFFFFFFFFFFFFFFFF0
FFFFF8000FFFFFFFFFFFFFFFFFFFF0
FFFFF8000000000000000001FFFFF0
FFFFF8000000000000000001FFFFF0
FFFFF8000000000000000001FFFFF0
FFFFF8000000000000000001FFFFF0
FFFFF8000000000000000001FFFFF0
FFFFF8000000000000000001FFFFF0
FFFFF8000000000000000001FFFFF0
FFFFF8000000000000000001FFFFF0
FFFFF8000000000000000001FFFFF0
FFFFF8000000000000000001FFFFF0
FFFFF8000000000000000001FFFFF0
FFFFF8000000000000000001FFFFF0
FFFFF8000000000000000001FFFFF0
FFFFF8000000000000000001FFFFF0
FFFFF8000000000000000001FFFFF0
FFFFF8000000000000000001FFFFF0
FFFFF8000000000000000001FFFFF0
FFFFF8000000000000000001FFFFF0
FFFFF8000000000000000001FFFFF0
FFFFF8000000000000000001FFFFF0
FFFFF8000000000000000001FFFFF0
FFFFF8000000000000000001FFFFF0
FFFFF8000000000000000001FFFFF0
FFFFF8000000000000000001FFFFF0
FFFFF8000000000000000001FFFFF0
FFFFF8000000000000000001FFFFF0
FFFFF8000000000000000001FFFFF0
FFFFF8000000000000000001FFFFF0
FFFFF8000000000000000001FFFFF0
FFFFF8000000000000000001FFFFF0
FFFFF8000000000000000001FFFFF0
FFFFF8000000000000000001FFFFF0
FFFFF8000000000000000001FFFFF0
FFFFF8000000000000000001FFFFF0
FFFFF8000000000000000001FFFFF0
FFFFF8000000000000000001FFFFF0
FFFFF8000000000000000001FFFFF0
FFFFF8000000000000000001FFFFF0
FFFFF8000000000000000001FFFFF0
FFFFF8000000000000000001FFFFF0
FFFFF8000000000000000001FFFFF0
FFFFF8000000000000000001FFFFF0
FFFFF8000000000000000001FFFFF0
FFFFF8000000000000000001FFFFF0
FFFFF8000000000000000001FFFFF0
FFFFF8000000000000000001FFFFF0
FFFFF8000000000000000001FFFFF0
FFFFF8000000000000000001FFFFF0
FFFFF8000000000000000001FFFFF0
FFFFF8000000000000000001FFFFF0
FFFFF8000000000000000001FFFFF0
ENDCHAR
STARTCHAR I
ENCODING 73
SWIDTH 267 0
DWIDTH 43 0
BBX 21 118 11 0
BITMAP
FFFFF8
FFFFF8
FFFFF8
FFFFF8
FFFFF8
FFFFF8
FFFFF8
FFFFF8
FFFFF8
FFFFF8
FFFFF8
FFFFF8
FFFFF8
FFFFF8
FFFFF8
FFFFF8
FFFFF8
FFFFF8
FFFFF8
FFFFF8
FFFFF8
FFFFF8
FFFFF8
FFFFF8
FFFFF8
FFFFF8
FFFFF8
FFFFF8
FFFFF8
FFFFF8
FFFFF8
FFFFF8
FFFFF8
FFFFF8
FFFFF8
FFFFF8
FFFFF8
FFFFF8
FFFFF8
FFFFF8
FFFFF8
FFFFF8
FFFFF8
FFFFF8
FFFFF8
FFFFF8
FFFFF8
FFFFF8
FFFFF8
FFFFF8
FFFFF8
FFFFF8
FFFFF8
FFFFF8
FFFFF8
FFFFF8
FFFFF8
FFFFF8
FFFFF8
FFFFF8
FFFFF8
FFFFF8
FFFFF8
FFFFF8
FFFFF8
FFFFF8
FFFFF8
FFFFF8
FFFFF8
FFFFF8
FFFFF8
FFFFF8
FFFFF8
FFFFF8
FFFFF8
FFFFF8
FFFFF8
FFFFF8
FFFFF8
FFFFF8
FFFFF8
FFFFF8
FFFFF8
FFFFF8
FFFFF8
FFFFF8
FFFFF8
FFFFF8
FFFFF8
FFFFF8
FFFFF8
FFFFF8
FFFFF8
FFFFF8
FFFFF8
FFFFF8
FFFFF8
FFFFF8
FFFFF8
FFFFF8
FFFFF8
FFFFF8
FFFFF8
FFFFF8
FFFFF8
FFFFF8
FFFFF8
FFFFF8
FFFFF8
FFFFF8
FFFFF8
FFFFF8
FFFFF8
FFFFF8
FFFFF8
FFFFF8
FFFFF8
FFFFF8
ENDCHAR
STARTCHAR J
ENCODING 74
SWIDTH 708 0
DWIDTH 115 0
BBX 102 118 4 0
BITMAP
000000000000000000003FFFFC
000000000000000000003FFFFC
000000000000000000003FFFFC
000000000000000000003FFFFC
000000000000000000003FFFFC
000000000000000000003FFFFC
000000000000000000003FFFFC
000000000000000000003FFFFC
000000000000000000003FFFFC
000000000000000000003FFFFC
000000000000000000003FFFFC
000000000000000000003FFFFC
000000000000000000003FFFFC
000000000000000000003FFFFC
000000000000000000003FFFFC
000000000000000000003FFFFC
000000000000000000003FFFFC
000000000000000000003FFFFC
000000000000000000003FFFFC
000000000000000000003FFFFC
000000000000000000003FFFFC
000000000000000000003FFFFC
000000000000000000003FFFFC
000000000000000000003FFFFC
000000000000000000003FFFFC
000000000000000000003FFFFC
000000000000000000003FFFFC
000000000000000000003FFFFC
000000000000000000003FFFFC
000000000000000000003FFFFC
000000000000000000003FFFFC
000000000000000000003FFFFC
000000000000000000003FFFFC
000000000000000000003FFFFC
000000000000000000003FFFFC
000000000000000000003FFFFC
000000000000000000003FFFFC
000000000000000000003FFFFC
000000000000000000003FFFFC
000000000000000000003FFFFC
000000000000000000003FFFFC
000000000000000000003FFFFC
000000000000000000003FFFFC
000000000000000000003FFFFC
000000000000000000003FFFFC
000000000000000000003FFFFC
000000000000000000003FFFFC
000000000000000000003FFFFC
000000000000000000003FFFFC
000000000000000000003FFFFC
000000000000000000003FFFFC
000000000000000000003FFFFC
000000000000000000003FFFFC
000000000000000000003FFFFC
000000000000000000003FFFFC
000000000000000000003FFFFC
000000000000000000003FFFFC
000000000000000000003FFFFC
000000000000000000003FFFFC
000000000000000000003FFFFC
000000000000000000003FFFFC
000000000000000000003FFFFC
000000000000000000003FFFFC
000000000000000000003FFFFC
000000000000000000003FFFFC
000000000000000000003FFFFC
000000000000000000003FFFFC
000000000000000000003FFFFC
000000000000000000003FFFFC
000000000000000000007FFFFC
000000000000000000007FFFFC
000000000000000000007FFFFC
000000000000000000007FFFFC
000000000000000000007FFFFC
000000000000000000007FFFFC
00000000000000000000FFFFFC
00000000000000000000FFFFF8
00000000000000000000FFFFF8
00000000000000000000FFFFF8
00000000000000000001FFFFF8
00000000000000000001FFFFF8
00000000000000000003FFFFF8
00000000000000000003FFFFF0
00000000000000000007FFFFF0
00000000000000000007FFFFF0
0000000000000000000FFFFFF0
0000000000000000001FFFFFE0
0000000000000000001FFFFFE0
0000000000000000003FFFFFE0
0000000000000000007FFFFFC0
000000000000000001FFFFFFC0
000000000000000003FFFFFF80
00000000000000000FFFFFFF80
00000000000000003FFFFFFF00
0000000000000000FFFFFFFF00
000000000000000FFFFFFFFE00
00000000000001FFFFFFFFFE00
FFFFFFFFFFFFFFFFFFFFFFFC00
FFFFFFFFFFFFFFFFFFFFFFFC00
FFFFFFFFFFFFFFFFFFFFFFF800
FFFFFFFFFFFFFFFFFFFFFFF000
FFFFFFFFFFFFFFFFFFFFFFE000
FFFFFFFFFFFFFFFFFFFFFFC000
FFFFFFFFFFFFFFFFFFFFFF8000
FFFFFFFFFFFFFFFFFFFFFF0000
FFFFFFFFFFFFFFFFFFFFFE0000
FFFFFFFFFFFFFFFFFFFFFC0000
FFFFFFFFFFFFFFFFFFFFF80000
FFFFFFFFFFFFFFFFFFFFE00000
FFFFFFFFFFFFFFFFFFFFC00000
FFFFFFFFFFFFFFFFFFFF000000
FFFFFFFFFFFFFFFFFFFC000000
FFFFFFFFFFFFFFFFFFF0000000
FFFFFFFFFFFFFFFFFF80000000
FFFFFFFFFFFFFFFFFC00000000
FFFFFFFFFFFFFFFFE000000000
FFFFFFFFFFFFFFFC0000000000
FFFFFFFFFFFFFE000000000000
ENDCHAR
STARTCHAR K
ENCODING 75
SWIDTH 875 0
DWIDTH 142 0
BBX 129 118 10 0
BITMAP
FFFFF8000000000000000003FFFFFFFC00
FFFFF8000000000000000007FFFFFFF000
FFFFF800000000000000001FFFFFFFE000
FFFFF800000000000000003FFFFFFFC000
FFFFF800000000000000007FFFFFFF0000
FFFFF80000000000000001FFFFFFFE0000
FFFFF80000000000000003FFFFFFFC0000
FFFFF80000000000000007FFFFFFF00000
FFFFF8000000000000000FFFFFFFE00000
FFFFF8000000000000003FFFFFFFC00000
FFFFF8000000000000007FFFFFFF000000
FFFFF800000000000000FFFFFFFE000000
FFFFF800000000000003FFFFFFFC000000
FFFFF800000000000007FFFFFFF0000000
FFFFF80000000000000FFFFFFFE0000000
FFFFF80000000000001FFFFFFFC0000000
FFFFF80000000000007FFFFFFF00000000
FFFFF8000000000000FFFFFFFE00000000
FFFFF8000000000001FFFFFFF800000000
FFFFF8000000000007FFFFFFF000000000
FFFFF800000000000FFFFFFFE000000000
FFFFF800000000001FFFFFFF8000000000
FFFFF800000000007FFFFFFF0000000000
FFFFF80000000000FFFFFFFE0000000000
FFFFF80000000001FFFFFFF80000000000
FFFFF80000000003FFFFFFF00000000000
FFFFF8000000000FFFFFFFE00000000000
FFFFF8000000001FFFFFFF800000000000
FFFFF8000000003FFFFFFF000000000000
FFFFF800000000FFFFFFFE000000000000
FFFFF800000001FFFFFFF8000000000000
FFFFF800000003FFFFFFF0000000000000
FFFFF80000000FFFFFFFE0000000000000
FFFFF80000001FFFFFFF80000000000000
FFFFF80000003FFFFFFF00000000000000
FFFFF80000007FFFFFFE00000000000000
FFFFF8000001FFFFFFF800000000000000
FFFFF8000003FFFFFFF000000000000000
FFFFF8000007FFFFFFE000000000000000
FFFFF800001FFFFFFF8000000000000000
FFFFF800003FFFFFFF0000000000000000
FFFFF800007FFFFFFE0000000000000000
FFFFF80001FFFFFFF80000000000000000
FFFFF80003FFFFFFF00000000000000000
FFFFF80007FFFFFFE00000000000000000
FFFFF8000FFFFFFF800000000000000000
FFFFF8003FFFFFFF000000000000000000
FFFFF8007FFFFFFE000000000000000000
FFFFF800FFFFFFF8000000000000000000
FFFFF803FFFFFFF0000000000000000000
FFFFF803FFFFFFE0000000000000000000
FFFFF807FFFFFF80000000000000000000
FFFFF80FFFFFFF00000000000000000000
FFFFF80FFFFFFE00000000000000000000
FFFFF81FFFFFF800000000000000000000
FFFFF81FFFFFF000000000000000000000
FFFFF81FFFFFE000000000000000000000
FFFFF81FFFFF8000000000000000000000
FFFFF81FFFFFC000000000000000000000
FFFFF81FFFFFF000000000000000000000
FFFFF81FFFFFF800000000000000000000
FFFFF80FFFFFFC00000000000000000000
FFFFF80FFFFFFF00000000000000000000
FFFFF807FFFFFF80000000000000000000
FFFFF803FFFFFFC0000000000000000000
FFFFF801FFFFFFF0000000000000000000
FFFFF800FFFFFFF8000000000000000000
FFFFF8007FFFFFFC000000000000000000
FFFFF8003FFFFFFE000000000000000000
FFFFF8000FFFFFFF800000000000000000
FFFFF80007FFFFFFC00000000000000000
FFFFF80003FFFFFFE00000000000000000
FFFFF80001FFFFFFF80000000000000000
FFFFF800007FFFFFFC0000000000000000
FFFFF800003FFFFFFE0000000000000000
FFFFF800001FFFFFFF8000000000000000
FFFFF8000007FFFFFFC000000000000000
FFFFF8000003FFFFFFE000000000000000
FFFFF8000001FFFFFFF800000000000000
FFFFF8000000FFFFFFFC00000000000000
FFFFF80000003FFFFFFE00000000000000
FFFFF80000001FFFFFFF80000000000000
FFFFF80000000FFFFFFFC0000000000000
FFFFF800000007FFFFFFE0000000000000
FFFFF800000001FFFFFFF8000000000000
FFFFF800000000FFFFFFFC000000000000
FFFFF8000000007FFFFFFE000000000000
FFFFF8000000001FFFFFFF800000000000
FFFFF8000000000FFFFFFFC00000000000
FFFFF80000000007FFFFFFE00000000000
FFFFF80000000003FFFFFFF00000000000
FFFFF80000000000FFFFFFFC0000000000
FFFFF800000000007FFFFFFE0000000000
FFFFF800000000003FFFFFFF0000000000
FFFFF800000000001FFFFFFFC000000000
FFFFF8000000000007FFFFFFE000000000
FFFFF8000000000003FFFFFFF000000000
FFFFF8000000000001FFFFFFFC00000000
FFFFF8000000000000FFFFFFFE00000000
FFFFF80000000000003FFFFFFF00000000
FFFFF80000000000001FFFFFFFC0000000
FFFFF80000000000000FFFFFFFE0000000
FFFFF800000000000003FFFFFFF0000000
FFFFF800000000000001FFFFFFFC000000
FFFFF800000000000000FFFFFFFE000000
FFFFF8000000000000007FFFFFFF000000
FFFFF8000000000000001FFFFFFFC00000
FFFFF8000000000000000FFFFFFFE00000
FFFFF80000000000000007FFFFFFF00000
FFFFF80000000000000003FFFFFFF80000
FFFFF80000000000000000FFFFFFFE0000
FFFFF800000000000000007FFFFFFF0000
FFFFF800000000000000003FFFFFFF8000
FFFFF800000000000000000FFFFFFFE000
FFFFF8000000000000000007FFFFFFF000
FFFFF8000000000000000003FFFFFFF800
FFFFF8000000000000000001FFFFFFFE00
FFFFF80000000000000000007FFFFFFF80
ENDCHAR
STARTCHAR L
ENCODING 76
SWIDTH 707 0
DWIDTH 115 0
BBX 100 118 10 0
BITMAP
FFFFF800000000000000000000
FFFFF800000000000000000000
FFFFF800000000000000000000
FFFFF800000000000000000000
FFFFF800000000000000000000
FFFFF800000000000000000000
FFFFF800000000000000000000
FFFFF800000000000000000000
FFFFF800000000000000000000
FFFFF800000000000000000000
FFFFF800000000000000000000
FFFFF800000000000000000000
FFFFF800000000000000000000
FFFFF800000000000000000000
FFFFF800000000000000000000
FFFFF800000000000000000000
FFFFF800000000000000000000
FFFFF800000000000000000000
FFFFF800000000000000000000
FFFFF800000000000000000000
FFFFF800000000000000000000
FFFFF800000000000000000000
FFFFF800000000000000000000
FFFFF800000000000000000000
FFFFF800000000000000000000
FFFFF800000000000000000000
FFFFF800000000000000000000
FFFFF800000000000000000000
FFFFF800000000000000000000
FFFFF800000000000000000000
FFFFF800000000000000000000
FFFFF800000000000000000000
FFFFF800000000000000000000
FFFFF800000000000000000000
FFFFF800000000000000000000
FFFFF800000000000000000000
FFFFF800000000000000000000
FFFFF800000000000000000000
FFFFF800000000000000000000
FFFFF800000000000000000000
FFFFF800000000000000000000
FFFFF800000000000000000000
FFFFF800000000000000000000
FFFFF800000000000000000000
FFFFF800000000000000000000
FFFFF800000000000000000000
FFFFF800000000000000000000
FFFFF800000000000000000000
FFFFF800000000000000000000
FFFFF800000000000000000000
FFFFF800000000000000000000
FFFFF800000000000000000000
FFFFF800000000000000000000
FFFFF800000000000000000000
FFFFF800000000000000000000
FFFFF800000000000000000000
FFFFF800000000000000000000
FFFFF800000000000000000000
FFFFF800000000000000000000
FFFFF800000000000000000000
FFFFF800000000000000000000
FFFFF800000000000000000000
FFFFF800000000000000000000
FFFFF800000000000000000000
FFFFF800000000000000000000
FFFFF800000000000000000000
FFFFF800000000000000000000
FFFFF800000000000000000000
FFFFF800000000000000000000
FFFFF800000000000000000000
FFFFF800000000000000000000
FFFFF800000000000000000000
FFFFF800000000000000000000
FFFFF800000000000000000000
FFFFF800000000000000000000
FFFFF800000000000000000000
FFFFF800000000000000000000
FFFFF800000000000000000000
FFFFF800000000000000000000
FFFFF800000000000000000000
FFFFF800000000000000000000
FFFFF800000000000000000000
FFFFF800000000000000000000
FFFFF800000000000000000000
FFFFF800000000000000000000
FFFFF800000000000000000000
FFFFF800000000000000000000
FFFFF800000000000000000000
FFFFF800000000000000000000
FFFFF800000000000000000000
FFFFF800000000000000000000
FFFFF800000000000000000000
FFFFF800000000000000000000
FFFFF800000000000000000000
FFFFF800000000000000000000
FFFFF800000000000000000000
FFFFF800000000000000000000
FFFFFFFFFFFFFFFFFFFFFFFFF0
FFFFFFFFFFFFFFFFFFFFFFFFF0
FFFFFFFFFFFFFFFFFFFFFFFFF0
FFFFFFFFFFFFFFFFFFFFFFFFF0
FFFFFFFFFFFFFFFFFFFFFFFFF0
FFFFFFFFFFFFFFFFFFFFFFFFF0
FFFFFFFFFFFFFFFFFFFFFFFFF0
FFFFFFFFFFFFFFFFFFFFFFFFF0
FFFFFFFFFFFFFFFFFFFFFFFFF0
FFFFFFFFFFFFFFFFFFFFFFFFF0
FFFFFFFFFFFFFFFFFFFFFFFFF0
FFFFFFFFFFFFFFFFFFFFFFFFF0
FFFFFFFFFFFFFFFFFFFFFFFFF0
FFFFFFFFFFFFFFFFFFFFFFFFF0
FFFFFFFFFFFFFFFFFFFFFFFFF0
FFFFFFFFFFFFFFFFFFFFFFFFF0
FFFFFFFFFFFFFFFFFFFFFFFFF0
FFFFFFFFFFFFFFFFFFFFFFFFF0
FFFFFFFFFFFFFFFFFFFFFFFFF0
FFFFFFFFFFFFFFFFFFFFFFFFF0
FFFFFFFFFFFFFFFFFFFFFFFFF0
ENDCHAR
STARTCHAR M
ENCODING 77
SWIDTH 1115 0
DWIDTH 181 0
BBX 173 120 4 -2
BITMAP
0000000007F0000000000000000000003F8000000000
000000001FFC00000000000000000000FFE000000000
000000007FFE00000000000000000003FFF000000000
00000000FFFF80000000000000000007FFF800000000
00000000FFFF80000000000000000007FFF800000000
00000001FFFFC000000000000000000FFFFC00000000
00000001FFFFE000000000000000001FFFFC00000000
00000003FFFFE000000000000000001FFFFE00000000
00000003FFFFE000000000000000001FFFFE00000000
00000003FFFFF000000000000000003FFFFE00000000
00000003FFFFF000000000000000003FFFFF00000000
00000007FFFFF800000000000000007FFFFF00000000
00000007FFFFF800000000000000007FFFFF00000000
00000007FFFFFC0000000000000000FFFFFF80000000
0000000FFFFFFC0000000000000000FFFFFF80000000
0000000FFFFFFE0000000000000000FFFFFF80000000
0000000FFFFFFE0000000000000001FFFFFF80000000
0000000FFFFFFE0000000000000001FFFFFFC0000000
0000001FFFFFFF0000000000000003FFFFFFC0000000
0000001FFFFFFF0000000000000003FFFFFFC0000000
0000001FFFFFFF8000000000000007FFFFFFC0000000
0000001FFFFFFF8000000000000007FFFFFFE0000000
0000003FFFFFFFC00000000000000FFFFFFFE0000000
0000003FFFFFFFC00000000000000FFFFFFFE0000000
0000003FFFFFFFC00000000000000FFFFFFFF0000000
0000007FFFFFFFE00000000000001FFFFFFFF0000000
0000007FFFFFFFE00000000000001FFFFFFFF0000000
0000007FFFFFFFF00000000000003FFFFFFFF0000000
0000007FFFFFFFF00000000000003FFFFFFFF8000000
000000FFFFFFFFF80000000000007FFFFFFFF8000000
000000FFFFFFFFF80000000000007FFFFFFFF8000000
000000FFFFFFFFFC0000000000007FFFFFFFF8000000
000000FFFFFFFFFC000000000000FFFFFFFFFC000000
000001FFFFFFFFFC000000000000FFFFFFFFFC000000
000001FFFFFFFFFE000000000001FFFFFFFFFC000000
000001FFFFFFFFFE000000000001FFFFFFFFFE000000
000003FFFFFFFFFF000000000003FFFFFFFFFE000000
000003FFFFDFFFFF000000000003FFFFDFFFFE000000
000003FFFFCFFFFF800000000007FFFF9FFFFE000000
000003FFFFCFFFFF800000000007FFFF9FFFFF000000
000007FFFFCFFFFFC00000000007FFFF1FFFFF000000
000007FFFF87FFFFC0000000000FFFFF0FFFFF000000
000007FFFF87FFFFC0000000000FFFFF0FFFFF000000
00000FFFFF83FFFFE0000000001FFFFE0FFFFF800000
00000FFFFF03FFFFE0000000001FFFFE07FFFF800000
00000FFFFF01FFFFF0000000003FFFFC07FFFF800000
00000FFFFF01FFFFF0000000003FFFFC07FFFFC00000
00001FFFFF00FFFFF8000000007FFFF807FFFFC00000
00001FFFFE00FFFFF8000000007FFFF803FFFFC00000
00001FFFFE00FFFFF8000000007FFFF803FFFFC00000
00001FFFFE007FFFFC00000000FFFFF003FFFFE00000
00003FFFFE007FFFFC00000000FFFFF003FFFFE00000
00003FFFFC003FFFFE00000001FFFFE001FFFFE00000
00003FFFFC003FFFFE00000001FFFFE001FFFFF00000
00007FFFFC001FFFFF00000003FFFFC001FFFFF00000
00007FFFF8001FFFFF00000003FFFFC000FFFFF00000
00007FFFF8000FFFFF80000003FFFF8000FFFFF00000
00007FFFF8000FFFFF80000007FFFF8000FFFFF80000
0000FFFFF8000FFFFF80000007FFFF8000FFFFF80000
0000FFFFF00007FFFFC000000FFFFF00007FFFF80000
0000FFFFF00007FFFFC000000FFFFF00007FFFF80000
0001FFFFF00003FFFFE000001FFFFE00007FFFFC0000
0001FFFFE00003FFFFE000001FFFFE00003FFFFC0000
0001FFFFE00001FFFFF000003FFFFC00003FFFFC0000
0001FFFFE00001FFFFF000003FFFFC00003FFFFE0000
0003FFFFE00001FFFFF800003FFFF800003FFFFE0000
0003FFFFC00000FFFFF800007FFFF800001FFFFE0000
0003FFFFC00000FFFFF800007FFFF800001FFFFE0000
0003FFFFC000007FFFFC0000FFFFF000001FFFFF0000
0007FFFFC000007FFFFC0000FFFFF000001FFFFF0000
0007FFFF8000003FFFFE0001FFFFE000000FFFFF0000
0007FFFF8000003FFFFE0001FFFFE000000FFFFF0000
000FFFFF8000001FFFFF0003FFFFC000000FFFFF8000
000FFFFF0000001FFFFF0003FFFFC0000007FFFF8000
000FFFFF0000001FFFFF0003FFFF80000007FFFF8000
000FFFFF0000000FFFFF8007FFFF80000007FFFFC000
001FFFFF0000000FFFFF8007FFFF80000007FFFFC000
001FFFFE00000007FFFFC00FFFFF00000003FFFFC000
001FFFFE00000007FFFFC00FFFFF00000003FFFFC000
001FFFFE00000003FFFFE01FFFFE00000003FFFFE000
003FFFFE00000003FFFFE01FFFFE00000003FFFFE000
003FFFFC00000001FFFFF01FFFFC00000001FFFFE000
003FFFFC00000001FFFFF03FFFFC00000001FFFFE000
007FFFFC00000001FFFFF03FFFF800000001FFFFF000
007FFFF800000000FFFFF87FFFF800000000FFFFF000
007FFFF800000000FFFFF87FFFF800000000FFFFF000
007FFFF8000000007FFFFCFFFFF000000000FFFFF800
00FFFFF8000000007FFFFCFFFFF000000000FFFFF800
00FFFFF0000000003FFFFFFFFFE0000000007FFFF800
00FFFFF0000000003FFFFFFFFFE0000000007FFFF800
01FFFFF0000000003FFFFFFFFFC0000000007FFFFC00
01FFFFE0000000001FFFFFFFFFC0000000003FFFFC00
01FFFFE0000000001FFFFFFFFF80000000003FFFFC00
01FFFFE0000000000FFFFFFFFF80000000003FFFFE00
03FFFFE0000000000FFFFFFFFF80000000003FFFFE00
03FFFFC00000000007FFFFFFFF00000000001FFFFE00
03FFFFC00000000007FFFFFFFF00000000001FFFFE00
03FFFFC00000000003FFFFFFFE00000000001FFFFF00
07FFFFC00000000003FFFFFFFE00000000001FFFFF00
07FFFF800000000003FFFFFFFC00000000000FFFFF00
07FFFF800000000001FFFFFFFC00000000000FFFFF00
0FFFFF800000000001FFFFFFFC00000000000FFFFF80
0FFFFF000000000000FFFFFFF8000000000007FFFF80
0FFFFF000000000000FFFFFFF8000000000007FFFF80
0FFFFF0000000000007FFFFFF0000000000007FFFFC0
1FFFFF0000000000007FFFFFF0000000000007FFFFC0
1FFFFE0000000000007FFFFFE0000000000003FFFFC0
1FFFFE0000000000003FFFFFE0000000000003FFFFC0
1FFFFE0000000000003FFFFFC0000000000003FFFFE0
3FFFFE0000000000001FFFFFC0000000000003FFFFE0
3FFFFC0000000000001FFFFFC0000000000001FFFFE0
3FFFFC0000000000000FFFFF80000000000001FFFFE0
7FFFFC0000000000000FFFFF80000000000001FFFFF0
7FFFF800000000000007FFFF00000000000000FFFFF0
7FFFF800000000000007FFFE00000000000000FFFFF0
7FFFF800000000000003FFFE00000000000000FFFFF8
FFFFF800000000000001FFFC00000000000000FFFFF8
FFFFF000000000000000FFF8000000000000007FFFF8
000000000000000000003FE000000000000000000000
00000000000000000000020000000000000000000000
ENDCHAR
STARTCHAR N
ENCODING 78
SWIDTH 873 0
DWIDTH 141 0
BBX 122 118 10 0
BITMAP
01F80000000000000000000003FFFFC0
07FF0000000000000000000003FFFFC0
1FFF8000000000000000000003FFFFC0
3FFFC000000000000000000003FFFFC0
3FFFE000000000000000000003FFFFC0
7FFFF000000000000000000003FFFFC0
7FFFF800000000000000000003FFFFC0
FFFFFC00000000000000000003FFFFC0
FFFFFE00000000000000000003FFFFC0
FFFFFF00000000000000000003FFFFC0
FFFFFF80000000000000000003FFFFC0
FFFFFFC0000000000000000003FFFFC0
FFFFFFE0000000000000000003FFFFC0
FFFFFFF8000000000000000003FFFFC0
FFFFFFF8000000000000000003FFFFC0
FFFFFFFE000000000000000003FFFFC0
FFFFFFFF000000000000000003FFFFC0
FFFFFFFF800000000000000003FFFFC0
FFFFFFFFC00000000000000003FFFFC0
FFFFFFFFE00000000000000003FFFFC0
FFFFFFFFF00000000000000003FFFFC0
FFFFFFFFF80000000000000003FFFFC0
FFFFFFFFFC0000000000000003FFFFC0
FFFFFFFFFE0000000000000003FFFFC0
FFFFFFFFFF0000000000000003FFFFC0
FFFFFFFFFF8000000000000003FFFFC0
FFFFFFFFFFC000000000000003FFFFC0
FFFFFFFFFFE000000000000003FFFFC0
FFFFFFFFFFF000000000000003FFFFC0
FFFFFFFFFFF800000000000003FFFFC0
FFFFFFFFFFFC00000000000003FFFFC0
FFFFFFFFFFFE00000000000003FFFFC0
FFFFFFFFFFFF00000000000003FFFFC0
FFFFEFFFFFFF80000000000003FFFFC0
FFFFE7FFFFFFC0000000000003FFFFC0
FFFFE3FFFFFFE0000000000003FFFFC0
FFFFE1FFFFFFF0000000000003FFFFC0
FFFFE0FFFFFFF8000000000003FFFFC0
FFFFE07FFFFFFC000000000003FFFFC0
FFFFE03FFFFFFE000000000003FFFFC0
FFFFE01FFFFFFF000000000003FFFFC0
FFFFE00FFFFFFF800000000003FFFFC0
FFFFE007FFFFFFC00000000003FFFFC0
FFFFE003FFFFFFE00000000003FFFFC0
FFFFE001FFFFFFF00000000003FFFFC0
FFFFE000FFFFFFF80000000003FFFFC0
FFFFE0007FFFFFFC0000000003FFFFC0
FFFFE0003FFFFFFE0000000003FFFFC0
FFFFE0001FFFFFFF0000000003FFFFC0
FFFFE0000FFFFFFF8000000003FFFFC0
FFFFE00007FFFFFFC000000003FFFFC0
FFFFE00003FFFFFFE000000003FFFFC0
FFFFE00001FFFFFFF000000003FFFFC0
FFFFE00000FFFFFFF800000003FFFFC0
FFFFE000007FFFFFFC00000003FFFFC0
FFFFE000003FFFFFFE00000003FFFFC0
FFFFE000001FFFFFFF00000003FFFFC0
FFFFE000000FFFFFFF80000003FFFFC0
FFFFE0000007FFFFFFC0000003FFFFC0
FFFFE0000003FFFFFFE0000003FFFFC0
FFFFE0000001FFFFFFF0000003FFFFC0
FFFFE00000007FFFFFF8000003FFFFC0
FFFFE00000003FFFFFFC000003FFFFC0
FFFFE00000001FFFFFFE000003FFFFC0
FFFFE00000000FFFFFFF000003FFFFC0
FFFFE000000007FFFFFF800003FFFFC0
FFFFE000000003FFFFFFC00003FFFFC0
FFFFE000000001FFFFFFE00003FFFFC0
FFFFE000000000FFFFFFF00003FFFFC0
FFFFE0000000007FFFFFF80003FFFFC0
FFFFE0000000003FFFFFFC0003FFFFC0
FFFFE0000000001FFFFFFE0003FFFFC0
FFFFE0000000000FFFFFFF8003FFFFC0
FFFFE00000000007FFFFFFC003FFFFC0
FFFFE00000000003FFFFFFE003FFFFC0
FFFFE00000000001FFFFFFF003FFFFC0
FFFFE00000000000FFFFFFF803FFFFC0
FFFFE000000000007FFFFFFC03FFFFC0
FFFFE000000000003FFFFFFE03FFFFC0
FFFFE000000000001FFFFFFF03FFFFC0
FFFFE000000000000FFFFFFF83FFFFC0
FFFFE0000000000007FFFFFFC3FFFFC0
FFFFE0000000000003FFFFFFE3FFFFC0
FFFFE0000000000001FFFFFFF3FFFFC0
FFFFE0000000000000FFFFFFFBFFFFC0
FFFFE00000000000007FFFFFFFFFFFC0
FFFFE00000000000003FFFFFFFFFFFC0
FFFFE00000000000001FFFFFFFFFFFC0
FFFFE00000000000000FFFFFFFFFFFC0
FFFFE000000000000007FFFFFFFFFFC0
FFFFE000000000000003FFFFFFFFFFC0
FFFFE000000000000001FFFFFFFFFFC0
FFFFE000000000000000FFFFFFFFFFC0
FFFFE0000000000000007FFFFFFFFFC0
FFFFE0000000000000003FFFFFFFFFC0
FFFFE0000000000000001FFFFFFFFFC0
FFFFE0000000000000000FFFFFFFFFC0
FFFFE00000000000000007FFFFFFFFC0
FFFFE00000000000000003FFFFFFFFC0
FFFFE00000000000000001FFFFFFFFC0
FFFFE00000000000000000FFFFFFFFC0
FFFFE000000000000000003FFFFFFFC0
FFFFE000000000000000001FFFFFFFC0
FFFFE000000000000000000FFFFFFFC0
FFFFE0000000000000000007FFFFFFC0
FFFFE0000000000000000003FFFFFFC0
FFFFE0000000000000000001FFFFFFC0
FFFFE0000000000000000000FFFFFFC0
FFFFE00000000000000000007FFFFFC0
FFFFE00000000000000000003FFFFF80
FFFFE00000000000000000001FFFFF80
FFFFE00000000000000000000FFFFF80
FFFFE000000000000000000007FFFF00
FFFFE000000000000000000003FFFF00
FFFFE000000000000000000001FFFE00
FFFFE000000000000000000000FFFC00
FFFFE0000000000000000000003FF800
FFFFE0000000000000000000000FE000
ENDCHAR
STARTCHAR O
ENCODING 79
SWIDTH 968 0
DWIDTH 157 0
BBX 143 118 7 0
BITMAP
0000000000007FFFFFFFFFFC000000000000
00000000001FFFFFFFFFFFFFF00000000000
0000000001FFFFFFFFFFFFFFFF0000000000
000000000FFFFFFFFFFFFFFFFFE000000000
000000007FFFFFFFFFFFFFFFFFFC00000000
00000001FFFFFFFFFFFFFFFFFFFF00000000
00000007FFFFFFFFFFFFFFFFFFFFC0000000
0000001FFFFFFFFFFFFFFFFFFFFFF0000000
0000007FFFFFFFFFFFFFFFFFFFFFFC000000
000000FFFFFFFFFFFFFFFFFFFFFFFE000000
000003FFFFFFFFFFFFFFFFFFFFFFFF800000
000007FFFFFFFFFFFFFFFFFFFFFFFFC00000
00000FFFFFFFFFFFFFFFFFFFFFFFFFE00000
00001FFFFFFFFFFFFFFFFFFFFFFFFFF80000
00007FFFFFFFFFFFFFFFFFFFFFFFFFFC0000
0000FFFFFFFFFFFFFFFFFFFFFFFFFFFE0000
0001FFFFFFFFFFFFFFFFFFFFFFFFFFFF0000
0003FFFFFFFFFFFFFFFFFFFFFFFFFFFF8000
0003FFFFFFFFFFFFFFFFFFFFFFFFFFFFC000
0007FFFFFFFFFFFFFFFFFFFFFFFFFFFFC000
000FFFFFFFFFFFFFFFFFFFFFFFFFFFFFE000
001FFFFFFFFF000000000003FFFFFFFFF000
003FFFFFFFF80000000000003FFFFFFFF800
003FFFFFFFC000000000000007FFFFFFF800
007FFFFFFF0000000000000001FFFFFFFC00
00FFFFFFFC00000000000000007FFFFFFE00
00FFFFFFF800000000000000003FFFFFFE00
01FFFFFFE000000000000000000FFFFFFF00
01FFFFFFC0000000000000000007FFFFFF00
03FFFFFF80000000000000000003FFFFFF80
03FFFFFF00000000000000000001FFFFFF80
07FFFFFE00000000000000000000FFFFFFC0
07FFFFFC000000000000000000007FFFFFC0
0FFFFFF8000000000000000000003FFFFFE0
0FFFFFF0000000000000000000001FFFFFE0
0FFFFFE0000000000000000000000FFFFFF0
1FFFFFE0000000000000000000000FFFFFF0
1FFFFFC00000000000000000000007FFFFF0
1FFFFF800000000000000000000003FFFFF8
3FFFFF800000000000000000000003FFFFF8
3FFFFF000000000000000000000001FFFFF8
3FFFFF000000000000000000000001FFFFF8
7FFFFF000000000000000000000000FFFFFC
7FFFFE000000000000000000000000FFFFFC
7FFFFE000000000000000000000000FFFFFC
7FFFFC0000000000000000000000007FFFFC
7FFFFC0000000000000000000000007FFFFC
FFFFFC0000000000000000000000007FFFFE
FFFFFC0000000000000000000000003FFFFE
FFFFF80000000000000000000000003FFFFE
FFFFF80000000000000000000000003FFFFE
FFFFF80000000000000000000000003FFFFE
FFFFF80000000000000000000000003FFFFE
FFFFF80000000000000000000000003FFFFE
FFFFF80000000000000000000000001FFFFE
FFFFF00000000000000000000000001FFFFE
FFFFF00000000000000000000000001FFFFE
FFFFF00000000000000000000000001FFFFE
FFFFF00000000000000000000000001FFFFE
FFFFF00000000000000000000000001FFFFE
FFFFF00000000000000000000000001FFFFE
FFFFF00000000000000000000000001FFFFE
FFFFF80000000000000000000000001FFFFE
FFFFF80000000000000000000000003FFFFE
FFFFF80000000000000000000000003FFFFE
FFFFF80000000000000000000000003FFFFE
FFFFF80000000000000000000000003FFFFE
FFFFF80000000000000000000000003FFFFE
7FFFF80000000000000000000000003FFFFE
7FFFFC0000000000000000000000007FFFFC
7FFFFC0000000000000000000000007FFFFC
7FFFFC0000000000000000000000007FFFFC
7FFFFE0000000000000000000000007FFFFC
3FFFFE000000000000000000000000FFFFFC
3FFFFE000000000000000000000000FFFFF8
3FFFFF000000000000000000000001FFFFF8
3FFFFF000000000000000000000001FFFFF8
1FFFFF800000000000000000000001FFFFF8
1FFFFF800000000000000000000003FFFFF0
1FFFFFC00000000000000000000007FFFFF0
0FFFFFC00000000000000000000007FFFFE0
0FFFFFE0000000000000000000000FFFFFE0
0FFFFFF0000000000000000000000FFFFFE0
07FFFFF0000000000000000000001FFFFFC0
07FFFFF8000000000000000000003FFFFFC0
03FFFFFC000000000000000000007FFFFF80
03FFFFFE00000000000000000000FFFFFF80
01FFFFFF00000000000000000001FFFFFF00
01FFFFFF80000000000000000003FFFFFF00
00FFFFFFC0000000000000000007FFFFFE00
00FFFFFFE000000000000000000FFFFFFE00
007FFFFFF800000000000000003FFFFFFC00
003FFFFFFC00000000000000007FFFFFFC00
003FFFFFFF0000000000000001FFFFFFF800
001FFFFFFFC00000000000000FFFFFFFF000
000FFFFFFFF80000000000003FFFFFFFE000
000FFFFFFFFF800000000003FFFFFFFFE000
0007FFFFFFFFFFFFFFFFFFFFFFFFFFFFC000
0003FFFFFFFFFFFFFFFFFFFFFFFFFFFF8000
0001FFFFFFFFFFFFFFFFFFFFFFFFFFFF0000
0000FFFFFFFFFFFFFFFFFFFFFFFFFFFE0000
00007FFFFFFFFFFFFFFFFFFFFFFFFFFC0000
00003FFFFFFFFFFFFFFFFFFFFFFFFFF80000
00001FFFFFFFFFFFFFFFFFFFFFFFFFF00000
00000FFFFFFFFFFFFFFFFFFFFFFFFFE00000
000007FFFFFFFFFFFFFFFFFFFFFFFFC00000
000001FFFFFFFFFFFFFFFFFFFFFFFF800000
000000FFFFFFFFFFFFFFFFFFFFFFFE000000
0000007FFFFFFFFFFFFFFFFFFFFFFC000000
0000001FFFFFFFFFFFFFFFFFFFFFF0000000
00000007FFFFFFFFFFFFFFFFFFFFC0000000
00000003FFFFFFFFFFFFFFFFFFFF80000000
00000000FFFFFFFFFFFFFFFFFFFE00000000
000000003FFFFFFFFFFFFFFFFFF800000000
0000000007FFFFFFFFFFFFFFFFC000000000
0000000000FFFFFFFFFFFFFFFE0000000000
00000000001FFFFFFFFFFFFFE00000000000
0000000000007FFFFFFFFFFC000000000000
ENDCHAR
STARTCHAR P
ENCODING 80
SWIDTH 867 0
DWIDTH 140 0
BBX 126 118 10 0
BITMAP
FFFFFFFFFFFFFFFFFFFFFFE000000000
FFFFFFFFFFFFFFFFFFFFFFFF00000000
FFFFFFFFFFFFFFFFFFFFFFFFF0000000
FFFFFFFFFFFFFFFFFFFFFFFFFE000000
FFFFFFFFFFFFFFFFFFFFFFFFFF800000
FFFFFFFFFFFFFFFFFFFFFFFFFFE00000
FFFFFFFFFFFFFFFFFFFFFFFFFFF00000
FFFFFFFFFFFFFFFFFFFFFFFFFFFC0000
FFFFFFFFFFFFFFFFFFFFFFFFFFFE0000
FFFFFFFFFFFFFFFFFFFFFFFFFFFF8000
FFFFFFFFFFFFFFFFFFFFFFFFFFFFC000
FFFFFFFFFFFFFFFFFFFFFFFFFFFFE000
FFFFFFFFFFFFFFFFFFFFFFFFFFFFF000
FFFFFFFFFFFFFFFFFFFFFFFFFFFFF800
FFFFFFFFFFFFFFFFFFFFFFFFFFFFF800
FFFFFFFFFFFFFFFFFFFFFFFFFFFFFC00
FFFFFFFFFFFFFFFFFFFFFFFFFFFFFE00
FFFFFFFFFFFFFFFFFFFFFFFFFFFFFF00
FFFFFFFFFFFFFFFFFFFFFFFFFFFFFF00
FFFFFFFFFFFFFFFFFFFFFFFFFFFFFF80
FFFFFFFFFFFFFFFFFFFFFFFFFFFFFF80
FFFFF800000000000000001FFFFFFFC0
FFFFF8000000000000000003FFFFFFC0
FFFFF8000000000000000000FFFFFFE0
FFFFF80000000000000000007FFFFFE0
FFFFF80000000000000000001FFFFFE0
FFFFF80000000000000000000FFFFFF0
FFFFF800000000000000000007FFFFF0
FFFFF800000000000000000003FFFFF0
FFFFF800000000000000000003FFFFF8
FFFFF800000000000000000001FFFFF8
FFFFF800000000000000000000FFFFF8
FFFFF800000000000000000000FFFFF8
FFFFF800000000000000000000FFFFF8
FFFFF8000000000000000000007FFFFC
FFFFF8000000000000000000007FFFFC
FFFFF8000000000000000000007FFFFC
FFFFF8000000000000000000003FFFFC
FFFFF8000000000000000000003FFFFC
FFFFF8000000000000000000003FFFFC
FFFFF8000000000000000000003FFFFC
FFFFF8000000000000000000003FFFFC
FFFFF8000000000000000000003FFFFC
FFFFF8000000000000000000003FFFFC
FFFFF8000000000000000000003FFFFC
FFFFF8000000000000000000003FFFFC
FFFFF8000000000000000000003FFFFC
FFFFF8000000000000000000003FFFFC
FFFFF8000000000000000000007FFFFC
FFFFF8000000000000000000007FFFFC
FFFFF8000000000000000000007FFFF8
FFFFF8000000000000000000007FFFF8
FFFFF800000000000000000000FFFFF8
FFFFF800000000000000000000FFFFF8
FFFFF800000000000000000001FFFFF8
FFFFF800000000000000000001FFFFF0
FFFFF800000000000000000003FFFFF0
FFFFF800000000000000000007FFFFF0
FFFFF80000000000000000000FFFFFF0
FFFFF80000000000000000001FFFFFE0
FFFFF80000000000000000003FFFFFE0
FFFFF80000000000000000007FFFFFC0
FFFFF8000000000000000001FFFFFFC0
FFFFF8000000000000000007FFFFFF80
FFFFF800000000000000007FFFFFFF80
FFFFF8000FFFFFFFFFFFFFFFFFFFFF00
FFFFF8000FFFFFFFFFFFFFFFFFFFFF00
FFFFF8000FFFFFFFFFFFFFFFFFFFFE00
FFFFF8000FFFFFFFFFFFFFFFFFFFFC00
FFFFF8000FFFFFFFFFFFFFFFFFFFFC00
FFFFF8000FFFFFFFFFFFFFFFFFFFF800
FFFFF8000FFFFFFFFFFFFFFFFFFFF000
FFFFF8000FFFFFFFFFFFFFFFFFFFE000
FFFFF8000FFFFFFFFFFFFFFFFFFFC000
FFFFF8000FFFFFFFFFFFFFFFFFFF8000
FFFFF8000FFFFFFFFFFFFFFFFFFF0000
FFFFF8000FFFFFFFFFFFFFFFFFFE0000
FFFFF8000FFFFFFFFFFFFFFFFFF80000
FFFFF8000FFFFFFFFFFFFFFFFFF00000
FFFFF8000FFFFFFFFFFFFFFFFFC00000
FFFFF8000FFFFFFFFFFFFFFFFF000000
FFFFF8000FFFFFFFFFFFFFFFFC000000
FFFFF8000FFFFFFFFFFFFFFFE0000000
FFFFF8000FFFFFFFFFFFFFFF00000000
FFFFF8000FFFFFFFFFFFFFE000000000
FFFFF800000000000000000000000000
FFFFF800000000000000000000000000
FFFFF800000000000000000000000000
FFFFF800000000000000000000000000
FFFFF800000000000000000000000000
FFFFF800000000000000000000000000
FFFFF800000000000000000000000000
FFFFF800000000000000000000000000
FFFFF800000000000000000000000000
FFFFF800000000000000000000000000
FFFFF800000000000000000000000000
FFFFF800000000000000000000000000
FFFFF800000000000000000000000000
FFFFF800000000000000000000000000
FFFFF800000000000000000000000000
FFFFF800000000000000000000000000
FFFFF800000000000000000000000000
FFFFF800000000000000000000000000
FFFFF800000000000000000000000000
FFFFF800000000000000000000000000
FFFFF800000000000000000000000000
FFFFF800000000000000000000000000
FFFFF800000000000000000000000000
FFFFF800000000000000000000000000
FFFFF800000000000000000000000000
FFFFF800000000000000000000000000
FFFFF800000000000000000000000000
FFFFF800000000000000000000000000
FFFFF800000000000000000000000000
FFFFF800000000000000000000000000
FFFFF800000000000000000000000000
FFFFF800000000000000000000000000
FFFFF800000000000000000000000000
ENDCHAR
STARTCHAR Q
ENCODING 81
SWIDTH 968 0
DWIDTH 157 0
BBX 149 118 7 0
BITMAP
0000000000007FFFFFFFFFFC00000000000000
00000000001FFFFFFFFFFFFFF0000000000000
0000000001FFFFFFFFFFFFFFFF000000000000
000000000FFFFFFFFFFFFFFFFFE00000000000
000000007FFFFFFFFFFFFFFFFFFC0000000000
00000001FFFFFFFFFFFFFFFFFFFF0000000000
00000007FFFFFFFFFFFFFFFFFFFFC000000000
0000001FFFFFFFFFFFFFFFFFFFFFF000000000
0000007FFFFFFFFFFFFFFFFFFFFFFC00000000
000000FFFFFFFFFFFFFFFFFFFFFFFE00000000
000003FFFFFFFFFFFFFFFFFFFFFFFF80000000
000007FFFFFFFFFFFFFFFFFFFFFFFFC0000000
00000FFFFFFFFFFFFFFFFFFFFFFFFFE0000000
00001FFFFFFFFFFFFFFFFFFFFFFFFFF8000000
00007FFFFFFFFFFFFFFFFFFFFFFFFFFC000000
0000FFFFFFFFFFFFFFFFFFFFFFFFFFFE000000
0001FFFFFFFFFFFFFFFFFFFFFFFFFFFF000000
0003FFFFFFFFFFFFFFFFFFFFFFFFFFFF800000
0003FFFFFFFFFFFFFFFFFFFFFFFFFFFFC00000
0007FFFFFFFFFFFFFFFFFFFFFFFFFFFFC00000
000FFFFFFFFFFFFFFFFFFFFFFFFFFFFFE00000
001FFFFFFFFF000000000003FFFFFFFFF00000
003FFFFFFFF80000000000003FFFFFFFF80000
003FFFFFFFC000000000000007FFFFFFF80000
007FFFFFFF0000000000000001FFFFFFFC0000
00FFFFFFFC00000000000000007FFFFFFE0000
00FFFFFFF800000000000000003FFFFFFE0000
01FFFFFFE000000000000000000FFFFFFF0000
01FFFFFFC0000000000000000007FFFFFF0000
03FFFFFF80000000000000000003FFFFFF8000
03FFFFFF00000000000000000001FFFFFF8000
07FFFFFE00000000000000000000FFFFFFC000
07FFFFFC000000000000000000007FFFFFC000
0FFFFFF8000000000000000000003FFFFFE000
0FFFFFF0000000000000000000001FFFFFE000
0FFFFFE0000000000000000000000FFFFFF000
1FFFFFE0000000000000000000000FFFFFF000
1FFFFFC00000000000000000000007FFFFF000
1FFFFF800000000000000000000003FFFFF800
3FFFFF800000000000000000000003FFFFF800
3FFFFF000000000000000000000001FFFFF800
3FFFFF000000000000000000000001FFFFF800
7FFFFF000000000000000000000000FFFFFC00
7FFFFE000000000000000000000000FFFFFC00
7FFFFE000000000000000000000000FFFFFC00
7FFFFC0000000000000000000000007FFFFC00
7FFFFC0000000000000000000000007FFFFC00
FFFFFC0000000000000000000000007FFFFE00
FFFFFC0000000000000000000000003FFFFE00
FFFFF80000000000000000000000003FFFFE00
FFFFF80000000000000000000000003FFFFE00
FFFFF80000000000000000000000003FFFFE00
FFFFF80000000000000000000000003FFFFE00
FFFFF80000000000000000000000003FFFFE00
FFFFF80000000000000000000000001FFFFE00
FFFFF00000000000000000000000001FFFFE00
FFFFF00000000000000000000000001FFFFE00
FFFFF00000000000000000000000001FFFFE00
FFFFF00000000000000000000000001FFFFE00
FFFFF00000000000000000000000001FFFFE00
FFFFF00000000000000000000000001FFFFE00
FFFFF00000000000000000000000001FFFFE00
FFFFF80000000000000000000000001FFFFE00
FFFFF80000000000000000000000001FFFFE00
FFFFF80000000000000000000000003FFFFE00
FFFFF80000000000000000000000003FFFFE00
FFFFF80000000000000000000000003FFFFE00
FFFFF80000000000000000000000003FFFFE00
7FFFF80000000000000000000000003FFFFE00
7FFFFC0000000003FFFFFF800000007FFFFC00
7FFFFC0000000001FFFFFFC00000007FFFFC00
7FFFFC00000000007FFFFFF00000007FFFFC00
7FFFFE00000000003FFFFFF80000007FFFFC00
3FFFFE00000000001FFFFFFC000000FFFFFC00
3FFFFE00000000000FFFFFFE000000FFFFF800
3FFFFF000000000003FFFFFF000001FFFFF800
3FFFFF000000000001FFFFFFC00001FFFFF800
1FFFFF800000000000FFFFFFE00003FFFFF800
1FFFFF8000000000003FFFFFF00003FFFFF000
1FFFFFC000000000001FFFFFF80007FFFFF000
0FFFFFC000000000000FFFFFFC0007FFFFF000
0FFFFFE0000000000007FFFFFE000FFFFFE000
0FFFFFF0000000000001FFFFFF800FFFFFE000
07FFFFF0000000000000FFFFFFC01FFFFFC000
07FFFFF80000000000007FFFFFE03FFFFFC000
03FFFFFC0000000000003FFFFFF07FFFFF8000
03FFFFFE0000000000000FFFFFF8FFFFFF8000
01FFFFFF00000000000007FFFFFFFFFFFF0000
01FFFFFF80000000000003FFFFFFFFFFFF0000
00FFFFFFC0000000000000FFFFFFFFFFFE0000
00FFFFFFE00000000000007FFFFFFFFFFE0000
007FFFFFF80000000000003FFFFFFFFFFC0000
003FFFFFFC0000000000001FFFFFFFFFFC0000
003FFFFFFF00000000000007FFFFFFFFF80000
001FFFFFFFC0000000000003FFFFFFFFF00000
000FFFFFFFF8000000000001FFFFFFFFE00000
000FFFFFFFFF800000000003FFFFFFFFE00000
0007FFFFFFFFFFFFFFFFFFFFFFFFFFFFC00000
0003FFFFFFFFFFFFFFFFFFFFFFFFFFFF800000
0001FFFFFFFFFFFFFFFFFFFFFFFFFFFF000000
0000FFFFFFFFFFFFFFFFFFFFFFFFFFFE000000
00007FFFFFFFFFFFFFFFFFFFFFFFFFFF000000
00003FFFFFFFFFFFFFFFFFFFFFFFFFFF800000
00001FFFFFFFFFFFFFFFFFFFFFFFFFFFC00000
00000FFFFFFFFFFFFFFFFFFFFFFFFFFFF00000
000007FFFFFFFFFFFFFFFFFFFFFFFFFFF80000
000001FFFFFFFFFFFFFFFFFFFFFFFFFFFC0000
000000FFFFFFFFFFFFFFFFFFFFFFFFFFFF0000
0000007FFFFFFFFFFFFFFFFFFFFFFFFFFF8000
0000001FFFFFFFFFFFFFFFFFFFFFFFFFFFC000
00000007FFFFFFFFFFFFFFFFFFFFFFFFFFF000
00000003FFFFFFFFFFFFFFFFFFFFBFFFFFF800
00000000FFFFFFFFFFFFFFFFFFFE1FFFFFFC00
000000003FFFFFFFFFFFFFFFFFF007FFFFFE00
0000000007FFFFFFFFFFFFFFFFC003FFFFFF80
0000000000FFFFFFFFFFFFFFFE0001FFFFFFC0
00000000001FFFFFFFFFFFFFE00000FFFFFFE0
0000000000007FFFFFFFFFF80000007FFFFFF8
ENDCHAR
STARTCHAR R
ENCODING 82
SWIDTH 921 0
DWIDTH 149 0
BBX 139 118 10 0
BITMAP
FFFFFFFFFFFFFFFFFFFFFFF8000000000000
FFFFFFFFFFFFFFFFFFFFFFFFC00000000000
FFFFFFFFFFFFFFFFFFFFFFFFF80000000000
FFFFFFFFFFFFFFFFFFFFFFFFFF0000000000
FFFFFFFFFFFFFFFFFFFFFFFFFFC000000000
FFFFFFFFFFFFFFFFFFFFFFFFFFF000000000
FFFFFFFFFFFFFFFFFFFFFFFFFFFC00000000
FFFFFFFFFFFFFFFFFFFFFFFFFFFE00000000
FFFFFFFFFFFFFFFFFFFFFFFFFFFF80000000
FFFFFFFFFFFFFFFFFFFFFFFFFFFFC0000000
FFFFFFFFFFFFFFFFFFFFFFFFFFFFE0000000
FFFFFFFFFFFFFFFFFFFFFFFFFFFFF0000000
FFFFFFFFFFFFFFFFFFFFFFFFFFFFF8000000
FFFFFFFFFFFFFFFFFFFFFFFFFFFFFC000000
FFFFFFFFFFFFFFFFFFFFFFFFFFFFFE000000
FFFFFFFFFFFFFFFFFFFFFFFFFFFFFF000000
FFFFFFFFFFFFFFFFFFFFFFFFFFFFFF000000
FFFFFFFFFFFFFFFFFFFFFFFFFFFFFF800000
FFFFFFFFFFFFFFFFFFFFFFFFFFFFFF800000
FFFFFFFFFFFFFFFFFFFFFFFFFFFFFFC00000
FFFFFFFFFFFFFFFFFFFFFFFFFFFFFFE00000
FFFFF800000000000000000FFFFFFFE00000
FFFFF8000000000000000001FFFFFFF00000
FFFFF80000000000000000003FFFFFF00000
FFFFF80000000000000000001FFFFFF00000
FFFFF800000000000000000007FFFFF80000
FFFFF800000000000000000003FFFFF80000
FFFFF800000000000000000001FFFFF80000
FFFFF800000000000000000001FFFFFC0000
FFFFF800000000000000000000FFFFFC0000
FFFFF8000000000000000000007FFFFC0000
FFFFF8000000000000000000007FFFFC0000
FFFFF8000000000000000000007FFFFE0000
FFFFF8000000000000000000003FFFFE0000
FFFFF8000000000000000000003FFFFE0000
FFFFF8000000000000000000003FFFFE0000
FFFFF8000000000000000000001FFFFE0000
FFFFF8000000000000000000001FFFFE0000
FFFFF8000000000000000000001FFFFE0000
FFFFF8000000000000000000001FFFFE0000
FFFFF8000000000000000000001FFFFE0000
FFFFF8000000000000000000001FFFFF0000
FFFFF8000000000000000000001FFFFF0000
FFFFF8000000000000000000001FFFFF0000
FFFFF8000000000000000000001FFFFF0000
FFFFF8000000000000000000001FFFFE0000
FFFFF8000000000000000000001FFFFE0000
FFFFF8000000000000000000001FFFFE0000
FFFFF8000000000000000000001FFFFE0000
FFFFF8000000000000000000001FFFFE0000
FFFFF8000000000000000000001FFFFE0000
FFFFF8000000000000000000003FFFFE0000
FFFFF8000000000000000000003FFFFE0000
FFFFF8000000000000000000003FFFFE0000
FFFFF8000000000000000000007FFFFC0000
FFFFF8000000000000000000007FFFFC0000
FFFFF8000000000000000000007FFFFC0000
FFFFF800000000000000000000FFFFFC0000
FFFFF800000000000000000001FFFFF80000
FFFFF800000000000000000001FFFFF80000
FFFFF800000000000000000003FFFFF80000
FFFFF800000000000000000007FFFFF00000
FFFFF80000000000000000000FFFFFF00000
FFFFF80000000000000000001FFFFFE00000
FFFFF80000000000000000007FFFFFE00000
FFFFF8000000000000000001FFFFFFC00000
FFFFF800000000000000001FFFFFFFC00000
FFFFF8000FFFFFFFFFFFFFFFFFFFFF800000
FFFFF8000FFFFFFFFFFFFFFFFFFFFF800000
FFFFF8000FFFFFFFFFFFFFFFFFFFFF000000
FFFFF8000FFFFFFFFFFFFFFFFFFFFE000000
FFFFF8000FFFFFFFFFFFFFFFFFFFFC000000
FFFFF8000FFFFFFFFFFFFFFFFFFFF8000000
FFFFF8000FFFFFFFFFFFFFFFFFFFF8000000
FFFFF8000FFFFFFFFFFFFFFFFFFFE0000000
FFFFF8000FFFFFFFFFFFFFFFFFFFC0000000
FFFFF8000FFFFFFFFFFFFFFFFFFF80000000
FFFFF8000FFFFFFFFFFFFFFFFFFF00000000
FFFFF8000FFFFFFFFFFFFFFFFFFC00000000
FFFFF8000FFFFFFFFFFFFFFFFFF800000000
FFFFF8000FFFFFFFFFFFFFFFFFE000000000
FFFFF8000FFFFFFFFFFFFFFFFF0000000000
FFFFF8000FFFFFFFFFFFFFFFFF0000000000
FFFFF8000FFFFFFFFFFFFFFFFF8000000000
FFFFF8000FFFFFFFFFFFFFFFFFC000000000
FFFFF800000000000000FFFFFFE000000000
FFFFF8000000000000007FFFFFF000000000
FFFFF8000000000000003FFFFFF800000000
FFFFF8000000000000001FFFFFFC00000000
FFFFF8000000000000000FFFFFFE00000000
FFFFF80000000000000007FFFFFF00000000
FFFFF80000000000000003FFFFFF80000000
FFFFF80000000000000001FFFFFFC0000000
FFFFF80000000000000001FFFFFFE0000000
FFFFF80000000000000000FFFFFFF0000000
FFFFF800000000000000007FFFFFF8000000
FFFFF800000000000000003FFFFFFC000000
FFFFF800000000000000001FFFFFFE000000
FFFFF800000000000000000FFFFFFF000000
FFFFF8000000000000000007FFFFFF000000
FFFFF8000000000000000003FFFFFFC00000
FFFFF8000000000000000001FFFFFFC00000
FFFFF8000000000000000000FFFFFFE00000
FFFFF8000000000000000000FFFFFFF00000
FFFFF80000000000000000007FFFFFF80000
FFFFF80000000000000000003FFFFFFC0000
FFFFF80000000000000000001FFFFFFE0000
FFFFF80000000000000000000FFFFFFF0000
FFFFF800000000000000000007FFFFFF8000
FFFFF800000000000000000003FFFFFFC000
FFFFF800000000000000000001FFFFFFE000
FFFFF800000000000000000000FFFFFFF000
FFFFF8000000000000000000007FFFFFF800
FFFFF8000000000000000000007FFFFFFC00
FFFFF8000000000000000000003FFFFFFE00
FFFFF8000000000000000000001FFFFFFF00
FFFFF8000000000000000000000FFFFFFF80
FFFFF80000000000000000000007FFFFFFE0
ENDCHAR
STARTCHAR S
ENCODING 83
SWIDTH 880 0
DWIDTH 143 0
BBX 127 118 8 0
BITMAP
00000007FFFFFFFFFFFFFFFFFFFFFF80
000000FFFFFFFFFFFFFFFFFFFFFFFF80
000007FFFFFFFFFFFFFFFFFFFFFFFF80
00001FFFFFFFFFFFFFFFFFFFFFFFFF80
00007FFFFFFFFFFFFFFFFFFFFFFFFF80
0001FFFFFFFFFFFFFFFFFFFFFFFFFF80
0007FFFFFFFFFFFFFFFFFFFFFFFFFF80
000FFFFFFFFFFFFFFFFFFFFFFFFFFF80
001FFFFFFFFFFFFFFFFFFFFFFFFFFF80
003FFFFFFFFFFFFFFFFFFFFFFFFFFF80
007FFFFFFFFFFFFFFFFFFFFFFFFFFF80
00FFFFFFFFFFFFFFFFFFFFFFFFFFFF80
01FFFFFFFFFFFFFFFFFFFFFFFFFFFF80
03FFFFFFFFFFFFFFFFFFFFFFFFFFFF80
03FFFFFFFFFFFFFFFFFFFFFFFFFFFF80
07FFFFFFFFFFFFFFFFFFFFFFFFFFFF80
0FFFFFFFFFFFFFFFFFFFFFFFFFFFFF80
0FFFFFFFFFFFFFFFFFFFFFFFFFFFFF80
1FFFFFFFFFFFFFFFFFFFFFFFFFFFFF80
1FFFFFFFFFFFFFFFFFFFFFFFFFFFFF80
1FFFFFFFFFFFFFFFFFFFFFFFFFFFFF80
3FFFFFFE000000000000000000000000
3FFFFFF0000000000000000000000000
3FFFFFE0000000000000000000000000
7FFFFFC0000000000000000000000000
7FFFFF80000000000000000000000000
7FFFFF00000000000000000000000000
7FFFFF00000000000000000000000000
7FFFFE00000000000000000000000000
7FFFFE00000000000000000000000000
FFFFFC00000000000000000000000000
FFFFFC00000000000000000000000000
FFFFFC00000000000000000000000000
FFFFFC00000000000000000000000000
FFFFFC00000000000000000000000000
FFFFFC00000000000000000000000000
7FFFFC00000000000000000000000000
7FFFFC00000000000000000000000000
7FFFFC00000000000000000000000000
7FFFFC00000000000000000000000000
7FFFFC00000000000000000000000000
7FFFFE00000000000000000000000000
3FFFFE00000000000000000000000000
3FFFFF00000000000000000000000000
3FFFFF00000000000000000000000000
3FFFFF80000000000000000000000000
1FFFFFC0000000000000000000000000
1FFFFFE0000000000000000000000000
0FFFFFF8000000000000000000000000
0FFFFFFF000000000000000000000000
07FFFFFFFFFFFFFFFFFFFFFFE0000000
07FFFFFFFFFFFFFFFFFFFFFFFF000000
03FFFFFFFFFFFFFFFFFFFFFFFFF00000
01FFFFFFFFFFFFFFFFFFFFFFFFFC0000
01FFFFFFFFFFFFFFFFFFFFFFFFFF0000
00FFFFFFFFFFFFFFFFFFFFFFFFFFC000
007FFFFFFFFFFFFFFFFFFFFFFFFFE000
003FFFFFFFFFFFFFFFFFFFFFFFFFF800
001FFFFFFFFFFFFFFFFFFFFFFFFFFC00
000FFFFFFFFFFFFFFFFFFFFFFFFFFE00
0003FFFFFFFFFFFFFFFFFFFFFFFFFF00
0001FFFFFFFFFFFFFFFFFFFFFFFFFF80
00007FFFFFFFFFFFFFFFFFFFFFFFFF80
00001FFFFFFFFFFFFFFFFFFFFFFFFFC0
000007FFFFFFFFFFFFFFFFFFFFFFFFE0
000000FFFFFFFFFFFFFFFFFFFFFFFFE0
00000003FFFFFFFFFFFFFFFFFFFFFFF0
000000000000000000000000FFFFFFF0
0000000000000000000000001FFFFFF8
00000000000000000000000007FFFFF8
00000000000000000000000001FFFFF8
00000000000000000000000000FFFFFC
000000000000000000000000007FFFFC
000000000000000000000000003FFFFC
000000000000000000000000003FFFFC
000000000000000000000000001FFFFC
000000000000000000000000001FFFFE
000000000000000000000000001FFFFE
000000000000000000000000001FFFFE
000000000000000000000000000FFFFE
000000000000000000000000000FFFFE
000000000000000000000000000FFFFE
000000000000000000000000000FFFFE
000000000000000000000000000FFFFE
000000000000000000000000001FFFFE
000000000000000000000000001FFFFE
000000000000000000000000001FFFFE
000000000000000000000000001FFFFE
000000000000000000000000003FFFFE
000000000000000000000000003FFFFE
000000000000000000000000007FFFFE
000000000000000000000000007FFFFC
00000000000000000000000000FFFFFC
00000000000000000000000001FFFFFC
00000000000000000000000003FFFFFC
0000000000000000000000000FFFFFF8
0000000000000000000000007FFFFFF8
3FFFFFFFFFFFFFFFFFFFFFFFFFFFFFF8
3FFFFFFFFFFFFFFFFFFFFFFFFFFFFFF0
3FFFFFFFFFFFFFFFFFFFFFFFFFFFFFF0
3FFFFFFFFFFFFFFFFFFFFFFFFFFFFFF0
3FFFFFFFFFFFFFFFFFFFFFFFFFFFFFE0
3FFFFFFFFFFFFFFFFFFFFFFFFFFFFFC0
3FFFFFFFFFFFFFFFFFFFFFFFFFFFFFC0
3FFFFFFFFFFFFFFFFFFFFFFFFFFFFF80
3FFFFFFFFFFFFFFFFFFFFFFFFFFFFF00
3FFFFFFFFFFFFFFFFFFFFFFFFFFFFF00
3FFFFFFFFFFFFFFFFFFFFFFFFFFFFE00
3FFFFFFFFFFFFFFFFFFFFFFFFFFFFC00
3FFFFFFFFFFFFFFFFFFFFFFFFFFFF800
3FFFFFFFFFFFFFFFFFFFFFFFFFFFF000
3FFFFFFFFFFFFFFFFFFFFFFFFFFFC000
3FFFFFFFFFFFFFFFFFFFFFFFFFFF8000
3FFFFFFFFFFFFFFFFFFFFFFFFFFE0000
3FFFFFFFFFFFFFFFFFFFFFFFFFF80000
3FFFFFFFFFFFFFFFFFFFFFFFFFC00000
3FFFFFFFFFFFFFFFFFFFFFFFFE000000
3FFFFFFFFFFFFFFFFFFFFFFFC0000000
ENDCHAR
STARTCHAR T
ENCODING 84
SWIDTH 720 0
DWIDTH 117 0
BBX 110 118 3 0
BITMAP
FFFFFFFFFFFFFFFFFFFFFFFFFFFC
FFFFFFFFFFFFFFFFFFFFFFFFFFFC
FFFFFFFFFFFFFFFFFFFFFFFFFFFC
FFFFFFFFFFFFFFFFFFFFFFFFFFFC
FFFFFFFFFFFFFFFFFFFFFFFFFFFC
FFFFFFFFFFFFFFFFFFFFFFFFFFFC
FFFFFFFFFFFFFFFFFFFFFFFFFFFC
FFFFFFFFFFFFFFFFFFFFFFFFFFFC
FFFFFFFFFFFFFFFFFFFFFFFFFFFC
FFFFFFFFFFFFFFFFFFFFFFFFFFFC
FFFFFFFFFFFFFFFFFFFFFFFFFFFC
FFFFFFFFFFFFFFFFFFFFFFFFFFFC
FFFFFFFFFFFFFFFFFFFFFFFFFFFC
FFFFFFFFFFFFFFFFFFFFFFFFFFFC
FFFFFFFFFFFFFFFFFFFFFFFFFFFC
FFFFFFFFFFFFFFFFFFFFFFFFFFFC
FFFFFFFFFFFFFFFFFFFFFFFFFFFC
FFFFFFFFFFFFFFFFFFFFFFFFFFFC
FFFFFFFFFFFFFFFFFFFFFFFFFFFC
FFFFFFFFFFFFFFFFFFFFFFFFFFFC
FFFFFFFFFFFFFFFFFFFFFFFFFFFC
000000000007FFFFC00000000000
000000000007FFFFC00000000000
000000000007FFFFC00000000000
000000000007FFFFC00000000000
000000000007FFFFC00000000000
000000000007FFFFC00000000000
000000000007FFFFC00000000000
000000000007FFFFC00000000000
000000000007FFFFC00000000000
000000000007FFFFC00000000000
000000000007FFFFC00000000000
000000000007FFFFC00000000000
000000000007FFFFC00000000000
000000000007FFFFC00000000000
000000000007FFFFC00000000000
000000000007FFFFC00000000000
000000000007FFFFC00000000000
000000000007FFFFC00000000000
000000000007FFFFC00000000000
000000000007FFFFC00000000000
000000000007FFFFC00000000000
000000000007FFFFC00000000000
000000000007FFFFC00000000000
000000000007FFFFC00000000000
000000000007FFFFC00000000000
000000000007FFFFC00000000000
000000000007FFFFC00000000000
000000000007FFFFC00000000000
000000000007FFFFC00000000000
000000000007FFFFC00000000000
000000000007FFFFC00000000000
000000000007FFFFC00000000000
000000000007FFFFC00000000000
000000000007FFFFC00000000000
000000000007FFFFC00000000000
000000000007FFFFC00000000000
000000000007FFFFC00000000000
000000000007FFFFC00000000000
000000000007FFFFC00000000000
000000000007FFFFC00000000000
000000000007FFFFC00000000000
000000000007FFFFC00000000000
000000000007FFFFC00000000000
000000000007FFFFC00000000000
000000000007FFFFC00000000000
000000000007FFFFC00000000000
000000000007FFFFC00000000000
000000000007FFFFC00000000000
000000000007FFFFC00000000000
000000000007FFFFC00000000000
000000000007FFFFC00000000000
000000000007FFFFC00000000000
000000000007FFFFC00000000000
000000000007FFFFC00000000000
000000000007FFFFC00000000000
000000000007FFFFC00000000000
000000000007FFFFC00000000000
000000000007FFFFC00000000000
000000000007FFFFC00000000000
000000000007FFFFC00000000000
000000000007FFFFC00000000000
000000000007FFFFC00000000000
000000000007FFFFC00000000000
000000000007FFFFC00000000000
000000000007FFFFC00000000000
000000000007FFFFC00000000000
000000000007FFFFC00000000000
000000000007FFFFC00000000000
000000000007FFFFC00000000000
000000000007FFFFC00000000000
000000000007FFFFC00000000000
000000000007FFFFC00000000000
000000000007FFFFC00000000000
000000000007FFFFC00000000000
000000000007FFFFC00000000000
000000000007FFFFC00000000000
000000000007FFFFC00000000000
000000000007FFFFC00000000000
000000000007FFFFC00000000000
000000000007FFFFC00000000000
000000000007FFFFC00000000000
000000000007FFFFC00000000000
000000000007FFFFC00000000000
000000000007FFFFC00000000000
000000000007FFFFC00000000000
000000000007FFFFC00000000000
000000000007FFFFC00000000000
000000000007FFFFC00000000000
000000000007FFFFC00000000000
000000000007FFFFC00000000000
000000000007FFFFC00000000000
000000000007FFFFC00000000000
000000000007FFFFC00000000000
000000000007FFFFC00000000000
000000000007FFFFC00000000000
000000000007FFFFC00000000000
000000000007FFFFC00000000000
ENDCHAR
STARTCHAR U
ENCODING 85
SWIDTH 889 0
DWIDTH 144 0
BBX 128 120 8 -2
BITMAP
FFFFFC000000000000000000001FFFFF
FFFFFC000000000000000000001FFFFF
FFFFFC000000000000000000001FFFFF
FFFFFC000000000000000000001FFFFF
FFFFFC000000000000000000001FFFFF
FFFFFC000000000000000000001FFFFF
FFFFFC000000000000000000001FFFFF
FFFFFC000000000000000000001FFFFF
FFFFFC000000000000000000001FFFFF
FFFFFC000000000000000000001FFFFF
FFFFFC000000000000000000001FFFFF
FFFFFC000000000000000000001FFFFF
FFFFFC000000000000000000001FFFFF
FFFFFC000000000000000000001FFFFF
FFFFFC000000000000000000001FFFFF
FFFFFC000000000000000000001FFFFF
FFFFFC000000000000000000001FFFFF
FFFFFC000000000000000000001FFFFF
FFFFFC000000000000000000001FFFFF
FFFFFC000000000000000000001FFFFF
FFFFFC000000000000000000001FFFFF
FFFFFC000000000000000000001FFFFF
FFFFFC000000000000000000001FFFFF
FFFFFC000000000000000000001FFFFF
FFFFFC000000000000000000001FFFFF
FFFFFC000000000000000000001FFFFF
FFFFFC000000000000000000001FFFFF
FFFFFC000000000000000000001FFFFF
FFFFFC000000000000000000001FFFFF
FFFFFC000000000000000000001FFFFF
FFFFFC000000000000000000001FFFFF
FFFFFC000000000000000000001FFFFF
FFFFFC000000000000000000001FFFFF
FFFFFC000000000000000000001FFFFF
FFFFFC000000000000000000001FFFFF
FFFFFC000000000000000000001FFFFF
FFFFFC000000000000000000001FFFFF
FFFFFC000000000000000000001FFFFF
FFFFFC000000000000000000001FFFFF
FFFFFC000000000000000000001FFFFF
FFFFFC000000000000000000001FFFFF
FFFFFC000000000000000000001FFFFF
FFFFFC000000000000000000001FFFFF
FFFFFC000000000000000000001FFFFF
FFFFFC000000000000000000001FFFFF
FFFFFC000000000000000000001FFFFF
FFFFFC000000000000000000001FFFFF
FFFFFC000000000000000000001FFFFF
FFFFFC000000000000000000001FFFFF
FFFFFC000000000000000000001FFFFF
FFFFFC000000000000000000001FFFFF
FFFFFC000000000000000000001FFFFF
FFFFFC000000000000000000001FFFFF
FFFFFC000000000000000000001FFFFF
FFFFFC000000000000000000001FFFFF
FFFFFC000000000000000000001FFFFF
FFFFFC000000000000000000001FFFFF
FFFFFC000000000000000000001FFFFF
FFFFFC000000000000000000001FFFFF
FFFFFC000000000000000000001FFFFF
FFFFFC000000000000000000001FFFFF
FFFFFC000000000000000000001FFFFF
FFFFFC000000000000000000001FFFFF
FFFFFC000000000000000000001FFFFF
FFFFFC000000000000000000001FFFFF
FFFFFC000000000000000000001FFFFF
FFFFFC000000000000000000001FFFFF
FFFFFC000000000000000000001FFFFF
FFFFFC000000000000000000001FFFFF
FFFFFC000000000000000000001FFFFF
7FFFFC000000000000000000001FFFFE
7FFFFC000000000000000000001FFFFE
7FFFFC000000000000000000001FFFFE
7FFFFC000000000000000000001FFFFE
7FFFFC000000000000000000001FFFFE
7FFFFC000000000000000000001FFFFE
7FFFFE000000000000000000003FFFFE
7FFFFE000000000000000000003FFFFE
7FFFFE000000000000000000003FFFFE
7FFFFE000000000000000000003FFFFE
3FFFFF000000000000000000007FFFFC
3FFFFF000000000000000000007FFFFC
3FFFFF000000000000000000007FFFFC
3FFFFF80000000000000000000FFFFFC
3FFFFF80000000000000000000FFFFFC
1FFFFFC0000000000000000001FFFFF8
1FFFFFE0000000000000000001FFFFF8
1FFFFFE0000000000000000003FFFFF8
0FFFFFF0000000000000000007FFFFF0
0FFFFFF800000000000000000FFFFFF0
0FFFFFFC00000000000000001FFFFFF0
07FFFFFE00000000000000003FFFFFE0
07FFFFFF8000000000000000FFFFFFE0
03FFFFFFC000000000000001FFFFFFE0
03FFFFFFF000000000000007FFFFFFC0
03FFFFFFFE0000000000001FFFFFFF80
01FFFFFFFFC00000000000FFFFFFFF80
00FFFFFFFFFC000000001FFFFFFFFF00
00FFFFFFFFFFF800000FFFFFFFFFFF00
007FFFFFFFFFFFFFFFFFFFFFFFFFFE00
003FFFFFFFFFFFFFFFFFFFFFFFFFFC00
003FFFFFFFFFFFFFFFFFFFFFFFFFFC00
001FFFFFFFFFFFFFFFFFFFFFFFFFF800
000FFFFFFFFFFFFFFFFFFFFFFFFFF000
0007FFFFFFFFFFFFFFFFFFFFFFFFE000
0003FFFFFFFFFFFFFFFFFFFFFFFFC000
0001FFFFFFFFFFFFFFFFFFFFFFFF8000
0000FFFFFFFFFFFFFFFFFFFFFFFF0000
00003FFFFFFFFFFFFFFFFFFFFFFC0000
00001FFFFFFFFFFFFFFFFFFFFFF80000
000007FFFFFFFFFFFFFFFFFFFFE00000
000003FFFFFFFFFFFFFFFFFFFFC00000
000000FFFFFFFFFFFFFFFFFFFF000000
0000003FFFFFFFFFFFFFFFFFF8000000
00000007FFFFFFFFFFFFFFFFE0000000
00000000FFFFFFFFFFFFFFFF00000000
000000001FFFFFFFFFFFFFF800000000
0000000000FFFFFFFFFFFF0000000000
000000000003FFFFFFFFC00000000000
000000000000001FF200000000000000
ENDCHAR
STARTCHAR V
ENCODING 86
SWIDTH 989 0
DWIDTH 160 0
BBX 156 120 2 -2
BITMAP
FFFFFFC00000000000000000000000000FFFFFF0
7FFFFFC00000000000000000000000001FFFFFE0
3FFFFFE00000000000000000000000001FFFFFC0
3FFFFFE00000000000000000000000003FFFFFC0
1FFFFFF00000000000000000000000007FFFFF80
0FFFFFF80000000000000000000000007FFFFF00
0FFFFFF8000000000000000000000000FFFFFF00
07FFFFFC000000000000000000000000FFFFFE00
07FFFFFC000000000000000000000001FFFFFE00
03FFFFFE000000000000000000000001FFFFFC00
01FFFFFF000000000000000000000003FFFFF800
01FFFFFF000000000000000000000007FFFFF800
00FFFFFF800000000000000000000007FFFFF000
00FFFFFF80000000000000000000000FFFFFF000
007FFFFFC0000000000000000000000FFFFFE000
003FFFFFC0000000000000000000001FFFFFC000
003FFFFFE0000000000000000000003FFFFFC000
001FFFFFF0000000000000000000003FFFFF8000
001FFFFFF0000000000000000000007FFFFF8000
000FFFFFF8000000000000000000007FFFFF0000
0007FFFFF800000000000000000000FFFFFE0000
0007FFFFFC00000000000000000000FFFFFE0000
0003FFFFFE00000000000000000001FFFFFC0000
0003FFFFFE00000000000000000003FFFFFC0000
0001FFFFFF00000000000000000003FFFFF80000
0000FFFFFF00000000000000000007FFFFF00000
0000FFFFFF80000000000000000007FFFFF00000
00007FFFFF8000000000000000000FFFFFE00000
00007FFFFFC000000000000000001FFFFFE00000
00003FFFFFE000000000000000001FFFFFC00000
00001FFFFFE000000000000000003FFFFF800000
00001FFFFFF000000000000000003FFFFF800000
00000FFFFFF000000000000000007FFFFF000000
00000FFFFFF800000000000000007FFFFF000000
000007FFFFFC0000000000000000FFFFFE000000
000003FFFFFC0000000000000001FFFFFC000000
000003FFFFFE0000000000000001FFFFFC000000
000001FFFFFE0000000000000003FFFFF8000000
000001FFFFFF0000000000000003FFFFF8000000
000000FFFFFF8000000000000007FFFFF0000000
0000007FFFFF800000000000000FFFFFE0000000
0000007FFFFFC00000000000000FFFFFE0000000
0000003FFFFFC00000000000001FFFFFC0000000
0000003FFFFFE00000000000001FFFFFC0000000
0000001FFFFFE00000000000003FFFFF80000000
0000000FFFFFF00000000000003FFFFF00000000
0000000FFFFFF80000000000007FFFFF00000000
00000007FFFFF8000000000000FFFFFE00000000
00000007FFFFFC000000000000FFFFFE00000000
00000003FFFFFC000000000001FFFFFC00000000
00000001FFFFFE000000000001FFFFF800000000
00000001FFFFFF000000000003FFFFF800000000
00000000FFFFFF000000000007FFFFF000000000
00000000FFFFFF800000000007FFFFF000000000
000000007FFFFF80000000000FFFFFE000000000
000000003FFFFFC0000000000FFFFFC000000000
000000003FFFFFC0000000001FFFFFC000000000
000000001FFFFFE0000000001FFFFF8000000000
000000001FFFFFF0000000003FFFFF8000000000
000000000FFFFFF0000000007FFFFF0000000000
0000000007FFFFF8000000007FFFFE0000000000
0000000007FFFFF800000000FFFFFE0000000000
0000000003FFFFFC00000000FFFFFC0000000000
0000000003FFFFFE00000001FFFFFC0000000000
0000000001FFFFFE00000003FFFFF80000000000
0000000000FFFFFF00000003FFFFF00000000000
0000000000FFFFFF00000007FFFFF00000000000
00000000007FFFFF80000007FFFFE00000000000
00000000007FFFFFC000000FFFFFE00000000000
00000000003FFFFFC000000FFFFFC00000000000
00000000001FFFFFE000001FFFFF800000000000
00000000001FFFFFE000003FFFFF800000000000
00000000000FFFFFF000003FFFFF000000000000
00000000000FFFFFF000007FFFFF000000000000
000000000007FFFFF800007FFFFE000000000000
000000000003FFFFFC0000FFFFFC000000000000
000000000003FFFFFC0001FFFFFC000000000000
000000000001FFFFFE0001FFFFF8000000000000
000000000001FFFFFE0003FFFFF8000000000000
000000000000FFFFFF0003FFFFF0000000000000
0000000000007FFFFF8007FFFFE0000000000000
0000000000007FFFFF8007FFFFE0000000000000
0000000000003FFFFFC00FFFFFC0000000000000
0000000000003FFFFFC01FFFFFC0000000000000
0000000000001FFFFFE01FFFFF80000000000000
0000000000000FFFFFE03FFFFF00000000000000
0000000000000FFFFFF03FFFFF00000000000000
00000000000007FFFFF87FFFFE00000000000000
00000000000007FFFFF8FFFFFE00000000000000
00000000000003FFFFFCFFFFFC00000000000000
00000000000001FFFFFDFFFFF800000000000000
00000000000001FFFFFFFFFFF800000000000000
00000000000000FFFFFFFFFFF000000000000000
00000000000000FFFFFFFFFFF000000000000000
000000000000007FFFFFFFFFE000000000000000
000000000000003FFFFFFFFFC000000000000000
000000000000003FFFFFFFFFC000000000000000
000000000000001FFFFFFFFF8000000000000000
000000000000001FFFFFFFFF8000000000000000
000000000000000FFFFFFFFF0000000000000000
0000000000000007FFFFFFFE0000000000000000
0000000000000007FFFFFFFE0000000000000000
0000000000000003FFFFFFFC0000000000000000
0000000000000003FFFFFFFC0000000000000000
0000000000000001FFFFFFF80000000000000000
0000000000000000FFFFFFF00000000000000000
0000000000000000FFFFFFF00000000000000000
00000000000000007FFFFFE00000000000000000
00000000000000007FFFFFE00000000000000000
00000000000000003FFFFFC00000000000000000
00000000000000001FFFFF800000000000000000
00000000000000001FFFFF800000000000000000
00000000000000000FFFFF000000000000000000
00000000000000000FFFFF000000000000000000
000000000000000007FFFE000000000000000000
000000000000000003FFFC000000000000000000
000000000000000001FFF8000000000000000000
000000000000000000FFF0000000000000000000
0000000000000000007FC0000000000000000000
0000000000000000000600000000000000000000
ENDCHAR
STARTCHAR W
ENCODING 87
SWIDTH 1268 0
DWIDTH 205 0
BBX 201 120 2 -2
BITMAP
FFFFFF800000000FFFFFF800000000000000000000003FFFFF80
7FFFFFC00000000FFFFFF800000000000000000000007FFFFF00
3FFFFFC000000007FFFFFC00000000000000000000007FFFFF00
3FFFFFE000000003FFFFFC0000000000000000000000FFFFFE00
1FFFFFE000000003FFFFFE0000000000000000000000FFFFFE00
1FFFFFF000000001FFFFFE0000000000000000000001FFFFFC00
0FFFFFF000000001FFFFFF0000000000000000000001FFFFFC00
0FFFFFF800000000FFFFFF0000000000000000000003FFFFF800
07FFFFF800000000FFFFFF8000000000000000000003FFFFF000
07FFFFFC000000007FFFFF8000000000000000000007FFFFF000
03FFFFFC000000007FFFFFC00000000000000000000FFFFFE000
03FFFFFE000000003FFFFFC00000000000000000000FFFFFE000
01FFFFFE000000003FFFFFE00000000000000000001FFFFFC000
00FFFFFF000000001FFFFFE00000000000000000001FFFFFC000
00FFFFFF000000001FFFFFF00000000000000000003FFFFF8000
007FFFFF800000000FFFFFF00000000000000000003FFFFF8000
007FFFFFC00000000FFFFFF80000000000000000007FFFFF0000
003FFFFFC000000007FFFFF80000000000000000007FFFFF0000
003FFFFFE000000007FFFFFC000000000000000000FFFFFE0000
001FFFFFE000000003FFFFFC000000000000000000FFFFFE0000
001FFFFFF000000003FFFFFE000000000000000001FFFFFC0000
000FFFFFF000000001FFFFFE000000000000000001FFFFF80000
000FFFFFF800000001FFFFFF000000000000000003FFFFF80000
0007FFFFF800000000FFFFFF000000000000000003FFFFF00000
0007FFFFFC00000000FFFFFF800000000000000007FFFFF00000
0003FFFFFC000000007FFFFF800000000000000007FFFFE00000
0003FFFFFE000000007FFFFFC0000000000000000FFFFFE00000
0001FFFFFE000000003FFFFFC0000000000000000FFFFFC00000
0000FFFFFF000000001FFFFFE0000000000000001FFFFFC00000
0000FFFFFF000000001FFFFFE0000000000000003FFFFF800000
00007FFFFF800000000FFFFFF0000000000000003FFFFF800000
00007FFFFF800000000FFFFFF0000000000000007FFFFF000000
00003FFFFFC000000007FFFFF8000000000000007FFFFF000000
00003FFFFFC000000007FFFFF800000000000000FFFFFE000000
00001FFFFFE000000003FFFFFC00000000000000FFFFFC000000
00001FFFFFE000000003FFFFFC00000000000001FFFFFC000000
00000FFFFFF000000001FFFFFE00000000000001FFFFF8000000
00000FFFFFF000000001FFFFFE00000000000003FFFFF8000000
000007FFFFF800000000FFFFFF00000000000003FFFFF0000000
000007FFFFFC00000000FFFFFF00000000000007FFFFF0000000
000003FFFFFC000000007FFFFF80000000000007FFFFE0000000
000001FFFFFE000000007FFFFF8000000000000FFFFFE0000000
000001FFFFFE000000003FFFFFC000000000000FFFFFC0000000
000000FFFFFF000000003FFFFFC000000000001FFFFFC0000000
000000FFFFFF000000001FFFFFE000000000001FFFFF80000000
0000007FFFFF800000001FFFFFE000000000003FFFFF80000000
0000007FFFFF800000000FFFFFF000000000003FFFFF00000000
0000003FFFFFC00000000FFFFFF000000000007FFFFF00000000
0000003FFFFFC000000007FFFFF80000000000FFFFFE00000000
0000001FFFFFE000000007FFFFF80000000000FFFFFC00000000
0000001FFFFFE000000003FFFFFC0000000001FFFFFC00000000
0000000FFFFFF000000003FFFFFC0000000001FFFFF800000000
0000000FFFFFF000000001FFFFFE0000000003FFFFF800000000
00000007FFFFF800000001FFFFFE0000000003FFFFF000000000
00000003FFFFF800000000FFFFFF0000000007FFFFF000000000
00000003FFFFFC000000007FFFFF0000000007FFFFE000000000
00000001FFFFFC000000007FFFFF800000000FFFFFE000000000
00000001FFFFFE000000003FFFFF800000000FFFFFC000000000
00000000FFFFFE000000003FFFFFC00000001FFFFFC000000000
00000000FFFFFF000000003FFFFFC00000001FFFFF8000000000
000000007FFFFF800000007FFFFFE00000003FFFFF8000000000
000000007FFFFF800000007FFFFFE00000003FFFFF0000000000
000000003FFFFFC0000000FFFFFFF00000007FFFFE0000000000
000000003FFFFFC0000000FFFFFFF00000007FFFFE0000000000
000000001FFFFFE0000001FFFFFFF8000000FFFFFC0000000000
000000001FFFFFE0000001FFFFFFF8000000FFFFFC0000000000
000000000FFFFFF0000003FFFFFFFC000001FFFFF80000000000
000000000FFFFFF0000003FFFFFFFC000003FFFFF80000000000
0000000007FFFFF8000007FFFFFFFE000003FFFFF00000000000
0000000003FFFFF800000FFFFFFFFE000007FFFFF00000000000
0000000003FFFFFC00000FFFFFFFFF000007FFFFE00000000000
0000000001FFFFFC00001FFFFFFFFF00000FFFFFE00000000000
0000000001FFFFFE00001FFFFFFFFF80000FFFFFC00000000000
0000000000FFFFFE00003FFFFFFFFF80001FFFFFC00000000000
0000000000FFFFFF00003FFFFFFFFFC0001FFFFF800000000000
00000000007FFFFF00007FFFFFFFFFC0003FFFFF000000000000
00000000007FFFFF80007FFFFFFFFFE0003FFFFF000000000000
00000000003FFFFF8000FFFFFFFFFFE0007FFFFE000000000000
00000000003FFFFFC000FFFFFFFFFFF0007FFFFE000000000000
00000000001FFFFFC001FFFFF7FFFFF000FFFFFC000000000000
00000000001FFFFFE003FFFFF3FFFFF800FFFFFC000000000000
00000000000FFFFFE003FFFFE3FFFFF801FFFFF8000000000000
000000000007FFFFF007FFFFE1FFFFFC01FFFFF8000000000000
000000000007FFFFF807FFFFC1FFFFFC03FFFFF0000000000000
000000000003FFFFF80FFFFFC0FFFFFE03FFFFF0000000000000
000000000003FFFFFC0FFFFF80FFFFFE07FFFFE0000000000000
000000000001FFFFFC1FFFFF807FFFFF0FFFFFE0000000000000
000000000001FFFFFE1FFFFF007FFFFF0FFFFFC0000000000000
000000000000FFFFFE3FFFFF003FFFFF9FFFFFC0000000000000
000000000000FFFFFF7FFFFE003FFFFF9FFFFF80000000000000
0000000000007FFFFF7FFFFE001FFFFFFFFFFF00000000000000
0000000000007FFFFFFFFFFC001FFFFFFFFFFF00000000000000
0000000000003FFFFFFFFFFC000FFFFFFFFFFE00000000000000
0000000000003FFFFFFFFFF8000FFFFFFFFFFE00000000000000
0000000000001FFFFFFFFFF00007FFFFFFFFFC00000000000000
0000000000000FFFFFFFFFF00007FFFFFFFFFC00000000000000
0000000000000FFFFFFFFFE00003FFFFFFFFF800000000000000
00000000000007FFFFFFFFE00003FFFFFFFFF800000000000000
00000000000007FFFFFFFFC00001FFFFFFFFF000000000000000
00000000000003FFFFFFFFC00001FFFFFFFFF000000000000000
00000000000003FFFFFFFF800000FFFFFFFFE000000000000000
00000000000001FFFFFFFF8000007FFFFFFFE000000000000000
00000000000001FFFFFFFF0000007FFFFFFFC000000000000000
00000000000000FFFFFFFF0000003FFFFFFF8000000000000000
00000000000000FFFFFFFE0000003FFFFFFF8000000000000000
000000000000007FFFFFFE0000001FFFFFFF0000000000000000
000000000000007FFFFFFC0000001FFFFFFF0000000000000000
000000000000003FFFFFFC0000000FFFFFFE0000000000000000
000000000000001FFFFFF80000000FFFFFFE0000000000000000
000000000000001FFFFFF800000007FFFFFC0000000000000000
000000000000000FFFFFF000000007FFFFFC0000000000000000
000000000000000FFFFFE000000003FFFFF80000000000000000
0000000000000007FFFFE000000003FFFFF80000000000000000
0000000000000007FFFFC000000001FFFFF00000000000000000
0000000000000003FFFFC000000001FFFFE00000000000000000
0000000000000003FFFF8000000000FFFFE00000000000000000
0000000000000001FFFF00000000007FFFC00000000000000000
0000000000000000FFFE00000000003FFF800000000000000000
00000000000000003FFC00000000000FFE000000000000000000
00000000000000000FE0000000000003F8000000000000000000
ENDCHAR
STARTCHAR X
ENCODING 88
SWIDTH 1000 0
DWIDTH 162 0
BBX 153 118 4 0
BITMAP
0FFFFFFF80000000000000000000007FFFFFF000
03FFFFFFC000000000000000000000FFFFFFE000
01FFFFFFE000000000000000000001FFFFFFC000
00FFFFFFF000000000000000000003FFFFFF8000
007FFFFFF800000000000000000007FFFFFF0000
003FFFFFFC0000000000000000000FFFFFFE0000
001FFFFFFE0000000000000000001FFFFFFC0000
000FFFFFFF0000000000000000003FFFFFF80000
0007FFFFFF8000000000000000007FFFFFF00000
0003FFFFFFC00000000000000000FFFFFFC00000
0001FFFFFFE00000000000000001FFFFFF800000
0000FFFFFFF00000000000000003FFFFFF000000
00007FFFFFF80000000000000007FFFFFE000000
00003FFFFFFC000000000000000FFFFFFC000000
00001FFFFFFE000000000000001FFFFFF8000000
00000FFFFFFF000000000000003FFFFFF0000000
000007FFFFFF800000000000007FFFFFE0000000
000003FFFFFFC0000000000000FFFFFFC0000000
000001FFFFFFE0000000000001FFFFFF80000000
000000FFFFFFF8000000000003FFFFFF00000000
0000007FFFFFFC000000000007FFFFFE00000000
0000003FFFFFFE00000000000FFFFFFC00000000
0000001FFFFFFF00000000001FFFFFF800000000
0000000FFFFFFF80000000003FFFFFF000000000
00000007FFFFFFC0000000007FFFFFE000000000
00000003FFFFFFE000000000FFFFFFC000000000
00000000FFFFFFF000000001FFFFFF8000000000
000000007FFFFFF800000003FFFFFF0000000000
000000003FFFFFFC00000007FFFFFE0000000000
000000001FFFFFFE0000000FFFFFFC0000000000
000000000FFFFFFF0000001FFFFFF80000000000
0000000007FFFFFF8000003FFFFFF00000000000
0000000003FFFFFFC000007FFFFFE00000000000
0000000001FFFFFFE00000FFFFFFC00000000000
0000000000FFFFFFF00001FFFFFF800000000000
00000000007FFFFFF80003FFFFFF000000000000
00000000003FFFFFFC0007FFFFFE000000000000
00000000001FFFFFFE000FFFFFF8000000000000
00000000000FFFFFFF001FFFFFF0000000000000
000000000007FFFFFF803FFFFFE0000000000000
000000000003FFFFFFC07FFFFFC0000000000000
000000000001FFFFFFE1FFFFFF80000000000000
000000000000FFFFFFF3FFFFFF00000000000000
0000000000007FFFFFFFFFFFFE00000000000000
0000000000003FFFFFFFFFFFFC00000000000000
0000000000001FFFFFFFFFFFF800000000000000
0000000000000FFFFFFFFFFFF000000000000000
00000000000007FFFFFFFFFFE000000000000000
00000000000003FFFFFFFFFFC000000000000000
00000000000001FFFFFFFFFF8000000000000000
00000000000000FFFFFFFFFF0000000000000000
000000000000007FFFFFFFFE0000000000000000
000000000000003FFFFFFFFC0000000000000000
000000000000001FFFFFFFF80000000000000000
000000000000000FFFFFFFF00000000000000000
0000000000000003FFFFFFE00000000000000000
0000000000000001FFFFFFC00000000000000000
0000000000000003FFFFFFE00000000000000000
0000000000000007FFFFFFF00000000000000000
000000000000000FFFFFFFF80000000000000000
000000000000001FFFFFFFFC0000000000000000
000000000000003FFFFFFFFE0000000000000000
000000000000007FFFFFFFFF0000000000000000
00000000000000FFFFFFFFFF8000000000000000
00000000000001FFFFFFFFFFC000000000000000
00000000000003FFFFFFFFFFE000000000000000
00000000000007FFFFFFFFFFF000000000000000
0000000000000FFFFFFFFFFFF800000000000000
0000000000001FFFFFFFFFFFFC00000000000000
0000000000003FFFFFFFFFFFFE00000000000000
000000000000FFFFFFEFFFFFFF00000000000000
000000000001FFFFFFC7FFFFFF80000000000000
000000000003FFFFFF03FFFFFFC0000000000000
000000000007FFFFFE01FFFFFFE0000000000000
00000000000FFFFFFC00FFFFFFF0000000000000
00000000001FFFFFF8007FFFFFF8000000000000
00000000003FFFFFF0003FFFFFFC000000000000
00000000007FFFFFE0001FFFFFFE000000000000
0000000000FFFFFFC0000FFFFFFF000000000000
0000000001FFFFFF800007FFFFFF800000000000
0000000003FFFFFF000003FFFFFFC00000000000
0000000007FFFFFE000001FFFFFFF00000000000
000000000FFFFFFC000000FFFFFFF80000000000
000000001FFFFFF80000007FFFFFFC0000000000
000000003FFFFFF00000003FFFFFFE0000000000
000000007FFFFFE00000001FFFFFFF0000000000
00000000FFFFFFC00000000FFFFFFF8000000000
00000001FFFFFF8000000007FFFFFFC000000000
00000003FFFFFF0000000003FFFFFFE000000000
00000007FFFFFE0000000001FFFFFFF000000000
0000000FFFFFFC0000000000FFFFFFF800000000
0000001FFFFFF800000000007FFFFFFC00000000
0000003FFFFFF000000000003FFFFFFE00000000
0000007FFFFFE000000000000FFFFFFF00000000
000000FFFFFFC0000000000007FFFFFF80000000
000001FFFFFF80000000000003FFFFFFC0000000
000003FFFFFF00000000000001FFFFFFE0000000
000007FFFFFE00000000000000FFFFFFF0000000
00000FFFFFFC000000000000007FFFFFF8000000
00001FFFFFF8000000000000003FFFFFFC000000
00003FFFFFF0000000000000001FFFFFFE000000
00007FFFFFE0000000000000000FFFFFFF000000
0000FFFFFFC00000000000000007FFFFFF800000
0003FFFFFF800000000000000003FFFFFFC00000
0007FFFFFF000000000000000001FFFFFFE00000
000FFFFFFE000000000000000000FFFFFFF00000
001FFFFFFC0000000000000000007FFFFFFC0000
003FFFFFF80000000000000000003FFFFFFE0000
007FFFFFF00000000000000000001FFFFFFF0000
00FFFFFFE00000000000000000000FFFFFFF8000
01FFFFFFC000000000000000000007FFFFFFC000
03FFFFFF8000000000000000000003FFFFFFE000
07FFFFFF0000000000000000000001FFFFFFF000
0FFFFFFE0000000000000000000000FFFFFFF800
1FFFFFFC00000000000000000000007FFFFFFC00
3FFFFFF800000000000000000000003FFFFFFE00
7FFFFFF000000000000000000000001FFFFFFF00
FFFFFFE000000000000000000000000FFFFFFF80
ENDCHAR
STARTCHAR Y
ENCODING 89
SWIDTH 926 0
DWIDTH 150 0
BBX 146 118 2 0
BITMAP
FFFFFFF00000000000000000000001FFFFFFC0
7FFFFFF80000000000000000000003FFFFFF80
3FFFFFFC0000000000000000000003FFFFFF00
1FFFFFFE0000000000000000000007FFFFFE00
0FFFFFFF000000000000000000000FFFFFFC00
07FFFFFF000000000000000000001FFFFFF800
03FFFFFF800000000000000000003FFFFFF000
01FFFFFFC00000000000000000007FFFFFF000
01FFFFFFE0000000000000000000FFFFFFE000
00FFFFFFF0000000000000000000FFFFFFC000
007FFFFFF8000000000000000001FFFFFF8000
003FFFFFFC000000000000000003FFFFFF0000
001FFFFFFC000000000000000007FFFFFE0000
000FFFFFFE00000000000000000FFFFFFC0000
000FFFFFFF00000000000000001FFFFFFC0000
0007FFFFFF80000000000000001FFFFFF80000
0003FFFFFFC0000000000000003FFFFFF00000
0001FFFFFFE0000000000000007FFFFFE00000
0000FFFFFFE000000000000000FFFFFFC00000
00007FFFFFF000000000000001FFFFFF800000
00003FFFFFF800000000000003FFFFFF000000
00003FFFFFFC00000000000007FFFFFF000000
00001FFFFFFE00000000000007FFFFFE000000
00000FFFFFFF0000000000000FFFFFFC000000
000007FFFFFF0000000000001FFFFFF8000000
000003FFFFFF8000000000003FFFFFF0000000
000001FFFFFFC000000000007FFFFFE0000000
000000FFFFFFE00000000000FFFFFFC0000000
000000FFFFFFF00000000000FFFFFFC0000000
0000007FFFFFF80000000001FFFFFF80000000
0000003FFFFFFC0000000003FFFFFF00000000
0000001FFFFFFC0000000007FFFFFE00000000
0000000FFFFFFE000000000FFFFFFC00000000
00000007FFFFFF000000001FFFFFF800000000
00000003FFFFFF800000003FFFFFF000000000
00000003FFFFFFC00000003FFFFFF000000000
00000001FFFFFFE00000007FFFFFE000000000
00000000FFFFFFE0000000FFFFFFC000000000
000000007FFFFFF0000001FFFFFF8000000000
000000003FFFFFF8000003FFFFFF0000000000
000000001FFFFFFC000007FFFFFE0000000000
000000000FFFFFFE000007FFFFFC0000000000
000000000FFFFFFF00000FFFFFFC0000000000
0000000007FFFFFF80001FFFFFF80000000000
0000000003FFFFFF80003FFFFFF00000000000
0000000001FFFFFFC0007FFFFFE00000000000
0000000000FFFFFFE000FFFFFFC00000000000
00000000007FFFFFF001FFFFFF800000000000
00000000003FFFFFF801FFFFFF000000000000
00000000003FFFFFFC03FFFFFF000000000000
00000000001FFFFFFC07FFFFFE000000000000
00000000000FFFFFFE0FFFFFFC000000000000
000000000007FFFFFF1FFFFFF8000000000000
000000000003FFFFFFBFFFFFF0000000000000
000000000001FFFFFFFFFFFFE0000000000000
000000000000FFFFFFFFFFFFC0000000000000
000000000000FFFFFFFFFFFFC0000000000000
0000000000007FFFFFFFFFFF80000000000000
0000000000003FFFFFFFFFFF00000000000000
0000000000001FFFFFFFFFFE00000000000000
0000000000000FFFFFFFFFFC00000000000000
00000000000007FFFFFFFFF800000000000000
00000000000007FFFFFFFFF000000000000000
00000000000003FFFFFFFFF000000000000000
00000000000001FFFFFFFFE000000000000000
00000000000000FFFFFFFFC000000000000000
000000000000007FFFFFFF8000000000000000
000000000000003FFFFFFF0000000000000000
000000000000001FFFFFFE0000000000000000
000000000000001FFFFFFC0000000000000000
000000000000000FFFFFFC0000000000000000
0000000000000007FFFFF80000000000000000
0000000000000003FFFFF00000000000000000
0000000000000001FFFFE00000000000000000
0000000000000001FFFFE00000000000000000
0000000000000001FFFFE00000000000000000
0000000000000001FFFFE00000000000000000
0000000000000001FFFFE00000000000000000
0000000000000001FFFFE00000000000000000
0000000000000001FFFFE00000000000000000
0000000000000001FFFFE00000000000000000
0000000000000001FFFFE00000000000000000
0000000000000001FFFFE00000000000000000
0000000000000001FFFFE00000000000000000
0000000000000001FFFFE00000000000000000
0000000000000001FFFFE00000000000000000
0000000000000001FFFFE00000000000000000
0000000000000001FFFFE00000000000000000
0000000000000001FFFFE00000000000000000
0000000000000001FFFFE00000000000000000
0000000000000001FFFFE00000000000000000
0000000000000001FFFFE00000000000000000
0000000000000001FFFFE00000000000000000
0000000000000001FFFFE00000000000000000
0000000000000001FFFFE00000000000000000
0000000000000001FFFFE00000000000000000
0000000000000001FFFFE00000000000000000
0000000000000001FFFFE00000000000000000
0000000000000001FFFFE00000000000000000
0000000000000001FFFFE00000000000000000
0000000000000001FFFFE00000000000000000
0000000000000001FFFFE00000000000000000
0000000000000001FFFFE00000000000000000
0000000000000001FFFFE00000000000000000
0000000000000001FFFFE00000000000000000
0000000000000001FFFFE00000000000000000
0000000000000001FFFFE00000000000000000
0000000000000001FFFFE00000000000000000
0000000000000001FFFFE00000000000000000
0000000000000001FFFFE00000000000000000
0000000000000001FFFFE00000000000000000
0000000000000001FFFFE00000000000000000
0000000000000001FFFFE00000000000000000
0000000000000001FFFFE00000000000000000
0000000000000001FFFFE00000000000000000
0000000000000001FFFFE00000000000000000
0000000000000001FFFFE00000000000000000
0000000000000001FFFFE00000000000000000
ENDCHAR
STARTCHAR Z
ENCODING 90
SWIDTH 802 0
DWIDTH 130 0
BBX 117 118 6 0
BITMAP
3FFFFFFFFFFFFFFFFFFFFFFFFFF800
3FFFFFFFFFFFFFFFFFFFFFFFFFFE00
3FFFFFFFFFFFFFFFFFFFFFFFFFFF80
3FFFFFFFFFFFFFFFFFFFFFFFFFFFC0
3FFFFFFFFFFFFFFFFFFFFFFFFFFFE0
3FFFFFFFFFFFFFFFFFFFFFFFFFFFF0
3FFFFFFFFFFFFFFFFFFFFFFFFFFFF0
3FFFFFFFFFFFFFFFFFFFFFFFFFFFF0
3FFFFFFFFFFFFFFFFFFFFFFFFFFFF0
3FFFFFFFFFFFFFFFFFFFFFFFFFFFF8
3FFFFFFFFFFFFFFFFFFFFFFFFFFFF8
3FFFFFFFFFFFFFFFFFFFFFFFFFFFF8
3FFFFFFFFFFFFFFFFFFFFFFFFFFFF0
3FFFFFFFFFFFFFFFFFFFFFFFFFFFF0
3FFFFFFFFFFFFFFFFFFFFFFFFFFFF0
3FFFFFFFFFFFFFFFFFFFFFFFFFFFE0
3FFFFFFFFFFFFFFFFFFFFFFFFFFFE0
3FFFFFFFFFFFFFFFFFFFFFFFFFFFC0
3FFFFFFFFFFFFFFFFFFFFFFFFFFF80
3FFFFFFFFFFFFFFFFFFFFFFFFFFF00
000000000000000000003FFFFFFE00
000000000000000000007FFFFFFC00
00000000000000000000FFFFFFF800
00000000000000000001FFFFFFF000
00000000000000000003FFFFFFE000
00000000000000000007FFFFFFC000
0000000000000000000FFFFFFF8000
0000000000000000001FFFFFFF0000
0000000000000000003FFFFFFE0000
0000000000000000007FFFFFFC0000
000000000000000000FFFFFFF80000
000000000000000001FFFFFFF00000
000000000000000001FFFFFFE00000
000000000000000003FFFFFFC00000
000000000000000007FFFFFF800000
00000000000000000FFFFFFF000000
00000000000000001FFFFFFE000000
00000000000000003FFFFFFC000000
00000000000000007FFFFFF8000000
0000000000000000FFFFFFF0000000
0000000000000001FFFFFFE0000000
0000000000000003FFFFFFC0000000
0000000000000007FFFFFF80000000
000000000000000FFFFFFF00000000
000000000000001FFFFFFE00000000
000000000000003FFFFFFC00000000
000000000000007FFFFFF800000000
00000000000000FFFFFFF000000000
00000000000001FFFFFFE000000000
00000000000003FFFFFFC000000000
00000000000007FFFFFF8000000000
0000000000000FFFFFFF0000000000
0000000000001FFFFFFE0000000000
0000000000003FFFFFFC0000000000
0000000000007FFFFFF80000000000
000000000000FFFFFFF00000000000
000000000001FFFFFFE00000000000
000000000003FFFFFFC00000000000
000000000007FFFFFF800000000000
00000000000FFFFFFF000000000000
00000000001FFFFFFE000000000000
00000000003FFFFFFC000000000000
00000000007FFFFFF8000000000000
0000000000FFFFFFF0000000000000
0000000001FFFFFFE0000000000000
0000000003FFFFFFC0000000000000
0000000007FFFFFF80000000000000
000000000FFFFFFF00000000000000
000000001FFFFFFE00000000000000
000000003FFFFFFE00000000000000
000000007FFFFFFC00000000000000
00000000FFFFFFF800000000000000
00000001FFFFFFF000000000000000
00000003FFFFFFE000000000000000
00000007FFFFFFC000000000000000
0000000FFFFFFF8000000000000000
0000001FFFFFFF0000000000000000
0000003FFFFFFE0000000000000000
0000007FFFFFFC0000000000000000
000000FFFFFFF80000000000000000
000001FFFFFFF00000000000000000
000003FFFFFFE00000000000000000
000007FFFFFFC00000000000000000
00000FFFFFFF800000000000000000
00001FFFFFFF000000000000000000
00003FFFFFFE000000000000000000
00007FFFFFFC000000000000000000
0000FFFFFFF8000000000000000000
0001FFFFFFF0000000000000000000
0003FFFFFFE0000000000000000000
0007FFFFFFC0000000000000000000
000FFFFFFF80000000000000000000
001FFFFFFF00000000000000000000
003FFFFFFE00000000000000000000
007FFFFFFC00000000000000000000
00FFFFFFF800000000000000000000
01FFFFFFF000000000000000000000
03FFFFFFE000000000000000000000
07FFFFFFFFFFFFFFFFFFFFFFFFFFF0
0FFFFFFFFFFFFFFFFFFFFFFFFFFFF0
1FFFFFFFFFFFFFFFFFFFFFFFFFFFF0
3FFFFFFFFFFFFFFFFFFFFFFFFFFFF0
3FFFFFFFFFFFFFFFFFFFFFFFFFFFF0
7FFFFFFFFFFFFFFFFFFFFFFFFFFFF0
7FFFFFFFFFFFFFFFFFFFFFFFFFFFF0
7FFFFFFFFFFFFFFFFFFFFFFFFFFFF0
7FFFFFFFFFFFFFFFFFFFFFFFFFFFF0
FFFFFFFFFFFFFFFFFFFFFFFFFFFFF0
7FFFFFFFFFFFFFFFFFFFFFFFFFFFF0
7FFFFFFFFFFFFFFFFFFFFFFFFFFFF0
7FFFFFFFFFFFFFFFFFFFFFFFFFFFF0
7FFFFFFFFFFFFFFFFFFFFFFFFFFFF0
3FFFFFFFFFFFFFFFFFFFFFFFFFFFF0
3FFFFFFFFFFFFFFFFFFFFFFFFFFFF0
1FFFFFFFFFFFFFFFFFFFFFFFFFFFF0
0FFFFFFFFFFFFFFFFFFFFFFFFFFFF0
03FFFFFFFFFFFFFFFFFFFFFFFFFFF0
00FFFFFFFFFFFFFFFFFFFFFFFFFFF0
ENDCHAR
STARTCHAR bracketleft
ENCODING 91
SWIDTH 333 0
DWIDTH 54 0
BBX 28 148 16 -14
BITMAP
FFFFFFF0
FFFFFFF0
FFFFFFF0
FFFFFFF0
FFFFFFF0
FFFFFFF0
FFFFFFF0
FFFFFFF0
FFFFFFF0
FFFFFFF0
FFFFFFF0
FFFFFFF0
FFFFFFF0
FFF80000
FFF80000
FFF80000
FFF80000
FFF80000
FFF80000
FFF80000
FFF80000
FFF80000
FFF80000
FFF80000
FFF80000
FFF80000
FFF80000
FFF80000
FFF80000
FFF80000
FFF80000
FFF80000
FFF80000
FFF80000
FFF80000
FFF80000
FFF80000
FFF80000
FFF80000
FFF80000
FFF80000
FFF80000
FFF80000
FFF80000
FFF80000
FFF80000
FFF80000
FFF80000
FFF80000
FFF80000
FFF80000
FFF80000
FFF80000
FFF80000
FFF80000
FFF80000
FFF80000
FFF80000
FFF80000
FFF80000
FFF80000
FFF80000
FFF80000
FFF80000
FFF80000
FFF80000
FFF80000
FFF80000
FFF80000
FFF80000
FFF80000
FFF80000
FFF80000
FFF80000
FFF80000
FFF80000
FFF80000
FFF80000
FFF80000
FFF80000
FFF80000
FFF80000
FFF80000
FFF80000
FFF80000
FFF80000
FFF80000
FFF80000
FFF80000
FFF80000
FFF80000
FFF80000
FFF80000
FFF80000
FFF80000
FFF80000
FFF80000
FFF80000
FFF80000
FFF80000
FFF80000
FFF80000
FFF80000
FFF80000
FFF80000
FFF80000
FFF80000
FFF80000
FFF80000
FFF80000
FFF80000
FFF80000
FFF80000
FFF80000
FFF80000
FFF80000
FFF80000
FFF80000
FFF80000
FFF80000
FFF80000
FFF80000
FFF80000
FFF80000
FFF80000
FFF80000
FFF80000
FFF80000
FFF80000
FFF80000
FFF80000
FFF80000
FFF80000
FFF80000
FFF80000
FFFFFFF0
FFFFFFF0
FFFFFFF0
FFFFFFF0
FFFFFFF0
FFFFFFF0
FFFFFFF0
FFFFFFF0
FFFFFFF0
FFFFFFF0
FFFFFFF0
FFFFFFF0
FFFFFFF0
ENDCHAR
STARTCHAR backslash
ENCODING 92
SWIDTH 445 0
DWIDTH 72 0
BBX 68 118 2 0
BITMAP
FFF800000000000000
FFFC00000000000000
7FFC00000000000000
7FFE00000000000000
3FFE00000000000000
3FFF00000000000000
1FFF00000000000000
1FFF80000000000000
0FFF80000000000000
0FFFC0000000000000
0FFFC0000000000000
07FFE0000000000000
07FFE0000000000000
03FFF0000000000000
03FFF0000000000000
01FFF0000000000000
01FFF8000000000000
00FFF8000000000000
00FFFC000000000000
007FFC000000000000
007FFE000000000000
003FFE000000000000
003FFF000000000000
003FFF000000000000
001FFF800000000000
001FFF800000000000
000FFFC00000000000
000FFFC00000000000
0007FFE00000000000
0007FFE00000000000
0003FFF00000000000
0003FFF00000000000
0001FFF00000000000
0001FFF80000000000
0000FFF80000000000
0000FFFC0000000000
00007FFC0000000000
00007FFE0000000000
00007FFE0000000000
00003FFF0000000000
00003FFF0000000000
00001FFF8000000000
00001FFF8000000000
00000FFFC000000000
00000FFFC000000000
000007FFE000000000
000007FFE000000000
000003FFE000000000
000003FFF000000000
000001FFF000000000
000001FFF800000000
000001FFF800000000
000000FFFC00000000
000000FFFC00000000
0000007FFE00000000
0000007FFE00000000
0000003FFF00000000
0000003FFF00000000
0000001FFF80000000
0000001FFF80000000
0000000FFFC0000000
0000000FFFC0000000
00000007FFC0000000
00000007FFE0000000
00000007FFE0000000
00000003FFF0000000
00000003FFF0000000
00000001FFF8000000
00000001FFF8000000
00000000FFFC000000
00000000FFFC000000
000000007FFE000000
000000007FFE000000
000000003FFF000000
000000003FFF000000
000000001FFF800000
000000001FFF800000
000000001FFFC00000
000000000FFFC00000
000000000FFFC00000
0000000007FFE00000
0000000007FFE00000
0000000003FFF00000
0000000003FFF00000
0000000001FFF80000
0000000001FFF80000
0000000000FFFC0000
0000000000FFFC0000
00000000007FFE0000
00000000007FFE0000
00000000007FFF0000
00000000003FFF0000
00000000003FFF8000
00000000001FFF8000
00000000001FFF8000
00000000000FFFC000
00000000000FFFC000
000000000007FFE000
000000000007FFE000
000000000003FFF000
000000000003FFF000
000000000001FFF800
000000000001FFF800
000000000001FFFC00
000000000000FFFC00
000000000000FFFE00
0000000000007FFE00
0000000000007FFF00
0000000000003FFF00
0000000000003FFF00
0000000000001FFF80
0000000000001FFF80
0000000000000FFFC0
0000000000000FFFC0
00000000000007FFE0
00000000000007FFE0
00000000000003FFF0
00000000000003FFF0
ENDCHAR
STARTCHAR bracketright
ENCODING 93
SWIDTH 333 0
DWIDTH 54 0
BBX 28 148 10 -14
BITMAP
FFFFFFF0
FFFFFFF0
FFFFFFF0
FFFFFFF0
FFFFFFF0
FFFFFFF0
FFFFFFF0
FFFFFFF0
FFFFFFF0
FFFFFFF0
FFFFFFF0
FFFFFFF0
FFFFFFF0
0003FFF0
0003FFF0
0003FFF0
0003FFF0
0003FFF0
0003FFF0
0003FFF0
0003FFF0
0003FFF0
0003FFF0
0003FFF0
0003FFF0
0003FFF0
0003FFF0
0003FFF0
0003FFF0
0003FFF0
0003FFF0
0003FFF0
0003FFF0
0003FFF0
0003FFF0
0003FFF0
0003FFF0
0003FFF0
0003FFF0
0003FFF0
0003FFF0
0003FFF0
0003FFF0
0003FFF0
0003FFF0
0003FFF0
0003FFF0
0003FFF0
0003FFF0
0003FFF0
0003FFF0
0003FFF0
0003FFF0
0003FFF0
0003FFF0
0003FFF0
0003FFF0
0003FFF0
0003FFF0
0003FFF0
0003FFF0
0003FFF0
0003FFF0
0003FFF0
0003FFF0
0003FFF0
0003FFF0
0003FFF0
0003FFF0
0003FFF0
0003FFF0
0003FFF0
0003FFF0
0003FFF0
0003FFF0
0003FFF0
0003FFF0
0003FFF0
0003FFF0
0003FFF0
0003FFF0
0003FFF0
0003FFF0
0003FFF0
0003FFF0
0003FFF0
0003FFF0
0003FFF0
0003FFF0
0003FFF0
0003FFF0
0003FFF0
0003FFF0
0003FFF0
0003FFF0
0003FFF0
0003FFF0
0003FFF0
0003FFF0
0003FFF0
0003FFF0
0003FFF0
0003FFF0
0003FFF0
0003FFF0
0003FFF0
0003FFF0
0003FFF0
0003FFF0
0003FFF0
0003FFF0
0003FFF0
0003FFF0
0003FFF0
0003FFF0
0003FFF0
0003FFF0
0003FFF0
0003FFF0
0003FFF0
0003FFF0
0003FFF0
0003FFF0
0003FFF0
0003FFF0
0003FFF0
0003FFF0
0003FFF0
0003FFF0
0003FFF0
0003FFF0
0003FFF0
0003FFF0
0003FFF0
0003FFF0
FFFFFFF0
FFFFFFF0
FFFFFFF0
FFFFFFF0
FFFFFFF0
FFFFFFF0
FFFFFFF0
FFFFFFF0
FFFFFFF0
FFFFFFF0
FFFFFFF0
FFFFFFF0
FFFFFFF0
ENDCHAR
STARTCHAR asciicircum
ENCODING 94
SWIDTH 559 0
DWIDTH 91 0
BBX 70 71 10 47
BITMAP
000000007C00000000
00000001FF00000000
00000003FF80000000
00000007FFC0000000
0000000FFFE0000000
0000000FFFE0000000
0000001FFFF0000000
0000001FFFF0000000
0000001FFFF0000000
0000003FFFF8000000
0000003FFFF8000000
0000007FFFFC000000
0000007FFFFC000000
0000007FFFFC000000
000000FFFFFE000000
000000FFFFFE000000
000001FFFFFF000000
000001FFFFFF000000
000003FFEFFF800000
000003FFEFFF800000
000003FFCFFF800000
000007FFC7FFC00000
000007FF87FFC00000
00000FFF83FFE00000
00000FFF83FFE00000
00001FFF03FFE00000
00001FFF01FFF00000
00001FFE01FFF00000
00003FFE00FFF80000
00003FFE00FFF80000
00007FFC00FFFC0000
00007FFC007FFC0000
0000FFF8007FFC0000
0000FFF8003FFE0000
0000FFF8003FFE0000
0001FFF0003FFF0000
0001FFF0001FFF0000
0003FFE0001FFF0000
0003FFE0000FFF8000
0003FFE0000FFF8000
0007FFC0000FFFC000
0007FFC00007FFC000
000FFF800007FFE000
000FFF800003FFE000
001FFF800003FFE000
001FFF000003FFF000
001FFF000001FFF000
003FFE000001FFF800
003FFE000000FFF800
007FFE000000FFF800
007FFC000000FFFC00
00FFFC0000007FFC00
00FFF80000007FFE00
00FFF80000003FFE00
01FFF80000003FFF00
01FFF00000003FFF00
03FFF00000001FFF00
03FFE00000001FFF80
07FFE00000001FFF80
07FFE00000000FFFC0
07FFC00000000FFFC0
0FFFC000000007FFC0
0FFF8000000007FFE0
1FFF8000000007FFE0
1FFF8000000003FFF0
1FFF0000000003FFF0
3FFF0000000001FFF0
3FFE0000000001FFF8
7FFE0000000001FFF8
7FFE0000000000FFFC
FFFC0000000000FFFC
ENDCHAR
STARTCHAR underscore
ENCODING 95
SWIDTH 668 0
DWIDTH 108 0
BBX 110 10 0 -26
BITMAP
FFFFFFFFFFFFFFFFFFFFFFFFFFFC
FFFFFFFFFFFFFFFFFFFFFFFFFFFC
FFFFFFFFFFFFFFFFFFFFFFFFFFFC
FFFFFFFFFFFFFFFFFFFFFFFFFFFC
FFFFFFFFFFFFFFFFFFFFFFFFFFFC
FFFFFFFFFFFFFFFFFFFFFFFFFFFC
FFFFFFFFFFFFFFFFFFFFFFFFFFFC
FFFFFFFFFFFFFFFFFFFFFFFFFFFC
FFFFFFFFFFFFFFFFFFFFFFFFFFFC
FFFFFFFFFFFFFFFFFFFFFFFFFFFC
ENDCHAR
STARTCHAR grave
ENCODING 96
SWIDTH 362 0
DWIDTH 59 0
BBX 41 22 9 125
BITMAP
800000000000
F80000000000
FF0000000000
FFE000000000
FFFE00000000
FFFFC0000000
FFFFF8000000
FFFFFF800000
FFFFFFF00000
FFFFFFFE0000
FFFFFFFFE000
FFFFFFFFFC00
FFFFFFFFFF80
1FFFFFFFFF80
00FFFFFFFF80
000FFFFFFF80
00007FFFFF80
000007FFFF80
0000003FFF80
00000001FF80
000000001F80
000000000080
ENDCHAR
STARTCHAR a
ENCODING 97
SWIDTH 989 0
DWIDTH 160 0
BBX 156 120 2 0
BITMAP
0000000000000000000200000000000000000000
0000000000000000007FE0000000000000000000
000000000000000000FFF0000000000000000000
000000000000000001FFF8000000000000000000
000000000000000003FFFC000000000000000000
000000000000000007FFFE000000000000000000
00000000000000000FFFFF000000000000000000
00000000000000000FFFFF000000000000000000
00000000000000001FFFFF800000000000000000
00000000000000001FFFFF800000000000000000
00000000000000003FFFFFC00000000000000000
00000000000000007FFFFFE00000000000000000
00000000000000007FFFFFE00000000000000000
0000000000000000FFFFFFF00000000000000000
0000000000000000FFFFFFF00000000000000000
0000000000000001FFFFFFF80000000000000000
0000000000000003FFFFFFFC0000000000000000
0000000000000003FFFFFFFC0000000000000000
0000000000000007FFFFFFFE0000000000000000
0000000000000007FFFFFFFE0000000000000000
000000000000000FFFFFFFFF0000000000000000
000000000000001FFFFFFFFF8000000000000000
000000000000001FFFFFFFFF8000000000000000
000000000000003FFFFFFFFFC000000000000000
000000000000003FFFFFFFFFC000000000000000
000000000000007FFFFFFFFFE000000000000000
00000000000000FFFFFFFFFFF000000000000000
00000000000000FFFFFFFFFFF000000000000000
00000000000001FFFFFFFFFFF800000000000000
00000000000001FFFFFFFFFFF800000000000000
00000000000003FFFFFBFFFFFC00000000000000
00000000000007FFFFF3FFFFFE00000000000000
00000000000007FFFFE1FFFFFE00000000000000
0000000000000FFFFFE0FFFFFF00000000000000
0000000000000FFFFFC0FFFFFF00000000000000
0000000000001FFFFFC07FFFFF80000000000000
0000000000003FFFFF807FFFFFC0000000000000
0000000000003FFFFF803FFFFFC0000000000000
0000000000007FFFFF001FFFFFE0000000000000
0000000000007FFFFE001FFFFFE0000000000000
000000000000FFFFFE000FFFFFF0000000000000
000000000001FFFFFC000FFFFFF8000000000000
000000000001FFFFFC0007FFFFF8000000000000
000000000003FFFFF80003FFFFFC000000000000
000000000003FFFFF00003FFFFFC000000000000
000000000007FFFFF00001FFFFFE000000000000
00000000000FFFFFE00001FFFFFF000000000000
00000000000FFFFFE00000FFFFFF000000000000
00000000001FFFFFC000007FFFFF800000000000
00000000001FFFFF8000007FFFFF800000000000
00000000003FFFFF8000003FFFFFC00000000000
00000000007FFFFF0000003FFFFFE00000000000
00000000007FFFFF0000001FFFFFE00000000000
0000000000FFFFFE0000000FFFFFF00000000000
0000000000FFFFFC0000000FFFFFF00000000000
0000000001FFFFFC00000007FFFFF80000000000
0000000003FFFFF800000007FFFFFC0000000000
0000000003FFFFF800000003FFFFFC0000000000
0000000007FFFFF000000001FFFFFE0000000000
0000000007FFFFF000000001FFFFFE0000000000
000000000FFFFFE000000000FFFFFF0000000000
000000001FFFFFC0000000007FFFFF8000000000
000000001FFFFFC0000000007FFFFF8000000000
000000003FFFFF80000000003FFFFFC000000000
000000003FFFFF80000000003FFFFFC000000000
000000007FFFFF00000000001FFFFFE000000000
00000000FFFFFE00000000000FFFFFF000000000
00000000FFFFFE00000000000FFFFFF000000000
00000001FFFFFC000000000007FFFFF800000000
00000001FFFFFC000000000007FFFFF800000000
00000003FFFFF8000000000003FFFFFC00000000
00000007FFFFF0000000000001FFFFFE00000000
00000007FFFFF0000000000001FFFFFE00000000
0000000FFFFFE0001FFFFFFFFFFFFFFF00000000
0000000FFFFFE0003FFFFFFFFFFFFFFF00000000
0000001FFFFFC0003FFFFFFFFFFFFFFF80000000
0000003FFFFF80007FFFFFFFFFFFFFFFC0000000
0000003FFFFF80007FFFFFFFFFFFFFFFC0000000
0000007FFFFF0000FFFFFFFFFFFFFFFFE0000000
0000007FFFFF0000FFFFFFFFFFFFFFFFE0000000
000000FFFFFE0001FFFFFFFFFFFFFFFFF0000000
000001FFFFFE0003FFFFFFFFFFFFFFFFF8000000
000001FFFFFC0003FFFFFFFFFFFFFFFFF8000000
000003FFFFF80007FFFFFFFFFFFFFFFFFC000000
000003FFFFF80007FFFFFFFFFFFFFFFFFC000000
000007FFFFF0000FFFFFFFFFFFFFFFFFFE000000
00000FFFFFF0000FFFFFFFFFFFFFFFFFFF000000
00000FFFFFE0001FFFFFFFFFFFFFFFFFFF000000
00001FFFFFC0003FFFFFFFFFFFFFFFFFFF800000
00001FFFFFC0003FFFFFFFFFFFFFFFFFFF800000
00003FFFFF8000000000000000003FFFFFC00000
00007FFFFF8000000000000000003FFFFFE00000
00007FFFFF0000000000000000001FFFFFE00000
0000FFFFFE0000000000000000001FFFFFF00000
0000FFFFFE0000000000000000000FFFFFF00000
0001FFFFFC00000000000000000007FFFFF80000
0003FFFFFC00000000000000000007FFFFFC0000
0003FFFFF800000000000000000003FFFFFC0000
0007FFFFF000000000000000000003FFFFFE0000
0007FFFFF000000000000000000001FFFFFE0000
000FFFFFE000000000000000000000FFFFFF0000
001FFFFFE000000000000000000000FFFFFF8000
001FFFFFC0000000000000000000007FFFFF8000
003FFFFFC0000000000000000000007FFFFFC000
003FFFFF80000000000000000000003FFFFFC000
007FFFFF00000000000000000000003FFFFFE000
00FFFFFF00000000000000000000001FFFFFF000
00FFFFFE00000000000000000000000FFFFFF000
01FFFFFE00000000000000000000000FFFFFF800
01FFFFFC000000000000000000000007FFFFF800
03FFFFF8000000000000000000000007FFFFFC00
07FFFFF8000000000000000000000003FFFFFE00
07FFFFF0000000000000000000000001FFFFFE00
0FFFFFF0000000000000000000000001FFFFFF00
0FFFFFE0000000000000000000000000FFFFFF00
1FFFFFC0000000000000000000000000FFFFFF80
3FFFFFC00000000000000000000000007FFFFFC0
3FFFFF800000000000000000000000003FFFFFC0
7FFFFF800000000000000000000000003FFFFFE0
FFFFFF000000000000000000000000001FFFFFF0
ENDCHAR
ENDFONT
